<?xml version="1.0" encoding="utf-8"?>
<!-- Generator: Adobe Illustrator 16.0.0, SVG Export Plug-In . SVG Version: 6.00 Build 0)  -->
<!DOCTYPE svg PUBLIC "-//W3C//DTD SVG 1.1//EN" "http://www.w3.org/Graphics/SVG/1.1/DTD/svg11.dtd">
<svg version="1.1" id="Layer_1" xmlns="http://www.w3.org/2000/svg" xmlns:xlink="http://www.w3.org/1999/xlink" x="0px" y="0px"
	 width="200px" height="80px" viewBox="0 0 200 80" enable-background="new 0 0 200 80" xml:space="preserve">
<g>
	<path fill="#FFFFFF" d="M51.445,27.699L51.4,31.321l-2.006-0.025c0,0-1.812-0.278-1.832,1.464l-0.036,2.851l3.819,0.049
		l-0.501,3.929l-3.368-0.043l-0.138,11.016l-4.401-0.055l0.141-11.068L40.101,39.4l0.049-3.883l3.107,0.039l0.042-3.299
		c0,0-0.366-1.818,1.271-3.287c1.636-1.468,3.769-1.311,3.769-1.311L51.445,27.699z"/>
	<path fill="#FFFFFF" d="M61.955,35.856l-0.023,1.976c-1.104-1.492-2.662-2.431-4.398-2.452c-3.416-0.042-6.221,2.933-6.283,7.835
		c-0.061,4.87,2.669,7.946,6.084,7.989c1.753,0.022,3.348-0.896,4.49-2.382l-0.053,1.921l4.239,0.054l0.188-14.885L61.955,35.856z
		 M61.607,44.817c-0.019,1.5-1.313,2.897-2.887,2.878c-1.576-0.021-2.832-1.449-2.813-2.951l0.036-2.846
		c0.019-1.501,1.312-2.898,2.887-2.876c1.574,0.021,2.832,1.446,2.814,2.946L61.607,44.817z"/>
	<path fill="#FFFFFF" d="M100.639,51.33l0.025-1.977c1.104,1.492,2.661,2.431,4.398,2.452c3.415,0.043,6.22-2.932,6.28-7.835
		c0.062-4.867-2.666-7.947-6.081-7.99c-1.755-0.022-3.347,0.895-4.493,2.383l0.155-9.831l-4.416,0.442l-0.28,22.23L100.639,51.33z
		 M100.988,42.369c0.018-1.503,1.312-2.896,2.887-2.876c1.575,0.021,2.831,1.446,2.812,2.946l-0.036,2.849
		c-0.019,1.5-1.311,2.897-2.885,2.878c-1.575-0.021-2.835-1.447-2.816-2.951L100.988,42.369z"/>
	<path fill="#FFFFFF" d="M75.628,47.824c0,0-3.401,0.15-3.347-4.25l0.004-0.24c0.056-4.4,3.452-4.162,3.452-4.162
		c2.297-0.004,3.099,0.814,3.099,0.814l1.106-3.19c-1.827-1.383-7.389-1.681-9.909,0.587c-2.183,1.961-2.223,5.184-2.193,6.014
		c-0.051,0.832-0.091,4.055,2.041,6.071c2.463,2.329,8.03,2.171,9.891,0.835l-1.024-3.216
		C78.747,47.087,77.925,47.885,75.628,47.824"/>
	<path fill="#FFFFFF" d="M94.462,45.329c0,0,1.9-9.298-6.612-9.454c-8.509-0.16-7.385,8.34-7.385,8.34
		c0.129,5.148,2.472,6.666,6.51,7.201c4.041,0.537,7.134-0.977,7.134-0.977l-0.9-3.023c0,0-3.28,0.963-5.866,0.704
		c-2.586-0.261-2.36-2.911-2.36-2.911L94.462,45.329z M84.956,42.198c0,0-0.186-3.302,2.793-3.265
		c2.977,0.038,2.709,3.334,2.709,3.334L84.956,42.198z"/>
	<path fill="#FFFFFF" d="M120.209,36.373c-5.541-0.068-7.445,3.25-7.502,7.721c-0.059,4.736,2.305,7.838,7.306,7.9
		c4.091,0.051,7.439-2.656,7.503-7.714C127.569,39.962,125.499,36.439,120.209,36.373 M122.981,45.514
		c-0.019,1.5-1.347,2.895-2.961,2.875c-1.613-0.021-2.905-1.449-2.887-2.949l0.036-2.849c0.02-1.501,1.347-2.896,2.961-2.875
		c1.613,0.019,2.904,1.447,2.887,2.948L122.981,45.514z"/>
	<path fill="#FFFFFF" d="M136.562,36.578c-5.539-0.068-7.448,3.25-7.504,7.72c-0.06,4.738,2.305,7.841,7.308,7.902
		c4.089,0.051,7.438-2.655,7.503-7.715C143.924,40.168,141.854,36.645,136.562,36.578 M139.332,45.717
		c-0.019,1.501-1.344,2.897-2.96,2.879c-1.614-0.022-2.907-1.45-2.888-2.951l0.035-2.848c0.019-1.5,1.347-2.896,2.962-2.875
		c1.617,0.02,2.907,1.447,2.889,2.947L139.332,45.717z"/>
	<polygon fill="#FFFFFF" points="159.303,52.035 154.556,44.48 159.275,37.045 154.543,36.984 149.94,43.635 150.124,29.076 
		145.67,29.486 145.389,51.861 149.836,51.916 149.932,44.293 154.716,51.979 	"/>
</g>
</svg>
