<svg xmlns="http://www.w3.org/2000/svg" width="18.865" height="18.865" viewBox="0 0 18.865 18.865"><defs><style>.a{fill:#c1272d;}.b{fill:#fff;}</style></defs><g transform="translate(-1073.567 -348.568)"><circle class="a" cx="9.432" cy="9.432" r="9.432" transform="translate(1073.568 348.568)"/><path class="b" d="M3.335-12.385v4.177a11.035,11.035,0,0,1-.08,1.333q-.08.661-.212,1.347H1.509Q1.378-6.214,1.3-6.875a11.035,11.035,0,0,1-.08-1.333v-4.177ZM.969-2.891a1.212,1.212,0,0,1,.1-.489,1.237,1.237,0,0,1,.27-.394,1.289,1.289,0,0,1,.405-.267,1.3,1.3,0,0,1,.511-.1,1.283,1.283,0,0,1,.5.1,1.335,1.335,0,0,1,.409.267,1.209,1.209,0,0,1,.274.394,1.212,1.212,0,0,1,.1.489,1.238,1.238,0,0,1-.1.493,1.2,1.2,0,0,1-.274.4,1.282,1.282,0,0,1-.409.263,1.326,1.326,0,0,1-.5.095,1.346,1.346,0,0,1-.511-.095A1.239,1.239,0,0,1,1.338-2a1.226,1.226,0,0,1-.27-.4A1.238,1.238,0,0,1,.969-2.891Z" transform="translate(1081.083 364.917)"/></g></svg>