<?xml version="1.0" encoding="utf-8"?>
<!-- Generator: Adobe Illustrator 16.0.0, SVG Export Plug-In . SVG Version: 6.00 Build 0)  -->
<!DOCTYPE svg PUBLIC "-//W3C//DTD SVG 1.1//EN" "http://www.w3.org/Graphics/SVG/1.1/DTD/svg11.dtd">
<svg version="1.1" id="Layer_1" xmlns="http://www.w3.org/2000/svg" xmlns:xlink="http://www.w3.org/1999/xlink" x="0px" y="0px"
	 width="200px" height="80px" viewBox="0 0 200 80" enable-background="new 0 0 200 80" xml:space="preserve">
<g>
	<g id="XMLID_681_">
		<path id="XMLID_682_" fill="#FFFFFF" d="M138.62,36.277l-3.221-3.303l-6.063-0.077l0.053-4.194l-5.128-0.064l-0.24,19.117
			l5.128,0.064l0.124-9.793l4.194,0.054l-0.122,9.792l5.129,0.064L138.62,36.277z M122.344,32.812l-7.926-0.101l-3.305,3.222
			l-0.105,8.391l3.221,3.308l7.929,0.1l0.062-5.127l-6.062-0.077l0.061-4.664l6.06,0.076L122.344,32.812z M109.288,32.648
			l-4.196-0.055l0.053-4.195l-5.126-0.064l-0.201,15.85l3.222,3.307l6.062,0.076l0.065-5.127l-4.197-0.053l0.06-4.665l4.195,0.053
			L109.288,32.648z M98.15,28.311l-5.127-0.064l-0.029,2.33l5.128,0.064L98.15,28.311z M98.098,32.506l-5.126-0.064l-0.188,14.92
			l5.127,0.063L98.098,32.506z M91.105,32.418l-5.128-0.065l-0.124,9.793l-1.864-0.024l0.123-9.791l-5.128-0.064l-0.123,9.791
			l-1.866-0.023l0.124-9.792l-5.129-0.064l-0.188,14.921l15.852,0.198l3.304-3.223L91.105,32.418L91.105,32.418z M70.125,32.152
			L65.93,32.1l0.053-4.195l-5.129-0.064l-0.201,15.852l3.223,3.307l6.062,0.076l0.064-5.127l-4.196-0.053l0.059-4.664l4.196,0.053
			L70.125,32.152L70.125,32.152z M140.497,35.369l-0.177,13.988l-7.051,4.574l-4.664-0.059l0.028-2.332l-3.291,2.291l-4.194-0.053
			l0.029-2.333l-2.361,2.303l-7.46-0.093l-2.303-2.361l-0.494,2.324l-6.527-0.078l-2.641-2.369l-0.177,2.33l-7.398-0.092
			l-0.234-2.336l-2.029,2.307L78.252,53.24l-2.318-0.963l-0.012,0.934l-6.062-0.078l-6.942-4.283l-4.141-4.248l0.234-18.65
			l8.858,0.11l4.145,4.25l19.113,0.24l0.052-4.194l15.855,0.199l-0.053,4.195l4.195,0.053l-0.028,2.332l2.361-2.302l4.661,0.059
			l4.248-4.145l8.858,0.112l-0.053,4.195l5.13,0.064L140.497,35.369z"/>
	</g>
</g>
</svg>
