<?xml version="1.0" encoding="utf-8"?>
<!-- Generator: Adobe Illustrator 16.0.0, SVG Export Plug-In . SVG Version: 6.00 Build 0)  -->
<!DOCTYPE svg PUBLIC "-//W3C//DTD SVG 1.1//EN" "http://www.w3.org/Graphics/SVG/1.1/DTD/svg11.dtd">
<svg version="1.1" id="Layer_1" xmlns="http://www.w3.org/2000/svg" xmlns:xlink="http://www.w3.org/1999/xlink" x="0px" y="0px"
	 width="200px" height="80px" viewBox="0 0 200 80" enable-background="new 0 0 200 80" xml:space="preserve">
<g>
	<g>
		<path fill-rule="evenodd" clip-rule="evenodd" fill="#FFFFFF" d="M111.023,50.596h2.967V34.102h-2.967v12.571
			c-2.135,2.488-2.673,0.629-2.673-0.305V34.102h-2.966v12.852c0,2.1,0.523,3.437,1.857,3.648c0.889,0.142,2.172,0,3.781-1.966
			V50.596L111.023,50.596z M87.043,50.596h3.346v-8.852l3.978-13.191h-3.345l-2.309,8.289l-2.309-8.289h-3.346l3.984,13.211V50.596
			L87.043,50.596z M98.668,33.916L98.668,33.916c2.441,0,4.438,1.998,4.438,4.439c0,2.843,0,5.23,0,7.801
			c0,2.442-1.997,4.439-4.438,4.439l0,0c-2.441,0-4.438-1.997-4.438-4.439v-7.801C94.229,35.914,96.227,33.916,98.668,33.916
			L98.668,33.916z M97.25,46.557c0,0.78,0.639,1.419,1.418,1.419l0,0c0.779,0,1.418-0.639,1.418-1.419c0-2.849,0-5.688,0-8.573
			c0-0.78-0.639-1.418-1.418-1.418l0,0c-0.779,0-1.418,0.638-1.418,1.418C97.25,40.959,97.25,43.462,97.25,46.557z"/>
		<g>
			<path fill-rule="evenodd" clip-rule="evenodd" fill="#FFFFFF" d="M136.604,50.596h2.967v-1.754
				c0.563,0.696,1.492,1.96,3.282,1.754c2.996-0.347,2.449-4.317,2.449-4.317s0-5.67,0-8.458s-0.984-3.904-2.729-3.904
				c-1.424,0-2.616,1.258-3.003,1.718v-7.081h-2.967V50.596L136.604,50.596z M139.571,47.185v-9.839
				c0.377-0.44,0.884-0.82,1.493-0.78c1.395,0.093,1.254,1.858,1.254,1.858s-0.022,6.53-0.022,7.785
				c0,1.254-0.487,1.695-1.302,1.719C140.301,47.947,139.725,47.358,139.571,47.185z"/>
			<path fill-rule="evenodd" clip-rule="evenodd" fill="#FFFFFF" d="M130.994,50.596h2.967V34.102h-2.967v12.571
				c-2.135,2.488-2.672,0.629-2.672-0.305V34.102h-2.967v12.852c0,2.1,0.523,3.437,1.858,3.648c0.888,0.142,2.173,0,3.78-1.966
				V50.596z"/>
			<polygon fill-rule="evenodd" clip-rule="evenodd" fill="#FFFFFF" points="118.082,50.596 121.428,50.596 121.428,31.699 
				124.932,31.699 124.932,28.553 114.576,28.553 114.576,31.699 118.082,31.699 			"/>
			<path fill-rule="evenodd" clip-rule="evenodd" fill="#FFFFFF" d="M152.125,33.916L152.125,33.916
				c2.441,0,4.438,1.998,4.438,4.439v4.46h-5.854v3.741c0,0.78,0.638,1.419,1.417,1.419l0,0c0.779,0,1.418-0.639,1.418-1.419v-1.836
				h3.02v1.436c0,2.442-1.996,4.439-4.438,4.439l0,0c-2.441,0-4.438-1.997-4.438-4.439v-7.801
				C147.688,35.914,149.684,33.916,152.125,33.916L152.125,33.916z M153.543,40.308v-2.324c0-0.78-0.639-1.418-1.418-1.418l0,0
				c-0.779,0-1.417,0.638-1.417,1.418v2.324H153.543z"/>
		</g>
	</g>
	<g>
		<path fill="#FFFFFF" d="M77.848,27.939c-0.675-0.611-1.316-0.995-3.878-1.232c-3.206-0.298-7.55-0.34-10.831-0.345
			c-1.355-0.003-2.711-0.003-4.064,0c-3.283,0.005-7.625,0.047-10.831,0.345c-2.562,0.237-3.203,0.621-3.878,1.232
			c-1.776,1.611-2.148,6.019-2.197,10.354c-0.008,0.81-0.008,1.618,0.002,2.428c0.053,4.3,0.434,8.647,2.195,10.244
			c0.675,0.612,1.316,0.995,3.878,1.232c3.206,0.299,7.548,0.34,10.831,0.346c1.354,0.002,2.709,0.002,4.064,0
			c3.281-0.006,7.625-0.047,10.831-0.346c2.562-0.237,3.203-0.62,3.878-1.232c1.746-1.584,2.135-5.87,2.193-10.134
			c0.012-0.919,0.012-1.84,0-2.759C79.982,33.81,79.594,29.523,77.848,27.939z M57,45.245V34.007l9.56,5.445L57,45.245z"/>
	</g>
</g>
</svg>
