<svg xmlns="http://www.w3.org/2000/svg" xmlns:xlink="http://www.w3.org/1999/xlink" width="251" height="312.21" viewBox="0 0 251 312.21"><defs><style>.a{fill:rgba(255,255,255,0.14);}.b,.h,.i,.j,.m{stroke:rgba(0,0,0,0);}.b,.c,.e,.h,.l,.m,.p,.q,.s,.t{fill-rule:evenodd;}.b{opacity:0.144;fill:url(#a);}.c{fill:url(#b);}.d,.j{fill:#fff;}.e{fill:url(#c);}.f{fill:url(#f);}.g{fill:#edfdff;}.h{fill:url(#g);}.i{fill:url(#j);}.k{fill:url(#k);}.l{fill:url(#m);}.m{fill:rgba(0,0,0,0.08);}.n{fill:url(#n);}.o{fill:url(#o);}.p{fill:url(#p);}.q{fill:url(#r);}.r{fill:url(#s);}.s{opacity:0.119;}.t{fill:url(#u);}.u{filter:url(#d);}</style><radialGradient id="a" cx="0.5" cy="0.5" r="0.5" gradientUnits="objectBoundingBox"><stop offset="0" stop-color="#fff"/><stop offset="1" stop-color="#fff" stop-opacity="0"/></radialGradient><linearGradient id="b" x1="-0.336" y1="1.06" x2="0.938" y2="0.272" gradientUnits="objectBoundingBox"><stop offset="0" stop-color="#0052bb"/><stop offset="0.251" stop-color="#0052bb"/><stop offset="0.379" stop-color="#195cd6"/><stop offset="0.55" stop-color="#3f6cff"/><stop offset="0.634" stop-color="#477dff"/><stop offset="0.8" stop-color="#5babff"/><stop offset="0.907" stop-color="#6acbff"/><stop offset="1" stop-color="#6acbff"/></linearGradient><linearGradient id="c" x1="0.214" y1="0.942" x2="0.936" y2="0.363" gradientUnits="objectBoundingBox"><stop offset="0" stop-color="#010d13"/><stop offset="0.1" stop-color="#021018"/><stop offset="0.2" stop-color="#03131d"/><stop offset="0.3" stop-color="#041722"/><stop offset="0.4" stop-color="#051a27"/><stop offset="0.5" stop-color="#061e2c"/><stop offset="0.6" stop-color="#072130"/><stop offset="0.7" stop-color="#082435"/><stop offset="0.8" stop-color="#09283a"/><stop offset="0.9" stop-color="#0a2b3f"/><stop offset="1" stop-color="#0a2e44"/></linearGradient><filter id="d" x="7.954" y="63.045" width="202.638" height="140.274" filterUnits="userSpaceOnUse"><feOffset dy="11" input="SourceAlpha"/><feGaussianBlur stdDeviation="13" result="e"/><feFlood flood-opacity="0.071"/><feComposite operator="in" in2="e"/><feComposite in="SourceGraphic"/></filter><radialGradient id="f" cx="0.5" cy="0.5" r="0.5" gradientUnits="objectBoundingBox"><stop offset="0" stop-color="#008fff"/><stop offset="1" stop-color="#008fff" stop-opacity="0"/></radialGradient><linearGradient id="g" x1="0.032" y1="0.402" x2="1" y2="0.408" xlink:href="#c"/><linearGradient id="j" x1="0.267" y1="0.817" x2="1.012" y2="0" xlink:href="#b"/><linearGradient id="k" x1="-1.211" y1="-0.27" x2="0.938" y2="0.728" gradientUnits="objectBoundingBox"><stop offset="0" stop-color="#0052bb"/><stop offset="0.251" stop-color="#c1272d"/><stop offset="0.379" stop-color="#c1272d"/><stop offset="0.55" stop-color="#c1272d"/><stop offset="0.634" stop-color="#761e22"/><stop offset="0.8" stop-color="#8e090e"/><stop offset="0.907" stop-color="#9b0d12"/><stop offset="1" stop-color="#c1272d"/></linearGradient><linearGradient id="m" x1="-0.336" y1="1.06" x2="0.938" y2="0.272" xlink:href="#b"/><linearGradient id="n" x1="0.5" x2="0.5" y2="1" gradientUnits="objectBoundingBox"><stop offset="0" stop-color="#c1272d"/><stop offset="1" stop-color="#611417"/></linearGradient><linearGradient id="o" x1="0.683" y1="1.183" x2="3.552" y2="0.029" xlink:href="#n"/><linearGradient id="p" x1="-0.336" y1="1.06" x2="4.228" y2="-0.234" xlink:href="#k"/><linearGradient id="r" x1="-1.211" y1="1.27" x2="0.938" y2="0.272" xlink:href="#k"/><linearGradient id="s" x1="-1.211" y1="1.27" x2="0.938" y2="0.272" xlink:href="#k"/><linearGradient id="u" x1="0.297" y1="0.035" x2="1" y2="1" xlink:href="#b"/></defs><g transform="translate(-110.077 339.708) rotate(-8)"><ellipse class="a" cx="106.13" cy="106.13" rx="106.13" ry="106.13" transform="translate(168.182 -266.562) rotate(8)"/><path class="b" d="M250.709,0c-27.1,0-49.07-8.994-49.07-20.088s21.97-20.089,49.07-20.089,49.069,8.994,49.069,20.089S277.81,0,250.709,0Z"/><path class="c" d="M289.593-125.239H206.926A35.468,35.468,0,0,1,171.563-160.6v-18.371a63.1,63.1,0,0,1,62.919-62.918h27.555a63.1,63.1,0,0,1,62.919,62.918V-160.6A35.364,35.364,0,0,1,289.593-125.239ZM248.26-208.547c-7.875,0-15.452.212-22.705.59-18.984.987-34.471,14.133-36.83,31.232l-.051.368a12.105,12.105,0,0,0,7.016,12.406,14.8,14.8,0,0,0,6.544,1.512h92.051a14.8,14.8,0,0,0,6.544-1.512,12.106,12.106,0,0,0,7.016-12.407l-.051-.37c-2.367-17.163-17.968-30.257-37.025-31.24q-9.617-.5-19.957-.572C249.957-208.545,249.108-208.547,248.26-208.547Z"/><path class="d" d="M301.993-181.118c-.7.495-5.58-9.445-18.676-18.064-4.6-3.029-9.15-5.189-8.879-5.817s5.392.548,9.491,2.449C296.987-196.492,302.825-181.705,301.993-181.118Z"/><g transform="translate(-0.77 1.611)"><g class="u" transform="matrix(0.99, 0.14, -0.14, 0.99, 157.05, -322.69)"><path class="e" d="M294.285-162.439H202.234a14.8,14.8,0,0,1-6.544-1.512,12.105,12.105,0,0,1-7.016-12.406l.051-.368c2.359-17.1,17.846-30.245,36.83-31.232,7.253-.378,14.83-.59,22.705-.59.848,0,1.7,0,2.552.007q10.332.06,19.957.572c19.057.983,34.658,14.077,37.025,31.24l.051.37a12.106,12.106,0,0,1-7.016,12.407A14.8,14.8,0,0,1,294.285-162.439Z" transform="matrix(0.99, -0.14, 0.14, 0.99, -110.75, 340.42)"/></g><g transform="matrix(0.978, -0.208, 0.208, 0.978, 42.048, 42.667)"><ellipse class="f" cx="18" cy="13" rx="18" ry="13" transform="translate(206 -191.696)"/><path class="g" d="M236.457-183.565A12.459,12.459,0,0,1,224-171.106a12.46,12.46,0,0,1-12.459-12.459A64.933,64.933,0,0,0,224-182.16,64.916,64.916,0,0,0,236.457-183.565Z"/><path class="h" d="M234.218-181.3A10.385,10.385,0,0,1,224-173.1a10.551,10.551,0,0,1-10.3-8.58,39.054,39.054,0,0,0,10.3,1.852A37.41,37.41,0,0,0,234.218-181.3Z"/><path class="g" d="M229.514-186.871c0,1.813-6.565,1.813-6.565,0a3.283,3.283,0,0,1,3.283-3.282A3.282,3.282,0,0,1,229.514-186.871Z" transform="translate(-4.362 13.178)"/></g><g transform="translate(0.189 -82.636) rotate(19)"><ellipse class="f" cx="18" cy="12.5" rx="18" ry="12.5" transform="translate(206 -190.696)"/><path class="g" d="M236.457-183.565A12.459,12.459,0,0,1,224-171.106a12.46,12.46,0,0,1-12.459-12.459A64.933,64.933,0,0,0,224-182.16,64.916,64.916,0,0,0,236.457-183.565Z"/><path class="h" d="M234.218-181.3A10.385,10.385,0,0,1,224-173.1a10.551,10.551,0,0,1-10.3-8.58,39.054,39.054,0,0,0,10.3,1.852A37.41,37.41,0,0,0,234.218-181.3Z"/><path class="g" d="M229.514-186.871c0,1.813-6.565,1.813-6.565,0a3.283,3.283,0,0,1,3.283-3.282A3.282,3.282,0,0,1,229.514-186.871Z" transform="translate(0.105 12.672)"/></g></g><g transform="translate(515.275 -261.072) rotate(-172)"><path class="i" d="M-2577.4-5661.539a3.5,3.5,0,0,0,2.6,2.1,3.487,3.487,0,0,1-2.691-2.379,15.473,15.473,0,0,1-.493-2.2.766.766,0,0,1,.154-.586.765.765,0,0,1,.532-.292,17.245,17.245,0,0,0,14.811,5.455,19.452,19.452,0,0,0,14.2-8.254.751.751,0,0,1,.569.183.755.755,0,0,1,.26.54,15.688,15.688,0,0,1-.065,2.26,3.327,3.327,0,0,1-.171.766,3.362,3.362,0,0,0,.172-.765,15.357,15.357,0,0,1-13.806,13.7c-.5.048-1,.072-1.5.072A15.334,15.334,0,0,1-2577.4-5661.539Zm2.7,2.12h0Zm-.052-.009Zm24-2.176a3.65,3.65,0,0,0,2.3-1.121A3.659,3.659,0,0,1-2550.752-5661.6Z" transform="translate(2819.542 5508.719)"/><path class="j" d="M-2573.487-5653.692a38.417,38.417,0,0,0,12.149,1.223,32.989,32.989,0,0,0,11.123-3.469,15.306,15.306,0,0,1-11.123,6.5c-.5.047-1,.071-1.5.071A15.291,15.291,0,0,1-2573.487-5653.692Z" transform="translate(2819.542 5507.149)"/></g><g transform="translate(270.961 -269.016) rotate(-150)"><path class="k" d="M.206,0h0A11.958,11.958,0,0,0,0,2.222,11.888,11.888,0,0,0,7.253,13.163a11.913,11.913,0,0,0,9.244,0,11.851,11.851,0,0,0,3.134-1.949L18.2,10.386a10.278,10.278,0,0,1-2.3,1.35,10.343,10.343,0,0,1-8.039,0A10.263,10.263,0,0,1,4.573,9.523a10.294,10.294,0,0,1-3.024-7.3A10.536,10.536,0,0,1,1.641.828L.207,0Z" transform="matrix(0.966, 0.259, -0.259, 0.966, 11.991, 1.774)"/><path class="k" d="M.3,0h0A17.345,17.345,0,0,0,0,3.237,17.318,17.318,0,0,0,10.566,19.175a17.352,17.352,0,0,0,13.465,0,17.262,17.262,0,0,0,4.564-2.84L26.509,15.13A14.972,14.972,0,0,1,23.152,17.1a15.056,15.056,0,0,1-11.71,0,14.909,14.909,0,0,1-4.78-3.223A15,15,0,0,1,2.256,3.237a15.387,15.387,0,0,1,.134-2.03L.3,0Z" transform="matrix(0.966, 0.259, -0.259, 0.966, 5.315, 0)"/></g><path class="l" d="M303.238-103.345c0,.211,0,.413-.009.606a14.271,14.271,0,0,1-.744,4.033c-6.33,19.334-10.122,29.53-15.441,37.778-.919,1.424-1.883,2.793-2.921,4.134-1.359,1.791-2.847,3.536-4.5,5.336-3.674,4-9.231,5.805-11.022,6.429-6.549,2.316-12.335,1.893-16.184,1.93h-.671c-3.857-.037-9.635.386-16.184-1.93-1.791-.624-7.357-2.433-11.022-6.429-10.1-10.995-13.989-20.134-22.862-47.248a14.179,14.179,0,0,1-.735-3.785,14.7,14.7,0,0,1-.009-1.571,16.444,16.444,0,0,1,3.839-9.322,21.274,21.274,0,0,1,16.552-7.735l30.761-.129,30.2-.119a21.8,21.8,0,0,1,16.984,7.752,16.877,16.877,0,0,1,3.747,7.8c.064.386.12.78.156,1.166C303.21-104.218,303.238-103.787,303.238-103.345Z"/><g transform="translate(315.323 -117.228) rotate(132)"><g transform="translate(0 5.08)"><path class="m" d="M13.8,47.415c-.919,1.424-1.883,2.793-2.921,4.134-.331-.34-.625-.68-.89-.993-4.207-4.922-6.27-5.1-6.335-8.706C3.2,17.987,4.776,10.416,5.227,34.206c.064,3.6,4.3,8.184,8.5,13.117Z" transform="translate(0 0)"/></g></g><g transform="translate(-620.814 -663.842) rotate(8)"><path class="n" d="M125.5,251a126.438,126.438,0,0,1-25.294-2.55,124.807,124.807,0,0,1-44.876-18.884A125.868,125.868,0,0,1,9.862,174.35a124.931,124.931,0,0,1-7.313-23.558,126.768,126.768,0,0,1,0-50.585A124.818,124.818,0,0,1,21.434,55.331,125.863,125.863,0,0,1,76.65,9.862,124.9,124.9,0,0,1,100.208,2.55a126.723,126.723,0,0,1,50.586,0A124.818,124.818,0,0,1,195.67,21.433a125.86,125.86,0,0,1,45.468,55.215,124.824,124.824,0,0,1,7.313,23.558,126.72,126.72,0,0,1,0,50.585,124.826,124.826,0,0,1-18.883,44.876,125.861,125.861,0,0,1-55.216,45.47,124.847,124.847,0,0,1-23.558,7.313A126.419,126.419,0,0,1,125.5,251Zm0-231.632a106.927,106.927,0,0,0-21.39,2.156,105.532,105.532,0,0,0-37.949,15.97A106.434,106.434,0,0,0,27.711,84.189a105.588,105.588,0,0,0-6.184,19.921,107.164,107.164,0,0,0,0,42.778A105.547,105.547,0,0,0,37.5,184.838,106.452,106.452,0,0,0,84.19,223.289a105.589,105.589,0,0,0,19.922,6.185,107.183,107.183,0,0,0,42.777,0,105.555,105.555,0,0,0,37.949-15.97A106.41,106.41,0,0,0,223.29,166.81a105.482,105.482,0,0,0,6.185-19.921,107.164,107.164,0,0,0,0-42.778,105.6,105.6,0,0,0-15.969-37.949,106.455,106.455,0,0,0-46.694-38.452,105.615,105.615,0,0,0-19.922-6.184A106.914,106.914,0,0,0,125.5,19.368Z" transform="translate(817.238 264.238)"/><rect class="o" width="29.792" height="233.076" transform="translate(864.958 487.708) rotate(-135)"/></g><g transform="translate(0 0)"><g transform="translate(0.718 -4)"><path class="p" d="M245.811-248.627h4.9v-32.148h-4.9Z"/><path class="c" d="M226.826-237.213v-10.265a4.517,4.517,0,0,1,4.517-4.517h33.834a4.517,4.517,0,0,1,4.517,4.517V-237.3s-11.7-.575-22.416-.554S226.826-237.213,226.826-237.213Z"/><path class="q" d="M254.536-282.918a6.276,6.276,0,0,1-6.276,6.276,6.277,6.277,0,0,1-6.278-6.276,6.277,6.277,0,0,1,6.278-6.277A6.276,6.276,0,0,1,254.536-282.918Z"/><path class="d" d="M252.622-285.368a1.913,1.913,0,0,1-1.913,1.914,1.915,1.915,0,0,1-1.914-1.914,1.914,1.914,0,0,1,1.914-1.913A1.912,1.912,0,0,1,252.622-285.368Z"/><path class="d" d="M268.453-245.741c-.156.023-.256-.9-1.019-2.312a12.64,12.64,0,0,0-.766-1.225c-1.315-1.809-5.772-1.769-6.123-1.766-6.943.06-11.406-.38-11.405-.339s3.257-.031,5.642-.079c6.731-.137,10.742-.5,12.46,1.3a5.67,5.67,0,0,1,1.072,1.722A3.617,3.617,0,0,1,268.453-245.741Z"/></g><g transform="translate(-748.093 -103.281) rotate(-30)"><path class="r" d="M.207,14.1h0A11.958,11.958,0,0,1,0,11.875,11.87,11.87,0,0,1,19.63,2.883L18.2,3.71A10.322,10.322,0,0,0,1.549,11.875a10.536,10.536,0,0,0,.092,1.394L.208,14.1Z" transform="matrix(0.966, -0.259, 0.259, 0.966, 933.983, 327.654)"/><path class="r" d="M.3,20.534h0A17.294,17.294,0,0,1,28.6,4.2L26.509,5.4A15.038,15.038,0,0,0,2.256,17.3a15.387,15.387,0,0,0,.134,2.03L.3,20.534Z" transform="matrix(0.966, -0.259, 0.259, 0.966, 925.64, 323.209)"/></g><path class="s" d="M32.91,33.005C56.219,12.623,62.927,10.927,65.215,2.46c.263-.973,1.6-5.939-.65-10.09a10.788,10.788,0,0,0-7.06-5.154c-11.6-2.4-32.32,20.065-42.386,37.592-2.194,3.82-8.081,14.071-4.881,17.225,1.31,1.291,3.706.957,5.415.7C23.216,41.58,29.4,36.078,32.91,33.005Z" transform="translate(205.47 -66.764) rotate(-121)"/><path class="t" d="M32.91,33.005C56.219,12.623,62.927,10.927,65.215,2.46c.263-.973,1.6-5.939-.65-10.09a10.788,10.788,0,0,0-7.06-5.154c-11.6-2.4-32.32,20.065-42.386,37.592-2.194,3.82-8.081,14.071-4.881,17.225,1.31,1.291,3.706.957,5.415.7C23.216,41.58,29.4,36.078,32.91,33.005Z" transform="translate(210.127 -71.158) rotate(-121)"/><path class="t" d="M46.708,20.474C18.17,8.459,13.7,3.173,5.092,4.828,4.1,5.019-.95,5.99-3.692,9.836a10.788,10.788,0,0,0-1.537,8.6c2.93,11.483,32.2,20.253,52.368,21.618,4.4.3,16.189,1.094,17.622-3.164.586-1.744-.764-3.75-1.747-5.173C58.665,25.428,51.01,22.284,46.708,20.474Z" transform="matrix(-0.682, -0.731, 0.731, -0.682, 284.126, -83.799)"/></g></g></svg>