<svg xmlns="http://www.w3.org/2000/svg" xmlns:xlink="http://www.w3.org/1999/xlink" width="341.644" height="82.694" viewBox="0 0 341.644 82.694"><defs><style>.a{fill:url(#a);}.b{fill:url(#b);}.c{fill:url(#c);}.d{fill:url(#d);}.e{fill:url(#g);}.f{font-size:25px;font-family:Lato-Italic, Lato;font-style:italic;}.g{filter:url(#e);}</style><linearGradient id="a" x1="0.5" y1="0.992" x2="0.5" y2="0.066" gradientUnits="objectBoundingBox"><stop offset="0"/><stop offset="0.202" stop-color="#020202"/><stop offset="0.309" stop-color="#090a0a"/><stop offset="0.393" stop-color="#171717"/><stop offset="0.466" stop-color="#292a2a"/><stop offset="0.532" stop-color="#414243"/><stop offset="0.591" stop-color="#5f6061"/><stop offset="0.614" stop-color="#6d6e70"/><stop offset="1" stop-color="#fff"/></linearGradient><linearGradient id="b" x1="0.5" y1="-0.004" x2="0.5" y2="0.996" gradientUnits="objectBoundingBox"><stop offset="0"/><stop offset="0.461" stop-color="#6d6e70"/><stop offset="1" stop-color="#fff"/></linearGradient><linearGradient id="c" x1="0.794" y1="-0.706" x2="0.214" y2="1.676" gradientUnits="objectBoundingBox"><stop offset="0"/><stop offset="0.122" stop-color="#020202"/><stop offset="0.195" stop-color="#0a0a0a"/><stop offset="0.255" stop-color="#191919"/><stop offset="0.309" stop-color="#2d2d2d"/><stop offset="0.357" stop-color="#474747"/><stop offset="0.403" stop-color="#676768"/><stop offset="0.446" stop-color="#8d8e8e"/><stop offset="0.485" stop-color="#b8b9ba"/><stop offset="0.521" stop-color="#e6e7e8"/><stop offset="0.546" stop-color="#c6c7c8"/><stop offset="0.588" stop-color="#989999"/><stop offset="0.633" stop-color="#6f7070"/><stop offset="0.68" stop-color="#4d4d4d"/><stop offset="0.729" stop-color="#303131"/><stop offset="0.782" stop-color="#1b1b1b"/><stop offset="0.839" stop-color="#0b0b0b"/><stop offset="0.905" stop-color="#020202"/><stop offset="1"/></linearGradient><linearGradient id="d" x1="0.5" y1="0.998" x2="0.5" y2="0.01" gradientUnits="objectBoundingBox"><stop offset="0" stop-color="#00b0ff"/><stop offset="0.832" stop-color="#0066d8"/><stop offset="1" stop-color="#0057d1"/></linearGradient><filter id="e" x="0" y="2" width="341.644" height="80.694" filterUnits="userSpaceOnUse"><feOffset dy="3" input="SourceAlpha"/><feGaussianBlur stdDeviation="3" result="f"/><feFlood flood-opacity="0.161"/><feComposite operator="in" in2="f"/><feComposite in="SourceGraphic"/></filter><linearGradient id="g" x1="0.5" y1="-0.008" x2="0.5" y2="0.999" gradientUnits="objectBoundingBox"><stop offset="0" stop-color="#fff"/><stop offset="1" stop-color="#fff" stop-opacity="0"/></linearGradient></defs><g transform="translate(-2734.741 -611.497)"><rect class="a" width="337.644" height="80.694" rx="40.347" transform="translate(2736.741 611.497)"/><rect class="b" width="327.644" height="68.694" rx="34.347" transform="translate(2741.741 618.497)"/><rect class="c" width="327.644" height="68.694" rx="34.347" transform="translate(2741.741 617.497)"/><g class="g" transform="matrix(1, 0, 0, 1, 2734.74, 611.5)"><rect class="d" width="323.644" height="62.694" rx="31.347" transform="translate(9 8)"/></g><path class="e" d="M29,0H294.644a29,29,0,0,1,29,29V39.657a0,0,0,0,1,0,0H0a0,0,0,0,1,0,0V29A29,29,0,0,1,29,0Z" transform="translate(2743.741 620.497)"/><text class="f" transform="translate(2905.398 660.967)"><tspan x="-115.875" y="0">CHANGE PASSWORD</tspan></text></g></svg>