<svg xmlns="http://www.w3.org/2000/svg" width="13.376" height="18.444" viewBox="0 0 13.376 18.444"><defs><style>.a{fill:#505050;}</style></defs><g transform="translate(0 0)"><path d="M68.551,3.248h1.027a.447.447,0,0,0,.447-.447V.447A.447.447,0,0,0,69.578,0H57.1a.447.447,0,0,0-.447.447V2.8a.447.447,0,0,0,.447.447h1.027c.415,2.775,1.709,5.02,3.4,5.974-1.688.954-2.982,3.2-3.4,5.974H57.1a.447.447,0,0,0-.447.447V18a.447.447,0,0,0,.447.447H69.578A.447.447,0,0,0,70.025,18V15.643a.447.447,0,0,0-.447-.447H68.551c-.415-2.775-1.709-5.02-3.4-5.974C66.842,8.269,68.136,6.024,68.551,3.248Zm-4.428,7.617a21.29,21.29,0,0,1,2.464,3.574.447.447,0,0,1-.407.634H60.493a.447.447,0,0,1-.407-.634,21.287,21.287,0,0,1,2.464-3.574L62.6,10.8V8.072l-.06-.064c-.909-.975-1.605-1.753-2.069-2.312a9.731,9.731,0,0,1-1.059-2.446h7.9C66.338,5.3,66.335,5.537,66.2,5.7c-.464.56-1.158,1.336-2.065,2.308l-.06.064V10.8Z" transform="translate(-56.649)"/><path class="a" d="M59,3.039h8.234A5.134,5.134,0,0,1,63.2,5.44,5.593,5.593,0,0,1,59,3.039Z" transform="translate(-56.487 0.209)"/></g></svg>