<svg xmlns="http://www.w3.org/2000/svg" xmlns:xlink="http://www.w3.org/1999/xlink" width="224.638" height="124.289" viewBox="0 0 224.638 124.289"><defs><style>.a{fill:url(#a);}.b{fill:url(#d);}.c{fill:url(#e);}.d{fill:url(#f);}.e{fill:url(#g);}.f{fill:url(#h);}.g{fill:url(#i);}.h{fill:url(#j);}.i{fill:#fff;font-size:17px;font-family:Lato-Italic, Lato;font-style:italic;}.j{filter:url(#b);}</style><linearGradient id="a" y1="0.5" x2="1" y2="0.5" gradientUnits="objectBoundingBox"><stop offset="0"/><stop offset="1" stop-color="#58595b"/></linearGradient><filter id="b" x="0" y="0" width="224.638" height="124.289" filterUnits="userSpaceOnUse"><feOffset dy="3" input="SourceAlpha"/><feGaussianBlur stdDeviation="10" result="c"/><feFlood/><feComposite operator="in" in2="c"/><feComposite in="SourceGraphic"/></filter><linearGradient id="d" y1="0.5" x2="1" y2="0.5" gradientUnits="objectBoundingBox"><stop offset="0" stop-color="#6d6e70"/><stop offset="1" stop-color="#bbbdbf"/></linearGradient><linearGradient id="e" x1="0.5" y1="0.992" x2="0.5" y2="0.066" gradientUnits="objectBoundingBox"><stop offset="0"/><stop offset="0.202" stop-color="#020202"/><stop offset="0.309" stop-color="#090a0a"/><stop offset="0.393" stop-color="#171717"/><stop offset="0.466" stop-color="#292a2a"/><stop offset="0.532" stop-color="#414243"/><stop offset="0.591" stop-color="#5f6061"/><stop offset="0.614" stop-color="#6d6e70"/><stop offset="1" stop-color="#fff"/></linearGradient><radialGradient id="f" cx="-35573.619" cy="-22549.497" r="531.078" gradientTransform="translate(-30783.594 -19255.323) scale(0.172 0.181)" gradientUnits="userSpaceOnUse"><stop offset="0.145" stop-color="#fff"/><stop offset="0.57" stop-color="#d4d4d4"/><stop offset="1" stop-color="#f3f3f3"/></radialGradient><linearGradient id="g" x1="0.5" y1="-0.004" x2="0.5" y2="0.996" gradientUnits="objectBoundingBox"><stop offset="0"/><stop offset="0.461" stop-color="#6d6e70"/><stop offset="1" stop-color="#fff"/></linearGradient><linearGradient id="h" x1="0.794" y1="-0.706" x2="0.214" y2="1.676" gradientUnits="objectBoundingBox"><stop offset="0"/><stop offset="0.122" stop-color="#020202"/><stop offset="0.195" stop-color="#0a0a0a"/><stop offset="0.255" stop-color="#191919"/><stop offset="0.309" stop-color="#2d2d2d"/><stop offset="0.357" stop-color="#474747"/><stop offset="0.403" stop-color="#676768"/><stop offset="0.446" stop-color="#8d8e8e"/><stop offset="0.485" stop-color="#b8b9ba"/><stop offset="0.521" stop-color="#e6e7e8"/><stop offset="0.546" stop-color="#c6c7c8"/><stop offset="0.588" stop-color="#989999"/><stop offset="0.633" stop-color="#6f7070"/><stop offset="0.68" stop-color="#4d4d4d"/><stop offset="0.729" stop-color="#303131"/><stop offset="0.782" stop-color="#1b1b1b"/><stop offset="0.839" stop-color="#0b0b0b"/><stop offset="0.905" stop-color="#020202"/><stop offset="1"/></linearGradient><linearGradient id="i" x1="0.5" y1="0.998" x2="0.5" y2="0.01" gradientUnits="objectBoundingBox"><stop offset="0" stop-color="#009b00"/><stop offset="0.218" stop-color="#00ab00"/><stop offset="0.644" stop-color="#00d600"/><stop offset="1" stop-color="lime"/></linearGradient><linearGradient id="j" x1="0.5" y1="-0.008" x2="0.5" y2="0.999" gradientUnits="objectBoundingBox"><stop offset="0" stop-color="#fff"/><stop offset="1" stop-color="#fff" stop-opacity="0"/></linearGradient></defs><g transform="translate(30 27)"><g class="j" transform="matrix(1, 0, 0, 1, -30, -27)"><path class="a" d="M12.679,0h139.28a12.679,12.679,0,0,1,12.679,12.679V51.61a12.679,12.679,0,0,1-12.679,12.679H12.678A12.678,12.678,0,0,1,0,51.611V12.679A12.679,12.679,0,0,1,12.679,0Z" transform="translate(30 27)"/></g><path class="b" d="M12.38,0H151.126A12.377,12.377,0,0,1,163.5,12.377v38.4a12.378,12.378,0,0,1-12.378,12.378H12.377A12.377,12.377,0,0,1,0,50.779V12.38A12.38,12.38,0,0,1,12.38,0Z" transform="translate(0.567 0.567)"/><path class="c" d="M1831.13,1004.673c0,7.783-4.191,14.09-9.36,14.09H1677.29c-5.166,0-9.356-6.308-9.356-14.09V970.6c0-7.781,4.19-14.091,9.356-14.091h144.48c5.169,0,9.36,6.31,9.36,14.091Z" transform="translate(-1667.35 -955.946)"/><g transform="translate(0.584 0.567)"><path class="d" d="M1831.16,983.209l-.061-16.718a10.148,10.148,0,0,0-9.851-9.977H1677.155c-5.091,0-9.221,4.469-9.221,9.977v15.7C1677.742,985.139,1819.237,985.37,1831.16,983.209Z" transform="translate(-1667.934 -956.513)"/></g><path class="e" d="M1829.648,1005.7c0,6.738-3.773,12.2-8.431,12.2H1679.426c-4.662,0-8.439-5.463-8.439-12.2V971.8c0-6.737,3.777-12.205,8.439-12.205h141.792c4.658,0,8.431,5.469,8.431,12.205Z" transform="translate(-1668.001 -956.603)"/><path class="f" d="M10.764,0H146.678a10.765,10.765,0,0,1,10.765,10.765v35.56a10.768,10.768,0,0,1-10.768,10.768H10.765A10.765,10.765,0,0,1,0,46.328V10.764A10.764,10.764,0,0,1,10.764,0Z" transform="translate(3.597 3.598)"/><path class="g" d="M1820.818,961.176H1680.494c-4.375,0-7.92,5.23-7.92,11.682v32.453c0,6.455,3.546,11.682,7.92,11.682h140.323c4.378,0,7.924-5.227,7.924-11.682V972.859C1828.742,966.406,1825.2,961.176,1820.818,961.176Z" transform="translate(-1667.821 -957.083)"/><path class="h" d="M10.038,0H144.674a10.04,10.04,0,0,1,10.04,10.04v.993a10.04,10.04,0,0,1-10.04,10.04H10.04A10.04,10.04,0,0,1,0,11.033v-.995A10.038,10.038,0,0,1,10.038,0Z" transform="translate(4.962 4.965)"/><text class="i" transform="translate(74.543 37.614)"><tspan x="-45.271" y="0">VIEW MORE</tspan></text></g></svg>