<svg xmlns="http://www.w3.org/2000/svg" xmlns:xlink="http://www.w3.org/1999/xlink" width="240.701" height="85.063" viewBox="0 0 240.701 85.063"><defs><style>.a{fill:url(#a);}.b{fill:url(#b);}.c{fill:url(#c);}.d{fill:url(#d);}.e{fill:url(#g);}.f{font-size:28px;font-family:Lato-MediumItalic, Lato;font-weight:500;font-style:italic;}.g{filter:url(#e);}</style><linearGradient id="a" x1="0.5" y1="0.992" x2="0.5" y2="0.066" gradientUnits="objectBoundingBox"><stop offset="0"/><stop offset="0.202" stop-color="#020202"/><stop offset="0.309" stop-color="#090a0a"/><stop offset="0.393" stop-color="#171717"/><stop offset="0.466" stop-color="#292a2a"/><stop offset="0.532" stop-color="#414243"/><stop offset="0.591" stop-color="#5f6061"/><stop offset="0.614" stop-color="#6d6e70"/><stop offset="1" stop-color="#fff"/></linearGradient><linearGradient id="b" x1="0.5" y1="-0.004" x2="0.5" y2="0.996" gradientUnits="objectBoundingBox"><stop offset="0"/><stop offset="0.461" stop-color="#6d6e70"/><stop offset="1" stop-color="#fff"/></linearGradient><linearGradient id="c" x1="0.794" y1="-0.706" x2="0.214" y2="1.676" gradientUnits="objectBoundingBox"><stop offset="0"/><stop offset="0.122" stop-color="#020202"/><stop offset="0.195" stop-color="#0a0a0a"/><stop offset="0.255" stop-color="#191919"/><stop offset="0.309" stop-color="#2d2d2d"/><stop offset="0.357" stop-color="#474747"/><stop offset="0.403" stop-color="#676768"/><stop offset="0.446" stop-color="#8d8e8e"/><stop offset="0.485" stop-color="#b8b9ba"/><stop offset="0.521" stop-color="#e6e7e8"/><stop offset="0.546" stop-color="#c6c7c8"/><stop offset="0.588" stop-color="#989999"/><stop offset="0.633" stop-color="#6f7070"/><stop offset="0.68" stop-color="#4d4d4d"/><stop offset="0.729" stop-color="#303131"/><stop offset="0.782" stop-color="#1b1b1b"/><stop offset="0.839" stop-color="#0b0b0b"/><stop offset="0.905" stop-color="#020202"/><stop offset="1"/></linearGradient><linearGradient id="d" x1="0.5" y1="0.998" x2="0.5" y2="0.01" gradientUnits="objectBoundingBox"><stop offset="0" stop-color="#00b0ff"/><stop offset="0.832" stop-color="#0066d8"/><stop offset="1" stop-color="#0057d1"/></linearGradient><filter id="e" x="0" y="2.268" width="240.701" height="82.795" filterUnits="userSpaceOnUse"><feOffset dy="3" input="SourceAlpha"/><feGaussianBlur stdDeviation="3" result="f"/><feFlood flood-opacity="0.161"/><feComposite operator="in" in2="f"/><feComposite in="SourceGraphic"/></filter><linearGradient id="g" x1="0.5" y1="-0.008" x2="0.5" y2="0.999" gradientUnits="objectBoundingBox"><stop offset="0" stop-color="#fff"/><stop offset="1" stop-color="#fff" stop-opacity="0"/></linearGradient></defs><g transform="translate(1.765 0)"><rect class="a" width="237.17" height="83.398" rx="41.699" transform="translate(0 0)"/><rect class="b" width="226.835" height="70.996" rx="35.498" transform="translate(5.167 7.234)"/><rect class="c" width="226.835" height="70.996" rx="35.498" transform="translate(5.167 6.201)"/><g class="g" transform="matrix(1, 0, 0, 1, -1.77, 0)"><rect class="d" width="222.701" height="64.795" rx="32.398" transform="translate(9 8.27)"/></g><path class="e" d="M26,0H196.374a27,27,0,0,1,27,27V40.986a0,0,0,0,1,0,0H0a0,0,0,0,1,0,0V26A26,26,0,0,1,26,0Z" transform="translate(6.898 9.302)"/><text class="f" transform="translate(118.389 47.886)"><tspan x="-68.843" y="0">CONTINUE</tspan></text></g></svg>