<svg xmlns="http://www.w3.org/2000/svg" xmlns:xlink="http://www.w3.org/1999/xlink" viewBox="0 0 1009.63 1031"><defs><style>.cls-1{mask:url(#mask);}.cls-2,.cls-4{mix-blend-mode:multiply;}.cls-2{fill:url(#radial-gradient);}.cls-3{mask:url(#mask-2);}.cls-4{fill:url(#radial-gradient-2);}.cls-5{isolation:isolate;}.cls-6{opacity:0.25;mix-blend-mode:screen;}.cls-7{fill:url(#radial-gradient-3);}.cls-8{fill:url(#linear-gradient);}.cls-9{mask:url(#mask-3);}.cls-10{fill:url(#radial-gradient-4);}.cls-11{mask:url(#mask-4);}.cls-12{fill:url(#radial-gradient-5);}.cls-13{filter:url(#luminosity-noclip-2);}.cls-14{filter:url(#luminosity-noclip);}</style><filter id="luminosity-noclip" x="726.98" y="-8715" width="247.67" height="32766" filterUnits="userSpaceOnUse" color-interpolation-filters="sRGB"><feFlood flood-color="#fff" result="bg"/><feBlend in="SourceGraphic" in2="bg"/></filter><mask id="mask" x="726.98" y="-8715" width="247.67" height="32766" maskUnits="userSpaceOnUse"><g class="cls-14"/></mask><radialGradient id="radial-gradient" cx="835.83" cy="2510.49" r="129.26" gradientTransform="matrix(1.08, -1.02, 0.22, 0.23, -605.78, 1154.15)" gradientUnits="userSpaceOnUse"><stop offset="0" stop-color="#fff"/><stop offset="0.08" stop-color="#cdcdcd"/><stop offset="0.17" stop-color="#9d9d9d"/><stop offset="0.26" stop-color="#737373"/><stop offset="0.36" stop-color="#4f4f4f"/><stop offset="0.46" stop-color="#323232"/><stop offset="0.57" stop-color="#1c1c1c"/><stop offset="0.69" stop-color="#0c0c0c"/><stop offset="0.82" stop-color="#030303"/><stop offset="1"/></radialGradient><filter id="luminosity-noclip-2" x="41.7" y="-8715" width="236.92" height="32766" filterUnits="userSpaceOnUse" color-interpolation-filters="sRGB"><feFlood flood-color="#fff" result="bg"/><feBlend in="SourceGraphic" in2="bg"/></filter><mask id="mask-2" x="41.7" y="-8715" width="236.92" height="32766" maskUnits="userSpaceOnUse"><g class="cls-13"/></mask><radialGradient id="radial-gradient-2" cx="871.37" cy="-638.8" r="129.26" gradientTransform="matrix(1.01, -1.09, 0.24, 0.22, -568.16, 1231.67)" xlink:href="#radial-gradient"/><radialGradient id="radial-gradient-3" cx="504.82" cy="515.5" r="510.19" gradientUnits="userSpaceOnUse"><stop offset="0.87"/><stop offset="0.89" stop-color="#040404"/><stop offset="0.91" stop-color="#0e0e0e"/><stop offset="0.92" stop-color="#212121"/><stop offset="0.94" stop-color="#3a3a3a"/><stop offset="0.95" stop-color="#5b5b5b"/><stop offset="0.97" stop-color="#848484"/><stop offset="0.98" stop-color="#b4b4b4"/><stop offset="1" stop-color="#eaeaea"/><stop offset="1" stop-color="#fff"/></radialGradient><linearGradient id="linear-gradient" x1="106.94" y1="311.84" x2="901.81" y2="721.57" gradientUnits="userSpaceOnUse"><stop offset="0" stop-color="#94ceff"/><stop offset="1" stop-color="#00a1ff"/></linearGradient><mask id="mask-3" x="726.98" y="765.43" width="247.67" height="239.17" maskUnits="userSpaceOnUse"><g class="cls-1"><path class="cls-2" d="M764.94,1004.59c31.42-18,72.39-49.39,113.86-88.79,42.45-40.33,76.52-80.56,95.85-111.3l-37.12-39.07c-31.68,17.72-73.6,49.72-116,90-41.47,39.41-75,78.72-94.5,109.18Z"/></g></mask><radialGradient id="radial-gradient-4" cx="835.83" cy="2510.49" r="129.26" gradientTransform="matrix(1.08, -1.02, 0.22, 0.23, -605.78, 1154.15)" gradientUnits="userSpaceOnUse"><stop offset="0" stop-color="#fff"/><stop offset="0.08" stop-color="#d7ebff" stop-opacity="0.8"/><stop offset="0.17" stop-color="#b1d8ff" stop-opacity="0.62"/><stop offset="0.26" stop-color="#8fc7ff" stop-opacity="0.45"/><stop offset="0.36" stop-color="#73b9ff" stop-opacity="0.31"/><stop offset="0.46" stop-color="#5badff" stop-opacity="0.2"/><stop offset="0.57" stop-color="#49a4ff" stop-opacity="0.11"/><stop offset="0.68" stop-color="#3d9eff" stop-opacity="0.05"/><stop offset="0.82" stop-color="#359aff" stop-opacity="0.01"/><stop offset="1" stop-color="#39f" stop-opacity="0"/></radialGradient><mask id="mask-4" x="41.7" y="17.39" width="236.92" height="249.74" maskUnits="userSpaceOnUse"><g class="cls-3"><path class="cls-4" d="M82.14,267.13c30.21-19.95,69.08-53.93,108-95.91,39.78-43,71.2-85.3,88.53-117.21L239.07,17.39c-30.49,19.73-70.26,54.33-110,97.3-38.87,42-69.76,83.34-87.33,115Z"/></g></mask><radialGradient id="radial-gradient-5" cx="871.37" cy="-638.8" r="129.26" gradientTransform="matrix(1.01, -1.09, 0.24, 0.22, -568.16, 1231.67)" xlink:href="#radial-gradient-4"/></defs><title>dashboard__avatar-frameAsset 1</title><g class="cls-5"><g id="Layer_2" data-name="Layer 2"><g id="Layer_1-2" data-name="Layer 1"><g class="cls-6"><path class="cls-7" d="M504.81,0C226,0,0,230.78,0,515.49S226,1031,504.81,1031s504.82-230.81,504.82-515.51S783.62,0,504.81,0Zm-.31,939C277.79,939,94,751.18,94,519.5S277.79,100,504.5,100,915,287.82,915,519.5,731.21,939,504.5,939Z"/></g><path class="cls-8" d="M504.38,99.11c225.08,0,408.19,187.33,408.19,417.6s-183.11,417.6-408.19,417.6S96.18,747,96.18,516.71,279.3,99.11,504.38,99.11m0-37C258.9,62.11,59.18,266,59.18,516.71s199.72,454.6,445.2,454.6,445.19-203.94,445.19-454.6S749.86,62.11,504.38,62.11Z"/><g class="cls-9"><path class="cls-10" d="M764.94,1004.59c31.42-18,72.39-49.39,113.86-88.79,42.45-40.33,76.52-80.56,95.85-111.3l-37.12-39.07c-31.68,17.72-73.6,49.72-116,90-41.47,39.41-75,78.72-94.5,109.18Z"/></g><g class="cls-11"><path class="cls-12" d="M82.14,267.13c30.21-19.95,69.08-53.93,108-95.91,39.78-43,71.2-85.3,88.53-117.21L239.07,17.39c-30.49,19.73-70.26,54.33-110,97.3-38.87,42-69.76,83.34-87.33,115Z"/></g></g></g></g></svg>