<svg xmlns="http://www.w3.org/2000/svg" xmlns:xlink="http://www.w3.org/1999/xlink" width="154.916" height="57.262" viewBox="0 0 154.916 57.262"><defs><style>.a{opacity:0.5;}.b{fill:url(#a);}.c{fill:url(#b);}.d{fill:url(#c);}.e{fill:#05012f;}.f{opacity:0.796;fill:url(#f);}.g{fill:#fff;font-size:16px;font-family:Lato-MediumItalic, Lato;font-weight:500;font-style:italic;}.h{filter:url(#d);}</style><linearGradient id="a" x1="0.5" y1="0.992" x2="0.5" y2="0.066" gradientUnits="objectBoundingBox"><stop offset="0"/><stop offset="0.202" stop-color="#020202"/><stop offset="0.309" stop-color="#090a0a"/><stop offset="0.393" stop-color="#171717"/><stop offset="0.466" stop-color="#292a2a"/><stop offset="0.532" stop-color="#414243"/><stop offset="0.591" stop-color="#5f6061"/><stop offset="0.614" stop-color="#6d6e70"/><stop offset="1" stop-color="#fff"/></linearGradient><linearGradient id="b" x1="0.5" y1="-0.004" x2="0.5" y2="0.996" gradientUnits="objectBoundingBox"><stop offset="0"/><stop offset="0.461" stop-color="#6d6e70"/><stop offset="1" stop-color="#fff"/></linearGradient><linearGradient id="c" x1="0.794" y1="-0.706" x2="0.214" y2="1.676" gradientUnits="objectBoundingBox"><stop offset="0"/><stop offset="0.122" stop-color="#020202"/><stop offset="0.195" stop-color="#0a0a0a"/><stop offset="0.255" stop-color="#191919"/><stop offset="0.309" stop-color="#2d2d2d"/><stop offset="0.357" stop-color="#474747"/><stop offset="0.403" stop-color="#676768"/><stop offset="0.446" stop-color="#8d8e8e"/><stop offset="0.485" stop-color="#b8b9ba"/><stop offset="0.521" stop-color="#e6e7e8"/><stop offset="0.546" stop-color="#c6c7c8"/><stop offset="0.588" stop-color="#989999"/><stop offset="0.633" stop-color="#6f7070"/><stop offset="0.68" stop-color="#4d4d4d"/><stop offset="0.729" stop-color="#303131"/><stop offset="0.782" stop-color="#1b1b1b"/><stop offset="0.839" stop-color="#0b0b0b"/><stop offset="0.905" stop-color="#020202"/><stop offset="1"/></linearGradient><filter id="d" x="0" y="0" width="154.916" height="57.262" filterUnits="userSpaceOnUse"><feOffset dy="3" input="SourceAlpha"/><feGaussianBlur stdDeviation="3" result="e"/><feFlood flood-opacity="0.161"/><feComposite operator="in" in2="e"/><feComposite in="SourceGraphic"/></filter><linearGradient id="f" x1="0.5" y1="-0.008" x2="0.5" y2="0.999" gradientUnits="objectBoundingBox"><stop offset="0" stop-color="#fff"/><stop offset="1" stop-color="#fff" stop-opacity="0"/></linearGradient></defs><g transform="translate(5.001 1.058)"><g class="a" transform="translate(0 0)"><rect class="b" width="145.684" height="50.534" rx="25.267"/><rect class="c" width="139.421" height="43.019" rx="21.51" transform="translate(3.131 4.384)"/><rect class="d" width="139.421" height="43.019" rx="21.51" transform="translate(3.131 3.757)"/><g class="h" transform="matrix(1, 0, 0, 1, -5, -1.06)"><rect class="e" width="136.916" height="39.262" rx="19.631" transform="translate(9 6)"/></g><path class="f" d="M24.835,0H114.4a22.924,22.924,0,0,1,22.924,22.924v1.91a0,0,0,0,1,0,0H0a0,0,0,0,1,0,0v0A24.835,24.835,0,0,1,24.835,0Z" transform="translate(4.18 5.636)"/></g><text class="g" transform="translate(72.999 30.941)"><tspan x="-47.704" y="0">DISCONNECT</tspan></text></g></svg>