<svg xmlns="http://www.w3.org/2000/svg" width="33.811" height="62.537" viewBox="0 0 33.811 62.537"><defs><style>.a{fill:#fff;}</style></defs><g transform="translate(-607.999 -641.111)"><path class="a" d="M54.615.013,46.5,0c-9.111,0-15,6.041-15,15.391v7.1H23.352a1.275,1.275,0,0,0-1.275,1.276V34.044a1.275,1.275,0,0,0,1.275,1.275h8.154V61.262a1.275,1.275,0,0,0,1.275,1.275H43.42A1.275,1.275,0,0,0,44.7,61.262V35.319h9.534A1.275,1.275,0,0,0,55.5,34.044l0-10.281a1.276,1.276,0,0,0-1.276-1.276H44.7V16.471c0-2.891.689-4.359,4.455-4.359l5.463,0a1.275,1.275,0,0,0,1.275-1.275V1.288A1.276,1.276,0,0,0,54.615.013Z" transform="translate(585.922 641.111)"/></g></svg>