<svg xmlns="http://www.w3.org/2000/svg" xmlns:xlink="http://www.w3.org/1999/xlink" width="149.958" height="152.852" viewBox="0 0 149.958 152.852"><defs><style>.a{opacity:0.25;fill:url(#a);}.b{opacity:0.56;fill:url(#b);}.c{fill:#3fa9f5;}.d{fill:url(#c);}.e{fill:url(#d);}.f,.r{fill:#003;}.g{fill:url(#e);}.h{fill:url(#f);}.i{fill:url(#g);}.j{fill:url(#h);}.k{fill:url(#j);}.l{fill:url(#k);}.m{fill:url(#l);}.n{fill:url(#o);}.o{fill:url(#r);}.p{fill:#fff;opacity:0.102;}.q{fill:url(#s);}.r{opacity:0.9;}</style><radialGradient id="a" cx="16540.391" cy="837.626" r="73.128" gradientTransform="translate(-143.514 -22.248) scale(1.021 1.043)" gradientUnits="userSpaceOnUse"><stop offset="0.928" stop-color="#000c2a"/><stop offset="0.939" stop-color="#030f2c"/><stop offset="0.948" stop-color="#0e1935"/><stop offset="0.957" stop-color="#202b45"/><stop offset="0.965" stop-color="#3a435a"/><stop offset="0.973" stop-color="#5b6276"/><stop offset="0.982" stop-color="#838998"/><stop offset="0.99" stop-color="#b3b7c0"/><stop offset="0.997" stop-color="#e9eaed"/><stop offset="1" stop-color="#fff"/></radialGradient><radialGradient id="b" cx="16553.273" cy="869.022" r="58.245" gradientTransform="translate(-143.314 -22.747) scale(1.021 1.043)" gradientUnits="userSpaceOnUse"><stop offset="0.026" stop-color="#0072fd"/><stop offset="0.12" stop-color="#0069be"/><stop offset="0.171" stop-color="#0066a2"/><stop offset="0.231" stop-color="#005589"/><stop offset="0.34" stop-color="#003b64"/><stop offset="0.454" stop-color="#002545"/><stop offset="0.572" stop-color="#00152d"/><stop offset="0.697" stop-color="#00091c"/><stop offset="0.833" stop-color="#000212"/><stop offset="1" stop-color="#00000f"/></radialGradient><radialGradient id="c" cx="-1106.788" cy="-35.091" r="21.07" gradientTransform="translate(-377.486 -16.983) scale(0.966 0.966)" gradientUnits="userSpaceOnUse"><stop offset="0.005" stop-color="#fff"/><stop offset="0.084" stop-color="#d6eaff" stop-opacity="0.804"/><stop offset="0.171" stop-color="#b0d7ff" stop-opacity="0.616"/><stop offset="0.264" stop-color="#8ec6ff" stop-opacity="0.451"/><stop offset="0.36" stop-color="#72b8ff" stop-opacity="0.31"/><stop offset="0.46" stop-color="#5badff" stop-opacity="0.196"/><stop offset="0.567" stop-color="#49a4ff" stop-opacity="0.11"/><stop offset="0.683" stop-color="#3c9dff" stop-opacity="0.047"/><stop offset="0.815" stop-color="#359aff" stop-opacity="0.012"/><stop offset="0.997" stop-color="#39f" stop-opacity="0"/></radialGradient><radialGradient id="d" cx="26954.814" cy="904.784" r="19.291" gradientTransform="translate(-928.974 -31.549) scale(1.054 1.054)" xlink:href="#c"/><linearGradient id="e" x1="0.5" y1="1" x2="0.5" gradientUnits="objectBoundingBox"><stop offset="0.178" stop-color="#3f6cff"/><stop offset="0.36" stop-color="#477dff"/><stop offset="0.612" stop-color="#59a6ff"/><stop offset="0.8" stop-color="#5babff"/><stop offset="0.907" stop-color="#6acbff"/></linearGradient><linearGradient id="f" x1="0.5" y1="1" x2="0.5" y2="0" xlink:href="#e"/><linearGradient id="g" x1="0.5" y1="1" x2="0.5" y2="0" xlink:href="#e"/><linearGradient id="h" x1="0.5" y1="1" x2="0.5" y2="0" xlink:href="#e"/><linearGradient id="j" x1="0.5" y1="1" x2="0.5" y2="0" xlink:href="#e"/><linearGradient id="k" x1="0.5" y1="1" x2="0.5" y2="0" xlink:href="#e"/><linearGradient id="l" x1="0.5" y1="1" x2="0.5" y2="0" xlink:href="#e"/><linearGradient id="o" x1="0.5" y1="1" x2="0.5" y2="0" xlink:href="#e"/><linearGradient id="r" x1="0.5" y1="1" x2="0.5" y2="0" xlink:href="#e"/><linearGradient id="s" x1="-76.967" y1="-46.898" x2="-76.967" y2="-47.837" gradientUnits="objectBoundingBox"><stop offset="0" stop-color="#00dbff"/><stop offset="0.416" stop-color="#00a4e3"/><stop offset="1" stop-color="#0052bb"/></linearGradient></defs><g transform="translate(0 0)"><g transform="translate(0.599 0.331)"><path class="a" d="M9908.876,394.68c0,42.116-33.435,76.261-74.679,76.261s-74.68-34.145-74.68-76.261,33.435-76.259,74.68-76.259S9908.876,352.562,9908.876,394.68Z" transform="translate(-9759.518 -318.421)"/><path class="b" d="M9837.694,338.079c-32.848,0-59.477,27.192-59.477,60.739s26.629,60.739,59.477,60.739,59.484-27.195,59.484-60.739S9870.544,338.079,9837.694,338.079Z" transform="translate(-9763.176 -322.266)"/><ellipse class="c" cx="65.774" cy="67.165" rx="65.774" ry="67.165" transform="translate(8.841 9.274)"/><g transform="translate(107.545 113.233)"><path class="d" d="M9898.831,494.57a95.082,95.082,0,0,0,16.844-13.135,93.55,93.55,0,0,0,14.18-16.466l-5.492-5.78c-4.686,2.622-10.887,7.355-17.167,13.32a95,95,0,0,0-13.979,16.151Z" transform="translate(-9893.216 -459.19)"/></g><g transform="translate(6.168 2.572)"><path class="e" d="M9773.169,358.564a95.078,95.078,0,0,0,15.97-14.188,93.655,93.655,0,0,0,13.1-17.339l-5.85-5.418c-4.511,2.919-10.395,8.037-16.279,14.394a95.146,95.146,0,0,0-12.92,17.011Z" transform="translate(-9767.186 -321.619)"/></g><g transform="translate(14.474 14.946)"><path class="f" d="M9898.124,399.839c-.7,34.006-28.272,61.014-61.578,60.324s-59.724-28.816-59.021-62.823,28.27-61.016,61.57-60.326S9898.826,365.831,9898.124,399.839Z" transform="translate(-9777.511 -337.002)"/></g><g transform="translate(36.998 32.902)"><path class="g" d="M9870.5,440.808a1.41,1.41,0,1,0-1.409,1.409A1.409,1.409,0,0,0,9870.5,440.808Zm-2.42.09a1.163,1.163,0,0,0,2.022,0,1.02,1.02,0,0,1-2.022,0Z" transform="translate(-9817.673 -374.987)"/><path class="h" d="M9850.659,450.334a24.809,24.809,0,0,0-3.548.678l-4.114.679h4.176c1.11-.987,3.483-.9,3.483-.9h0s2.374-.082,3.485.9h4.174l-4.113-.679A24.826,24.826,0,0,0,9850.659,450.334Z" transform="translate(-9812.845 -377.127)"/><path class="i" d="M9869.01,442.967a2,2,0,0,1-1.736-1.011,1.752,1.752,0,0,0,3.475,0A2,2,0,0,1,9869.01,442.967Z" transform="translate(-9817.594 -375.488)"/><path class="j" d="M9867.2,381.133c-5.857-4.756-13.812-7.377-22.395-7.377h0c-8.583,0-16.536,2.621-22.394,7.377a24.34,24.34,0,0,0-9.33,19.129c0,10.557,3.065,17.7,9.371,21.825,6.335,4.148,15.273,4.68,22.353,4.68h0c7.08,0,16.018-.532,22.353-4.68,6.307-4.13,9.371-11.269,9.371-21.825A24.342,24.342,0,0,0,9867.2,381.133Zm-.582,40.129a23.892,23.892,0,0,1-6.89,2.966c7.4-2.764,9.479-6.273,9.479-6.273a21.352,21.352,0,0,1-10.283,5.471,68.791,68.791,0,0,1-14.118,1.44h0a68.779,68.779,0,0,1-14.117-1.44,21.359,21.359,0,0,1-10.284-5.471s2.082,3.51,9.479,6.273a23.887,23.887,0,0,1-6.889-2.966c-6-3.933-8.925-10.8-8.925-21,0-14.548,13.215-25.518,30.736-25.518h0c17.521,0,30.737,10.97,30.737,25.518C9875.545,410.46,9872.626,417.329,9866.62,421.262Z" transform="translate(-9806.993 -362.147)"/><path class="j" d="M9845.327,375.438h0c-16.866,0-29.585,10.5-29.585,24.435,0,9.731,2.86,16.314,8.747,20.121,5.907,3.822,14.24,4.313,20.838,4.313h0c6.6,0,14.931-.491,20.839-4.313,5.885-3.807,8.746-10.389,8.746-20.121C9874.912,385.943,9862.193,375.438,9845.327,375.438Zm-19.53,18.421a7.827,7.827,0,0,0-1.739-1.078l-.341-.15.193.318c0,.007.395.652.915,1.637a6.509,6.509,0,0,0-1.171,5.164l.1.427.125-.422a11.368,11.368,0,0,1,1.493-3.22q-.595,3.762-1.189,7.526a4.681,4.681,0,0,1-1.3-2.148,8.719,8.719,0,0,1-.047-4.347,24.36,24.36,0,0,0,.3-6.526,2.4,2.4,0,0,1,1.5-.405,4.972,4.972,0,0,1,1.624.285Q9826.029,392.39,9825.8,393.859Zm34.538,6.226a2.272,2.272,0,0,1-1.936.715h0a15.716,15.716,0,0,1-4.808-1.089l-.02-.006h-.1l-.03.071c-.033.076-.033.076.2.321,3.221,3.436,5.322,6.862,6.081,9.908a10.455,10.455,0,0,1,.292,1.8,11.078,11.078,0,0,1-.228,3.152c-.024.1-.047.207-.072.309-.008.028-.017.056-.023.085l-.009.031c-.038.146-.074.273-.109.389a1.981,1.981,0,0,1-1.876,1.39,1.922,1.922,0,0,1-.653-.114,22.515,22.515,0,0,0-7.556-1.323c-.583,0-1.171.023-1.752.07l-.664.054.644.177A31.767,31.767,0,0,1,9855,419.1a59.476,59.476,0,0,1-19.352,0,31.748,31.748,0,0,1,7.288-3.074l.644-.177-.665-.054c-.58-.047-1.169-.07-1.751-.07a22.505,22.505,0,0,0-7.556,1.323,1.931,1.931,0,0,1-.653.114,1.979,1.979,0,0,1-1.876-1.39c-.036-.115-.071-.242-.111-.389l-.03-.117c-.026-.1-.049-.205-.072-.31a11.07,11.07,0,0,1-.228-3.151,10.245,10.245,0,0,1,.292-1.8c.758-3.045,2.859-6.47,6.079-9.907.231-.247.231-.247.2-.323l-.032-.071h-.1l-.019.006a15.693,15.693,0,0,1-4.807,1.089,2.274,2.274,0,0,1-1.937-.715c-.785-1.033-.215-3.078.338-5.056a14.645,14.645,0,0,0,.69-3.407c.058-4.88,2.563-5.445,4.441-5.445a15.811,15.811,0,0,1,2.721.3,39.7,39.7,0,0,0,6.7.6h.243a39.736,39.736,0,0,0,6.7-.6,15.8,15.8,0,0,1,2.721-.3c1.879,0,4.384.565,4.439,5.445a14.633,14.633,0,0,0,.691,3.406C9860.55,397.005,9861.12,399.052,9860.335,400.084Zm7.437,1.829a4.667,4.667,0,0,1-1.306,2.148l-1.187-7.526a11.356,11.356,0,0,1,1.492,3.22l.125.422.1-.427a6.452,6.452,0,0,0-1.173-5.165c.521-.985.913-1.629.918-1.635l.2-.319-.344.15a7.827,7.827,0,0,0-1.739,1.078q-.233-1.471-.463-2.938a4.965,4.965,0,0,1,1.622-.285,2.359,2.359,0,0,1,1.5.405,24.423,24.423,0,0,0,.3,6.526A8.732,8.732,0,0,1,9867.771,401.914Zm5.884,2.8c-.219-2.14-.433-4.956-1-7.839A24.1,24.1,0,0,0,9862.574,382c-5.257-3.542-13-4.5-17.247-4.5h0c-4.242,0-11.99.956-17.247,4.5A24.106,24.106,0,0,0,9818,396.877c-.569,2.883-.783,5.7-1,7.839a41.1,41.1,0,0,1-.271-4.842c0-13.367,12.294-23.447,28.6-23.447h0c16.3,0,28.6,10.08,28.6,23.447A41.1,41.1,0,0,1,9873.655,404.715Z" transform="translate(-9807.514 -362.476)"/><path class="k" d="M9851.9,452.481h0c-1.413,0-2.56.631-2.56,1.41s1.146,1.409,2.56,1.409h0c1.413,0,2.56-.631,2.56-1.409S9853.313,452.481,9851.9,452.481Zm0,1.838h0c-.534,0-.968-.208-.968-.466s.434-.467.968-.467h0c.534,0,.968.209.968.467S9852.434,454.319,9851.9,454.319Z" transform="translate(-9814.085 -377.547)"/><path class="l" d="M9836.677,440.808a1.41,1.41,0,1,0-1.409,1.409A1.41,1.41,0,0,0,9836.677,440.808Zm-2.421.09a1.162,1.162,0,0,0,2.021,0,1.019,1.019,0,0,1-2.021,0Z" transform="translate(-9811.058 -374.987)"/><path class="m" d="M9835.188,442.967a2,2,0,0,1-1.738-1.011,1.752,1.752,0,0,0,3.475,0A2,2,0,0,1,9835.188,442.967Z" transform="translate(-9810.978 -375.488)"/><path class="j" d="M9878.645,394.584l-.188-.063a.176.176,0,0,1-.119-.166v-.349a35.5,35.5,0,0,0-3.4-14.733,34.985,34.985,0,0,0-63.218,0,35.526,35.526,0,0,0-3.4,14.733v.349a.175.175,0,0,1-.118.166l-.188.063a3.644,3.644,0,0,0-2.5,3.459v6.838a3.648,3.648,0,0,0,2.388,3.423l1.7.625.457,5.3.572,5.9a3.565,3.565,0,0,0-2.485,3.327V430.9a3.3,3.3,0,0,0,1.435,2.722,36.313,36.313,0,0,0,12.56,5.549c9.2,1.937,12.653,2.424,21.187,2.424s11.984-.487,21.187-2.424a36.306,36.306,0,0,0,12.559-5.549,3.3,3.3,0,0,0,1.435-2.722v-7.449a3.565,3.565,0,0,0-2.485-3.327l.572-5.9.458-5.3,1.7-.625a3.647,3.647,0,0,0,2.389-3.423v-6.838A3.646,3.646,0,0,0,9878.645,394.584Zm-65.848-14.8a33.774,33.774,0,0,1,62.731,4.263q-.539-1.484-1.219-2.921a34.291,34.291,0,0,0-61.967,0q-.678,1.436-1.219,2.921A33.792,33.792,0,0,1,9812.8,379.788Zm62.652,27.838c-.447,2.327-1.382,5.628-3.271,7.749a17.893,17.893,0,0,0,2.6-3.2,13.791,13.791,0,0,1-2.595,5.035,18.723,18.723,0,0,0,2.268-2.683,15.814,15.814,0,0,1-2.281,3.979,8.961,8.961,0,0,0,2.614-3.062,15.964,15.964,0,0,1-2.614,4.9,8.931,8.931,0,0,0,2.169-2.3c-1.879,5.756-7.21,8.379-15.337,9.639-3.02.469-6.019.848-8.585,1.043v-1.384a1.927,1.927,0,0,0-2.061-1.918c-2.072.137-3.874.074-5.033.074s-2.962.063-5.034-.074a1.926,1.926,0,0,0-2.06,1.918v1.384c-2.566-.2-5.566-.574-8.586-1.043-8.127-1.26-13.458-3.883-15.337-9.639a8.931,8.931,0,0,0,2.169,2.3,15.964,15.964,0,0,1-2.614-4.9,8.961,8.961,0,0,0,2.614,3.062,15.778,15.778,0,0,1-2.28-3.979,18.745,18.745,0,0,0,2.267,2.683,13.774,13.774,0,0,1-2.594-5.035,17.862,17.862,0,0,0,2.6,3.2c-1.89-2.121-2.824-5.422-3.271-7.749a15.04,15.04,0,0,0,2.085,4.543c-2.3-4.882-2.34-11.669-2.34-11.709l0-4.581c0-14.074,14.527-25.522,32.384-25.522s32.384,11.448,32.384,25.522l-.006,4.581c0,.039-.043,6.827-2.339,11.709A15.057,15.057,0,0,0,9875.449,407.627Zm-36.942,18.992c-1.133,0-1.193,1.686-1.193,1.686a6.249,6.249,0,0,1,0-1.522c.119-.357.493-.658,1.418-.5a90.238,90.238,0,0,0,9.188,0c.925-.162,1.3.139,1.419.5a6.3,6.3,0,0,1,0,1.522s-.062-1.686-1.193-1.686Zm9.553,1.69a.571.571,0,0,1-.571.572h-8.325a.572.572,0,0,1,0-1.143h8.325A.571.571,0,0,1,9848.06,428.308ZM9808.091,406.2a2.073,2.073,0,0,1-.783-1.537l-.207-5.023c-.021-.538.511-1.05,1.086-1.44l.553,5.719.341-5.837.632,8.917Zm1.4-11.718a27.8,27.8,0,0,1,7.491-16.347,30.324,30.324,0,0,1,14.921-8.581,31.7,31.7,0,0,1,4.248-.771c-.98.154-1.956.351-2.923.6a32.209,32.209,0,0,0-23.737,25.1Zm33.841,46.03h0c-12.458,0-23.376-2.354-29.465-5.883,6.939,3.07,17.56,5.034,29.465,5.034h0c11.905,0,22.525-1.964,29.465-5.034C9866.7,438.158,9855.784,440.512,9843.327,440.512Zm34.171-17.377c-.059.112-3.851,7.342-18.572,9.3,0,0,8.371.343,15.3-3.95a14.84,14.84,0,0,0,3.29-2.6v1.434a20.375,20.375,0,0,1-6.5,4.1c-4.067,1.75-12.229,2.921-15.651,3.332l-.2.014a4.044,4.044,0,0,0-2.354.955,3.4,3.4,0,0,1-2.236.841h-1.949a3.3,3.3,0,0,0-2.192.812,5.53,5.53,0,0,1-6.22,0,3.3,3.3,0,0,0-2.192-.812h-1.949a3.4,3.4,0,0,1-2.236-.841,4.044,4.044,0,0,0-2.354-.955l-.2-.014c-3.425-.411-11.585-1.581-15.651-3.332a20.375,20.375,0,0,1-6.5-4.1v-1.434a14.84,14.84,0,0,0,3.29,2.6c6.933,4.293,15.3,3.95,15.3,3.95-14.722-1.958-18.514-9.189-18.572-9.3a2.561,2.561,0,0,1,1.595-1.988c.8,4.6,6.429,7.849,16.739,9.649a92.52,92.52,0,0,0,31.678,0c10.31-1.8,15.936-5.044,16.738-9.649A2.561,2.561,0,0,1,9877.5,423.135Zm-8.927-45.048a32.124,32.124,0,0,0-15.143-8.709c-.968-.245-1.943-.441-2.924-.6a31.7,31.7,0,0,1,4.248.771,30.324,30.324,0,0,1,14.921,8.581,27.8,27.8,0,0,1,7.491,16.347A32.4,32.4,0,0,0,9868.571,378.086Zm10.772,26.575a2.07,2.07,0,0,1-.783,1.537l-1.621.8.632-8.917.341,5.837.554-5.719c.575.39,1.107.9,1.085,1.44Z" transform="translate(-9805.513 -359.324)"/><path class="j" d="M9857.818,390.567h-.024l-4.144,1.946a9.769,9.769,0,0,1-4.176.93,9.891,9.891,0,0,1-4.172-.93l-4.143-1.946h-.026a4.339,4.339,0,0,0-4.179,4.473v1.493l.229-.646c.629-1.779.767-1.984,1.831-2.044a3.5,3.5,0,0,0,.049,3.12,2.8,2.8,0,0,0,2.639,1.34h0a9.423,9.423,0,0,0,3.825-1.037c-.181,2.23-1.294,3.36-3.312,3.36a10.2,10.2,0,0,1-3.918-1.022l-.349-.174.193.338c.046.078,1.148,1.924,4.779,1.924.146,0,.3,0,.448-.009,3.421-.141,5.06-3.954,5.51-6.272a.664.664,0,0,0,.223.017,1.81,1.81,0,0,1,.253,0h.244a1.857,1.857,0,0,1,.251,0,.671.671,0,0,0,.224-.017c.45,2.317,2.087,6.131,5.507,6.272.15.006.3.009.449.009,3.634,0,4.735-1.846,4.78-1.924l.192-.338-.348.175a10.212,10.212,0,0,1-3.917,1.022c-2.02,0-3.133-1.13-3.313-3.36a9.414,9.414,0,0,0,3.826,1.037,2.8,2.8,0,0,0,2.64-1.341,3.505,3.505,0,0,0,.049-3.119c1.063.06,1.2.265,1.831,2.044l.229.646V395.04A4.339,4.339,0,0,0,9857.818,390.567Zm-15.642,6.3h0a1.844,1.844,0,0,1-1.475-.574,3.056,3.056,0,0,1-.446-2.292l1.284.315a1.509,1.509,0,0,0,1.137,2.5,1.46,1.46,0,0,0,.294-.03A4.387,4.387,0,0,1,9842.177,396.863Zm1.073-.139c-.088.021-.173.039-.258.054a1.5,1.5,0,0,0,1.149-1.829l1.374.336A4.764,4.764,0,0,1,9843.25,396.724Zm12.452,0a4.771,4.771,0,0,1-2.265-1.439l1.373-.336a1.5,1.5,0,0,0,1.145,1.828C9855.871,396.761,9855.789,396.744,9855.7,396.724Zm2.551-.435a1.844,1.844,0,0,1-1.475.574h0a4.343,4.343,0,0,1-.79-.08,1.478,1.478,0,0,0,.289.029,1.508,1.508,0,0,0,1.137-2.5L9858.7,394A3.055,3.055,0,0,1,9858.253,396.289Z" transform="translate(-9811.663 -365.435)"/><path class="n" d="M9849,412.163a.564.564,0,0,1,.641.408l.5,1.921.431-3.452a1.38,1.38,0,0,0-.728-1.262,4.678,4.678,0,0,0-2-.742,5.635,5.635,0,0,0-.822-.062c-1.312,0-2.266.479-2.371,1.191-.128.878,1.071,1.758,2.728,2A5.1,5.1,0,0,0,9849,412.163Z" transform="translate(-9813.168 -369.036)"/><path class="j" d="M9853.955,412.571a.557.557,0,0,1,.54-.417.579.579,0,0,1,.1.009,5.085,5.085,0,0,0,1.621.006c1.656-.246,2.854-1.126,2.727-2-.105-.713-1.058-1.191-2.371-1.191a5.6,5.6,0,0,0-.821.062,4.682,4.682,0,0,0-2,.742,1.379,1.379,0,0,0-.728,1.26l.427,3.452Z" transform="translate(-9814.805 -369.036)"/><path class="j" d="M9839.957,421.16c-.219.047-.437.1-.648.147-.771.183-1.836.895-1.787,1.9l.008.134,3.976-.723a44.418,44.418,0,0,1,15.921,0l3.976.723.007-.134c.053-1.005-1.011-1.717-1.783-1.9-.212-.05-.429-.1-.647-.146A43.764,43.764,0,0,0,9839.957,421.16Z" transform="translate(-9811.772 -371.215)"/><path class="o" d="M9856.091,406.406a19.88,19.88,0,0,0-3.152.381,16.971,16.971,0,0,1-2.529.321h-.241a16.956,16.956,0,0,1-2.529-.321,19.9,19.9,0,0,0-3.155-.381h-.066a3.294,3.294,0,0,0-2.7,1.235,3.1,3.1,0,0,0,.617,4.322l.261.2-.075-.318a3.758,3.758,0,0,1,.641-3.125,2.752,2.752,0,0,1,1.124-.893,3.146,3.146,0,0,1,1.277-.258,3.852,3.852,0,0,1,.883.1,23.406,23.406,0,0,0,3.773.65l.064,0a22.045,22.045,0,0,0,3.847-.648,3.838,3.838,0,0,1,.882-.1,3.155,3.155,0,0,1,1.279.258,2.758,2.758,0,0,1,1.124.893,3.765,3.765,0,0,1,.641,3.125l-.075.318.261-.2a3.1,3.1,0,0,0,.616-4.322,3.3,3.3,0,0,0-2.7-1.235Z" transform="translate(-9812.476 -368.534)"/></g><path class="p" d="M9833.643,318.009c-41.35,0-74.87,34.231-74.87,76.452a76.877,76.877,0,0,0,29.755,61.006l93.9-118.97A73.651,73.651,0,0,0,9833.643,318.009Z" transform="translate(-9759.372 -318.34)"/></g><g transform="translate(118.046 6.831)"><g transform="translate(0)"><path class="q" d="M9944.061,420.667c-6.246-6.247-5.941-16.077.306-22.325s16.076-6.552,22.322-.3a16,16,0,0,1-22.628,22.629Z" transform="translate(-9939.525 -393.502)"/><g transform="translate(2.815 2.642)"><path class="r" d="M9969.581,410.272a13.279,13.279,0,1,1-13.276-13.486A13.385,13.385,0,0,1,9969.581,410.272Z" transform="translate(-9943.025 -396.786)"/></g></g><g transform="translate(9.397 7.664)"><path class="c" d="M9965.3,419.587h-13.564a.511.511,0,0,0-.509.508.519.519,0,0,0,.509.508h13.578a.51.51,0,0,0,.508-.508A.521.521,0,0,0,9965.3,419.587Z" transform="translate(-9951.21 -406.268)"/><path class="c" d="M9951.221,411.846l-.014,2.419a.52.52,0,0,0,.149.371.5.5,0,0,0,.359.15l2.406-.013a.5.5,0,0,0,.36-.148l8.308-8.309a.526.526,0,0,0,0-.733l-2.381-2.405a.524.524,0,0,0-.73,0l-1.663,1.675-6.646,6.634A.548.548,0,0,0,9951.221,411.846Zm8.828-7.577,1.674,1.675-.941.943-1.674-1.674Zm-7.8,7.8,6.127-6.126,1.673,1.675-6.125,6.113-1.687.011Z" transform="translate(-9951.207 -403.029)"/></g></g></g></svg>