<svg xmlns="http://www.w3.org/2000/svg" width="69.67" height="88.667" viewBox="0 0 69.67 88.667"><defs><style>.a{fill:rgba(255,255,255,0.5);}.b{fill:#fff;}</style></defs><path class="a" d="M772.857,778.084v15.784a1.241,1.241,0,0,0,1.864,1.072l13.784-7.957a1.235,1.235,0,0,0,.621-1.074V770.122a1.242,1.242,0,0,0-1.864-1.074l-13.785,7.957a1.249,1.249,0,0,0-.621,1.079" transform="translate(-719.457 -747.287)"/><path class="a" d="M772.857,786.072v15.779a1.243,1.243,0,0,0,1.864,1.079l13.784-7.96a1.241,1.241,0,0,0,.621-1.077V778.113a1.242,1.242,0,0,0-1.864-1.077l-13.785,7.957a1.243,1.243,0,0,0-.621,1.079" transform="translate(-719.457 -734.853)"/><path class="a" d="M765.9,790.087v15.782a1.243,1.243,0,0,0,1.864,1.079l13.782-7.96a1.226,1.226,0,0,0,.621-1.071V782.129a1.244,1.244,0,0,0-1.864-1.076l-13.782,7.96a1.245,1.245,0,0,0-.621,1.074" transform="translate(-730.295 -728.594)"/><path class="b" d="M782.163,778.084v15.784a1.241,1.241,0,0,1-1.864,1.072l-13.782-7.957a1.24,1.24,0,0,1-.621-1.074V770.122a1.243,1.243,0,0,1,1.864-1.074l13.782,7.957a1.237,1.237,0,0,1,.621,1.079" transform="translate(-730.295 -747.287)"/><path class="a" d="M782.369,764.6l13.669,7.893a1.243,1.243,0,0,1,0,2.156L782.26,782.6a1.253,1.253,0,0,1-1.243,0l-13.67-7.894a1.239,1.239,0,0,1,0-2.148l13.782-7.963a1.248,1.248,0,0,1,1.24,0" transform="translate(-729.003 -754.213)"/><path class="a" d="M775.45,760.6l13.667,7.9a1.241,1.241,0,0,1,0,2.15L775.335,778.6a1.24,1.24,0,0,1-1.242,0l-13.667-7.888a1.243,1.243,0,0,1,0-2.153l13.782-7.96a1.241,1.241,0,0,1,1.243,0" transform="translate(-739.78 -760.436)"/><path class="b" d="M768.243,778.084v15.784a1.241,1.241,0,0,1-1.864,1.072l-13.784-7.957a1.235,1.235,0,0,1-.621-1.074V770.122a1.243,1.243,0,0,1,1.864-1.074l13.785,7.957a1.248,1.248,0,0,1,.621,1.079" transform="translate(-751.973 -747.287)"/><path class="b" d="M768.243,786.072v15.779a1.244,1.244,0,0,1-1.864,1.079l-13.784-7.96a1.241,1.241,0,0,1-.621-1.077V778.113a1.243,1.243,0,0,1,1.864-1.077l13.785,7.957a1.243,1.243,0,0,1,.621,1.079" transform="translate(-751.973 -734.853)"/><path class="b" d="M768.243,794.055v15.784a1.241,1.241,0,0,1-1.864,1.077l-13.784-7.957a1.247,1.247,0,0,1-.621-1.077V786.1a1.245,1.245,0,0,1,1.864-1.077l13.785,7.96a1.245,1.245,0,0,1,.621,1.076" transform="translate(-751.973 -722.418)"/><path class="b" d="M775.2,790.087v15.782a1.242,1.242,0,0,1-1.864,1.079l-13.782-7.96a1.228,1.228,0,0,1-.619-1.071V782.129a1.242,1.242,0,0,1,1.862-1.076l13.782,7.96a1.24,1.24,0,0,1,.621,1.074" transform="translate(-741.132 -728.594)"/><path class="a" d="M758.936,778.084v15.784a1.239,1.239,0,0,0,1.862,1.072l13.782-7.957a1.235,1.235,0,0,0,.621-1.074V770.122a1.243,1.243,0,0,0-1.864-1.074l-13.782,7.957a1.24,1.24,0,0,0-.619,1.079" transform="translate(-741.132 -747.287)"/><path class="a" d="M767.05,764.6l-13.67,7.893a1.245,1.245,0,0,0,0,2.156l13.78,7.955a1.258,1.258,0,0,0,1.245,0l13.67-7.894a1.24,1.24,0,0,0,0-2.148L768.29,764.6a1.248,1.248,0,0,0-1.24,0" transform="translate(-750.749 -754.213)"/><path class="a" d="M775.387,776.592l13.672,7.891a1.245,1.245,0,0,1,0,2.156l-13.782,7.954a1.245,1.245,0,0,1-1.245,0l-13.672-7.888a1.247,1.247,0,0,1,0-2.153l13.787-7.96a1.249,1.249,0,0,1,1.24,0" transform="translate(-739.876 -735.537)"/><path class="a" d="M758.936,788.518v15.615a1.239,1.239,0,0,0,1.862,1.077l13.524-7.812Z" transform="translate(-741.132 -716.713)"/></svg>