<svg xmlns="http://www.w3.org/2000/svg" width="82.478" height="48.477" viewBox="0 0 82.478 48.477"><defs><style>.a{fill:#fff;}</style></defs><g transform="translate(-71.052 -23.051)"><path class="a" d="M76.768,23.19a2.589,2.589,0,0,0-1.345.8c-.467.546-.484.629-.471,2.273.011.949-.01,2.626-.047,3.756-.042,2.024-.042,2.024-.418,1.9a4.5,4.5,0,0,0-2.861.159c-.261.27-.261.27.033.174.223-.062.293-.032.235.1a.245.245,0,0,1-.274.171c-.121-.019-.2.294-.205.856a12.989,12.989,0,0,1-.121,1.508,1.049,1.049,0,0,0,.347,1.072c.406.445.546.484,1.776.5,1.149.014,1.352.072,1.426.312.092.395-.276,19.974-.379,20.25-.057.154-.444.215-1.189.207a3.449,3.449,0,0,0-1.635.273c-.515.306-.536.333-.571,1.675-.07,2.731,0,2.834,2.165,2.861l1.446.019-.1,3.291c-.122,4.637,0,4.843,3.334,5.067,4.935.322,19.4.6,21.774.432a22.1,22.1,0,0,1,2.363-.034c1.111.033,1.39.019,1.594-.175.178-.132.241-.132.24,0a.2.2,0,0,0,.172.2c.1,0,.178-.152.181-.353s-.06-.3-.172-.244c-.083.055-.175.017-.172-.085,0-.314.415-.1.592.32.172.38.217.382,4.026.429,2.123.027,5.041.118,6.484.184,3.892.2,9.993.06,10-.253,0-.139.086-.24.2-.237s.154.122.08.258c-.069.218.115.26,1.226.274.716.029,4.686.093,8.824.165,4.122.07,7.444.076,7.4-.01-.034-.065.057-.119.2-.116.175,0,.221.088.155.207-.208.319,4.286.108,5.044-.26,1.261-.6,1.34-.859,1.393-4.583a31.634,31.634,0,0,1,.185-3.605c.067-.2.207-.238.482-.149a6.87,6.87,0,0,0,2.715-.07c.223-.136.2-.154-.053-.177-.2,0-.294-.083-.238-.218.039-.1.158-.192.241-.174.221.059.435-2.691.241-3.034-.4-.744-.467-.78-2.033-.879l-1.561-.1.093-10.349.075-10.332,1.526.017c1.407.02,1.525-.016,1.947-.451a1.032,1.032,0,0,0,.375-1.062,10.738,10.738,0,0,1-.085-1.492c.006-.579-.055-.894-.184-.861a.265.265,0,0,1-.274-.2c-.052-.136.023-.175.243-.1.274.1.274.086.059-.154a4.683,4.683,0,0,0-2.741-.258c-.775.194-.837.011-.91-3.083-.132-4.777-.481-5.462-2.83-5.428a7.011,7.011,0,0,1-1.444-.08,24.861,24.861,0,0,0-4.57-.428c-.569.011-1.561,0-2.224-.011s-4.049-.011-7.553-.037c-3.489-.027-7-.034-7.812-.019s-1.8.043-2.23.03c-6.657-.185-12.175-.293-12.474-.223-.221.05-.379.152-.342.218.017.063-.039.136-.142.152-.08.036-.172-.056-.171-.178,0-.155-.827-.214-3.512-.246-2.731-.034-3.5.009-3.492.159.037.121-.066.218-.221.215-.138,0-.218-.066-.175-.156.205-.313-.9-.37-8.723-.468-4.343-.053-9.283-.156-10.983-.2a17.544,17.544,0,0,0-3.95.092Zm34.819,5.09c23.484.33,31.262.373,31.263.235,0-.156.057-.138.136,0a1.634,1.634,0,0,0,.972.27l.857.065.009.856c.02,1.374.067,15.237.043,15.533-.072,1.463-.158,12.5-.123,16.341s0,4.937-.165,5.039a5.545,5.545,0,0,1-1.427.066c-1.269-.072-5.905-.131-23.678-.335-9.217-.1-10.416-.076-10.337.146.063.175-.019.256-.24.253s-.313-.085-.235-.258c.086-.22-.991-.253-8.627-.347-4.784-.042-10.12-.065-11.861-.03a17.341,17.341,0,0,1-3.121-.056c0-.205-.594-.148-.827.07-.156.155-.26.174-.337.033a5.767,5.767,0,0,0-2.243-.25,15.505,15.505,0,0,1-2.264-.148,3.986,3.986,0,0,1-.139-1.473c.016-1.15-.019-1.354-.24-1.273-.175.062-.257-.023-.256-.243s.088-.313.263-.237c.22.088.266-.668.35-6.123.326-20.525.323-20.287.082-20.373-.136-.055-.172-.118-.05-.194.26-.149.322-2.221.089-2.989a1.218,1.218,0,0,1-.053-.836,13.052,13.052,0,0,0,.2-2.1c.03-1.05.065-1.988.066-2.123.02-.158.119-.2.322-.08.151.067,14.369.324,31.569.563Z" transform="translate(0 0)"/><path class="a" d="M130.143,30.032l-3.655-.01-.682.646a1.978,1.978,0,0,0-.793,1.571,50.968,50.968,0,0,0-.129,7.553c.056,1.943.089,3.829.047,4.208s-.111,3.53-.155,7.035l-.1,6.347.406.679a2.634,2.634,0,0,0,.943.9,41.913,41.913,0,0,0,8.491.191,2.455,2.455,0,0,0,1.638-2.04c.194-1.665.28-14.341.1-14.821l-.188-.462-2.355-.03a7.325,7.325,0,0,0-2.56.167,4.4,4.4,0,0,0-.223,1.851l-.023,1.645.51.3.51.32-.007,1.921c-.013,1.068-.034,2.78-.065,3.848a6.887,6.887,0,0,0,.149,2.227.764.764,0,0,1,.007.774c-.184.457-.2.457-1.475.378-1.466-.08-1.73-.194-1.459-.531.2-.238.431-12.234.346-17.876l-.047-2.762,1.23-.045c1.841-.062,1.822-.079,1.808,1.153a2.726,2.726,0,0,0,.187,1.273c.155.156.155.2,0,.2-.376-.006-.227.477.185.573A10.953,10.953,0,0,0,136,37.1a19.263,19.263,0,0,0,.257-2.953l.1-2.814-.471-.485c-.408-.418-.765-.56-1.914-.755-.106-.043-1.845-.066-3.832-.063ZM81.1,29.746c-.158.151-.218,1.13-.2,3.509.009,3.848-.006,3.552.2,3.235.142-.2.178-.154.171.205,0,.241-.086.477-.207.513-.155.053-.214.788-.237,2.554-.043,2.144-.089,2.537-.346,2.792-.261.233-.32.613-.34,2.192a6.473,6.473,0,0,0,.1,1.808c.158-.152.732.386.728.7,0,.119-.056.218-.121.217a49.5,49.5,0,0,0-.261,5.232c-.056,2.879-.029,5.238.036,5.238.082,0,.235.2.336.435.185.418.251.438,1.9.457,2.538.033,2.395.343,2.426-5.9,0-2.734,0-5.047-.034-5.137-.182-.737-.09-.771,2.346-.741,2.642.033,3.637-.149,4.233-.755l.4-.428.151-7.446a66.494,66.494,0,0,0-.04-7.793c-.424-.8-.883-.866-6.116-.988-3.622-.069-4.983-.05-5.116.1Zm6.716,4.2c.02.175,0,2.006-.013,4.085-.026,2.079.01,3.634.039,3.472.145-.513.4-.309.389.324-.006.5-.062.6-.279.513-.2-.066-.243-.02-.177.2.078.26-.024.293-1.052.223a3.33,3.33,0,0,1-1.368-.309c-.271-.28-.284-.778-.029-.775.119,0,.175-1.2.132-3.927-.009-2.161.016-3.984.072-4.029a4.41,4.41,0,0,1,1.2-.089c.923.023,1.084.07,1.081.31Zm7.965-4.07c-.3.339-.244,4.151.072,4.089.1-.019.2.088.2.224s-.1.237-.205.2c-.156-.017-.246.256-.287.87-.046.716-.011.89.162.793s.178-.079.036.121c-.28.356-.711,19.792-.465,20.946a1.872,1.872,0,0,0,.754,1.261l.567.451,4.5-.01c5.018,0,5.377-.089,5.93-1.133.389-.729.617-6.512.655-16.591.01-4.1.036-8.188.049-9.044a3.809,3.809,0,0,0-.172-1.72.187.187,0,0,0-.276.078c-.088.294-.383.256-.379-.059,0-.2-.271-.263-1.46-.276-2.357-.03-2.174-.6-2.254,7.315-.027,3.652-.032,7.673.009,8.906.062,1.63.029,2.284-.109,2.283-.316-.006-.228.652.1.837.2.139.24.225.083.313A7.462,7.462,0,0,0,103,52.207c-.08,1.988-.131,2.4-.392,2.656-.294.291-.323.291-.53-.009a1.316,1.316,0,0,0-1.49-.118c-.518.251-1.047-.254-.9-.867.126-.515.385-14.754.37-19.916l-.023-3.535-.732-.4c-.491-.281-.85-.389-1.06-.287a4.5,4.5,0,0,1-1.971-.046.676.676,0,0,0-.492.191Zm15.292.177a45.437,45.437,0,0,0-.155,7.322,7.994,7.994,0,0,1,.016,1.806,3.537,3.537,0,0,0,.019,1.406c.215.279-.011.91-.327.906-.138,0-.2.083-.155.177s-.024.291-.162.436a4.746,4.746,0,0,0-.138,2.9.555.555,0,0,1,.168.436.389.389,0,0,0,.19.376c.155.059.182,1.6.132,5.634a46.073,46.073,0,0,0,.083,5.79c.082.1.079.238.014.274a1.33,1.33,0,0,0-.092.791l.057.7h4.581c6.828.03,6.425.515,6.548-7.93.073-5.675.059-5.937-.261-6.286-1.014-1.128-1.131-1.342-.854-1.487.693-.365.869-1.154.94-3.731.032-1.371.1-3.862.149-5.538.093-2.879.076-3.072-.268-3.4-.525-.54-1.328-.653-5.983-.729-3.249-.043-4.362-.02-4.5.144Zm6.373,4c.1.175.086,1.47-.082,6.5-.033,1.251-.121,1.324-1.4,1.1l-.735-.109-.083-1.492c-.046-.831-.08-1.611-.1-1.749,0-.139.072-1.209.149-2.363l.148-2.1.992.014A2,2,0,0,1,117.449,34.051Zm-.225,12.059a19.259,19.259,0,0,1,.1,2.936c-.02,1.512-.029,3.451-.039,4.326a7.257,7.257,0,0,1-.1,1.729,3.571,3.571,0,0,1-2.218-.149c-.19-.156-.212-.36-.1-.83a39.156,39.156,0,0,0,.21-4.322c.039-3.192.083-3.724.322-3.889A2.184,2.184,0,0,1,117.223,46.109Z" transform="translate(3.959 2.855)"/></g></svg>