<svg xmlns="http://www.w3.org/2000/svg" width="94.219" height="35.533" viewBox="0 0 94.219 35.533"><defs><style>.a{fill:#fff;}</style></defs><g transform="translate(-2705.912 -812.248)"><g transform="translate(2705.912 812.248)"><path class="a" d="M2797.979,824.5l-3.767-4.287h-7V814.7h-5.925v25.119h5.925V826.95h4.844v12.868h5.922Zm-18.845-4.287h-9.152l-3.768,4.287v11.028l3.768,4.291h9.152V833.08h-7V826.95h7Zm-15.075,0h-4.844V814.7h-5.923v20.828l3.767,4.291h7V833.08h-4.844V826.95h4.844Zm-12.923-5.513h-5.92v3.063h5.92Zm0,5.513h-5.92v19.606h5.92Zm-8.075,0h-5.922V833.08h-2.152V820.213h-5.923V833.08h-2.152V820.213h-5.923v19.606h18.307l3.767-4.291V820.213Zm-24.227,0h-4.846V814.7h-5.923v20.828l3.771,4.291h7V833.08h-4.846V826.95h4.846v-6.738Zm81.3,3.063v18.379l-8.074,6.126h-5.387v-3.063l-3.768,3.063h-4.844v-3.063l-2.69,3.063h-8.615l-2.693-3.063-.54,3.063h-7.536l-3.082-3.063-.171,3.063h-8.542l-.3-3.063-2.31,3.063h-13.051l-2.691-1.226v1.226h-7l-8.077-5.515-4.844-5.512V812.248h10.231l4.844,5.515h22.073v-5.515h18.307v5.515h4.847v3.063l2.692-3.063h5.384l4.844-5.515h10.231v5.515h5.925Z" transform="translate(-2705.912 -812.248)"/></g></g></svg>