<svg xmlns="http://www.w3.org/2000/svg" xmlns:xlink="http://www.w3.org/1999/xlink" width="198.395" height="319.639" viewBox="0 0 198.395 319.639"><defs><style>.a,.g{stroke:rgba(0,0,0,0);}.a,.b,.c,.d,.f,.g,.i,.j,.l{fill-rule:evenodd;}.a{opacity:0.144;fill:url(#a);}.b{fill:url(#b);}.c{fill:url(#c);}.d{fill:url(#d);}.e,.l{fill:#fff;}.f{fill:url(#e);}.g{fill:url(#f);}.h{fill:url(#i);}.i{fill:url(#k);}.j{fill:url(#l);}.k{fill:url(#m);}.m{opacity:0.7;}.n{opacity:0.5;}.o{filter:url(#g);}</style><radialGradient id="a" cx="0.5" cy="0.5" r="0.5" gradientUnits="objectBoundingBox"><stop offset="0" stop-color="#fff"/><stop offset="1" stop-color="#fff" stop-opacity="0"/></radialGradient><linearGradient id="b" x1="-0.336" y1="1.06" x2="4.228" y2="-0.234" gradientUnits="objectBoundingBox"><stop offset="0" stop-color="#0052bb"/><stop offset="0.251" stop-color="#c1272d"/><stop offset="0.379" stop-color="#c1272d"/><stop offset="0.55" stop-color="#c1272d"/><stop offset="0.634" stop-color="#761e22"/><stop offset="0.8" stop-color="#8e090e"/><stop offset="0.907" stop-color="#9b0d12"/><stop offset="1" stop-color="#c1272d"/></linearGradient><linearGradient id="c" x1="-0.336" y1="1.06" x2="0.938" y2="0.272" gradientUnits="objectBoundingBox"><stop offset="0" stop-color="#0052bb"/><stop offset="0.251" stop-color="#0052bb"/><stop offset="0.379" stop-color="#195cd6"/><stop offset="0.55" stop-color="#3f6cff"/><stop offset="0.634" stop-color="#477dff"/><stop offset="0.8" stop-color="#5babff"/><stop offset="0.907" stop-color="#6acbff"/><stop offset="1" stop-color="#6acbff"/></linearGradient><linearGradient id="d" x1="-1.211" y1="1.27" x2="0.938" y2="0.272" xlink:href="#b"/><linearGradient id="e" x1="-0.336" y1="1.06" x2="0.938" y2="0.272" xlink:href="#c"/><linearGradient id="f" x1="0.214" y1="0.942" x2="0.936" y2="0.363" gradientUnits="objectBoundingBox"><stop offset="0" stop-color="#010d13"/><stop offset="0.1" stop-color="#021018"/><stop offset="0.2" stop-color="#03131d"/><stop offset="0.3" stop-color="#041722"/><stop offset="0.4" stop-color="#051a27"/><stop offset="0.5" stop-color="#061e2c"/><stop offset="0.6" stop-color="#072130"/><stop offset="0.7" stop-color="#082435"/><stop offset="0.8" stop-color="#09283a"/><stop offset="0.9" stop-color="#0a2b3f"/><stop offset="1" stop-color="#0a2e44"/></linearGradient><filter id="g" x="0" y="81.092" width="198.395" height="125.108" filterUnits="userSpaceOnUse"><feOffset dy="11" input="SourceAlpha"/><feGaussianBlur stdDeviation="13" result="h"/><feFlood flood-opacity="0.071"/><feComposite operator="in" in2="h"/><feComposite in="SourceGraphic"/></filter><linearGradient id="i" x1="-0.336" y1="1.06" x2="0.938" y2="0.272" xlink:href="#b"/><linearGradient id="k" x1="0.034" y1="0.896" x2="1.362" y2="0.019" xlink:href="#c"/><linearGradient id="l" x1="0.034" y1="0.104" x2="1.362" y2="0.981" xlink:href="#c"/><linearGradient id="m" x1="-1.211" y1="-0.27" x2="0.938" y2="0.728" xlink:href="#b"/></defs><g transform="translate(-804.78 -307.557)"><g transform="translate(655.718 626.696)"><path class="a" d="M250.709,0c-27.1,0-49.07-8.994-49.07-20.088s21.97-20.089,49.07-20.089,49.069,8.994,49.069,20.089S277.81,0,250.709,0Z"/><g transform="translate(0 -3)"><path class="b" d="M245.811-248.627h4.9v-32.148h-4.9Z"/><path class="c" d="M265.177-230.869H231.343a4.517,4.517,0,0,1-4.517-4.517v-12.092a4.517,4.517,0,0,1,4.517-4.517h33.834a4.517,4.517,0,0,1,4.517,4.517v12.092A4.517,4.517,0,0,1,265.177-230.869Z"/><path class="d" d="M254.536-282.918a6.276,6.276,0,0,1-6.276,6.276,6.277,6.277,0,0,1-6.278-6.276,6.277,6.277,0,0,1,6.278-6.277A6.276,6.276,0,0,1,254.536-282.918Z"/><path class="e" d="M252.622-285.368a1.913,1.913,0,0,1-1.913,1.914,1.915,1.915,0,0,1-1.914-1.914,1.914,1.914,0,0,1,1.914-1.913A1.912,1.912,0,0,1,252.622-285.368Z"/><path class="e" d="M268.453-245.741c-.156.023-.256-.9-1.019-2.312a12.64,12.64,0,0,0-.766-1.225c-1.315-1.809-5.772-1.769-6.123-1.766-6.943.06-11.406-.38-11.405-.339s3.257-.031,5.642-.079c6.731-.137,10.742-.5,12.46,1.3a5.67,5.67,0,0,1,1.072,1.722A3.617,3.617,0,0,1,268.453-245.741Z"/></g><g transform="translate(0 -1)"><path class="f" d="M289.593-125.239H206.926A35.468,35.468,0,0,1,171.563-160.6v-18.371a63.1,63.1,0,0,1,62.919-62.918h27.555a63.1,63.1,0,0,1,62.919,62.918V-160.6A35.364,35.364,0,0,1,289.593-125.239ZM248.26-208.547c-7.875,0-15.452.212-22.705.59-18.984.987-34.471,14.133-36.83,31.232l-.051.368a12.105,12.105,0,0,0,7.016,12.406,14.8,14.8,0,0,0,6.544,1.512h92.051a14.8,14.8,0,0,0,6.544-1.512,12.106,12.106,0,0,0,7.016-12.407l-.051-.37c-2.367-17.163-17.968-30.257-37.025-31.24q-9.617-.5-19.957-.572C249.957-208.545,249.108-208.547,248.26-208.547Z"/><path class="e" d="M302.3-221.766c.083,2.931-2.309,6.435-5.05,6.735-2.568.281-4.619-2.343-6.733-5.05-2.085-2.667-6.645-9.518-4.829-11.456C288.086-234.093,302.108-228.679,302.3-221.766Z"/><path class="e" d="M281.024-235.117a2.181,2.181,0,0,1-2.182,2.181,2.181,2.181,0,0,1-2.182-2.181,2.182,2.182,0,0,1,2.182-2.182A2.182,2.182,0,0,1,281.024-235.117Z"/></g><g class="o" transform="matrix(1, 0, 0, 1, 149.06, -319.14)"><path class="g" d="M294.285-162.439H202.234a14.8,14.8,0,0,1-6.544-1.512,12.105,12.105,0,0,1-7.016-12.406l.051-.368c2.359-17.1,17.846-30.245,36.83-31.232,7.253-.378,14.83-.59,22.705-.59.848,0,1.7,0,2.552.007q10.332.06,19.957.572c19.057.983,34.658,14.077,37.025,31.24l.051.37a12.106,12.106,0,0,1-7.016,12.407A14.8,14.8,0,0,1,294.285-162.439Z" transform="translate(-149.06 318.14)"/></g><path class="h" d="M-38.456-13.766v3.91h5.267V-6.98h-5.267v3.99h6.877V0H-42.366V-16.756h10.787v2.99Zm14.72,4.887a4,4,0,0,0,1.351-.2,2.442,2.442,0,0,0,.914-.558,2.124,2.124,0,0,0,.517-.834,3.2,3.2,0,0,0,.161-1.029,2.158,2.158,0,0,0-.719-1.725,3.346,3.346,0,0,0-2.225-.621H-25.3v4.968ZM-15.479,0H-19a1.493,1.493,0,0,1-1.4-.736L-23.184-5.6a1.348,1.348,0,0,0-.437-.454,1.361,1.361,0,0,0-.69-.144H-25.3V0h-3.887V-16.756h5.451a11.186,11.186,0,0,1,3.1.374,5.819,5.819,0,0,1,2.093,1.041,3.939,3.939,0,0,1,1.179,1.575A5.219,5.219,0,0,1-17-11.787a5.31,5.31,0,0,1-.219,1.541,4.753,4.753,0,0,1-.644,1.34,4.913,4.913,0,0,1-1.052,1.1,5.618,5.618,0,0,1-1.443.793,3.517,3.517,0,0,1,.713.489,3.42,3.42,0,0,1,.6.7Zm6.866-8.878a4,4,0,0,0,1.351-.2,2.442,2.442,0,0,0,.914-.558,2.124,2.124,0,0,0,.518-.834A3.2,3.2,0,0,0-5.669-11.5a2.158,2.158,0,0,0-.719-1.725,3.346,3.346,0,0,0-2.225-.621h-1.564v4.968ZM-.356,0H-3.875a1.493,1.493,0,0,1-1.4-.736L-8.061-5.6A1.348,1.348,0,0,0-8.5-6.055a1.361,1.361,0,0,0-.69-.144h-.989V0h-3.887V-16.756h5.451a11.186,11.186,0,0,1,3.1.374,5.819,5.819,0,0,1,2.093,1.041,3.939,3.939,0,0,1,1.179,1.575,5.219,5.219,0,0,1,.368,1.978,5.31,5.31,0,0,1-.218,1.541,4.753,4.753,0,0,1-.644,1.34,4.913,4.913,0,0,1-1.052,1.1,5.618,5.618,0,0,1-1.443.793,3.517,3.517,0,0,1,.713.489,3.42,3.42,0,0,1,.6.7ZM17.2-8.384A9.005,9.005,0,0,1,16.577-5a8.149,8.149,0,0,1-1.765,2.72A8.1,8.1,0,0,1,12.069-.472,9.327,9.327,0,0,1,8.51.184,9.371,9.371,0,0,1,4.945-.472,8.145,8.145,0,0,1,2.191-2.283,8.1,8.1,0,0,1,.42-5,9.005,9.005,0,0,1-.207-8.384,9.005,9.005,0,0,1,.42-11.764a8.042,8.042,0,0,1,1.771-2.714,8.188,8.188,0,0,1,2.754-1.806A9.371,9.371,0,0,1,8.51-16.94a9.256,9.256,0,0,1,3.559.661,8.209,8.209,0,0,1,2.743,1.811,8.086,8.086,0,0,1,1.765,2.714A8.974,8.974,0,0,1,17.2-8.384Zm-3.979,0A7.244,7.244,0,0,0,12.9-10.62a4.737,4.737,0,0,0-.926-1.685A3.992,3.992,0,0,0,10.5-13.363a5.086,5.086,0,0,0-1.989-.368,5.161,5.161,0,0,0-2.007.368A3.982,3.982,0,0,0,5.02-12.305a4.737,4.737,0,0,0-.926,1.685,7.244,7.244,0,0,0-.322,2.237,7.285,7.285,0,0,0,.322,2.248A4.737,4.737,0,0,0,5.02-4.451,3.926,3.926,0,0,0,6.5-3.4a5.233,5.233,0,0,0,2.007.362A5.157,5.157,0,0,0,10.5-3.4a3.936,3.936,0,0,0,1.478-1.052A4.737,4.737,0,0,0,12.9-6.135,7.285,7.285,0,0,0,13.225-8.384Zm11.719-.495a4,4,0,0,0,1.351-.2,2.442,2.442,0,0,0,.914-.558,2.124,2.124,0,0,0,.517-.834,3.2,3.2,0,0,0,.161-1.029,2.158,2.158,0,0,0-.719-1.725,3.346,3.346,0,0,0-2.225-.621H23.38v4.968ZM33.2,0H29.682a1.493,1.493,0,0,1-1.4-.736L25.5-5.6a1.348,1.348,0,0,0-.437-.454,1.361,1.361,0,0,0-.69-.144H23.38V0H19.493V-16.756h5.451a11.186,11.186,0,0,1,3.1.374,5.819,5.819,0,0,1,2.093,1.041,3.939,3.939,0,0,1,1.179,1.575,5.219,5.219,0,0,1,.368,1.978,5.31,5.31,0,0,1-.219,1.541,4.753,4.753,0,0,1-.644,1.34,4.913,4.913,0,0,1-1.052,1.1,5.618,5.618,0,0,1-1.443.793,3.517,3.517,0,0,1,.713.489,3.42,3.42,0,0,1,.6.7Zm.518-1.806a1.909,1.909,0,0,1,.155-.77A1.948,1.948,0,0,1,34.3-3.2a2.03,2.03,0,0,1,.638-.42,2.05,2.05,0,0,1,.805-.155,2.02,2.02,0,0,1,.793.155,2.1,2.1,0,0,1,.644.42,1.9,1.9,0,0,1,.431.621,1.909,1.909,0,0,1,.155.77,1.95,1.95,0,0,1-.155.776A1.888,1.888,0,0,1,37.18-.4a2.019,2.019,0,0,1-.644.414,2.088,2.088,0,0,1-.793.149,2.119,2.119,0,0,1-.805-.149A1.952,1.952,0,0,1,34.3-.4a1.931,1.931,0,0,1-.425-.627A1.95,1.95,0,0,1,33.718-1.806Zm5.5,0a1.909,1.909,0,0,1,.155-.77A1.948,1.948,0,0,1,39.8-3.2a2.03,2.03,0,0,1,.638-.42,2.05,2.05,0,0,1,.805-.155,2.02,2.02,0,0,1,.793.155,2.1,2.1,0,0,1,.644.42,1.9,1.9,0,0,1,.431.621,1.909,1.909,0,0,1,.155.77,1.95,1.95,0,0,1-.155.776,1.888,1.888,0,0,1-.431.627,2.019,2.019,0,0,1-.644.414,2.088,2.088,0,0,1-.793.149,2.119,2.119,0,0,1-.805-.149A1.952,1.952,0,0,1,39.8-.4a1.931,1.931,0,0,1-.425-.627A1.95,1.95,0,0,1,39.215-1.806Z" transform="translate(251.782 -175.696)"/><path class="c" d="M303.238-103.345c0,.211,0,.413-.009.606a14.271,14.271,0,0,1-.744,4.033c-6.33,19.334-10.122,29.53-15.441,37.778-.919,1.424-1.883,2.793-2.921,4.134-1.359,1.791-2.847,3.536-4.5,5.336-3.674,4-9.231,5.805-11.022,6.429-6.549,2.316-12.335,1.893-16.184,1.93h-.671c-3.857-.037-9.635.386-16.184-1.93-1.791-.624-7.357-2.433-11.022-6.429-10.1-10.995-13.989-20.134-22.862-47.248a14.179,14.179,0,0,1-.735-3.785,14.7,14.7,0,0,1-.009-1.571,16.444,16.444,0,0,1,3.839-9.322,21.274,21.274,0,0,1,16.552-7.735l30.761-.129,30.2-.119a21.8,21.8,0,0,1,16.984,7.752,16.877,16.877,0,0,1,3.747,7.8c.064.386.12.78.156,1.166C303.21-104.218,303.238-103.787,303.238-103.345Z"/><g transform="translate(190.635 -66.293) rotate(-75)"><path class="i" d="M50.715,2.8C45.616-3.1,21.133,4.5,8.706,14.714,6,16.94-1.3,27.98,3.957,27.3c2.662-.345,12.761-7.583,24.818-13.094C39.991,9.079,53.234,5.71,50.715,2.8Z" transform="translate(-1.008 0.916) rotate(-3)"/><path class="j" d="M14.578,46.426c-7.019-3.4-6.009-29.015.639-43.662C16.666-.43,25.44-10.339,26.144-5.081,26.5-2.42,22.122,9.208,19.92,22.28,17.871,34.441,18.045,48.1,14.578,46.426Z" transform="matrix(-0.208, -0.978, 0.978, -0.208, 31.975, 116.664)"/></g><g transform="translate(271.244 -269.017) rotate(-150)"><path class="k" d="M.206,0h0A11.958,11.958,0,0,0,0,2.222,11.888,11.888,0,0,0,7.253,13.163a11.913,11.913,0,0,0,9.244,0,11.851,11.851,0,0,0,3.134-1.949L18.2,10.386a10.278,10.278,0,0,1-2.3,1.35,10.343,10.343,0,0,1-8.039,0A10.262,10.262,0,0,1,4.573,9.523a10.294,10.294,0,0,1-3.024-7.3A10.536,10.536,0,0,1,1.641.828L.207,0Z" transform="matrix(0.966, 0.259, -0.259, 0.966, 11.991, 1.774)"/><path class="k" d="M.3,0h0A17.345,17.345,0,0,0,0,3.236,17.317,17.317,0,0,0,10.566,19.174a17.352,17.352,0,0,0,13.465,0,17.263,17.263,0,0,0,4.564-2.84L26.508,15.13a14.972,14.972,0,0,1-3.356,1.965,15.056,15.056,0,0,1-11.71,0,14.908,14.908,0,0,1-4.78-3.223A15,15,0,0,1,2.256,3.236a15.387,15.387,0,0,1,.134-2.03L.3,0Z" transform="matrix(0.966, 0.259, -0.259, 0.966, 5.314, 0)"/></g></g><g transform="translate(805.595 307.557)"><g transform="translate(0 0)"><path class="l" d="M60.382,26.922a1.972,1.972,0,0,0-1.947-1.491,6.687,6.687,0,0,1-4.577-11.639,1.682,1.682,0,0,0,.184-2.284,29.968,29.968,0,0,0-4.8-4.845,1.685,1.685,0,0,0-2.3.186,6.98,6.98,0,0,1-7.553,1.7A6.727,6.727,0,0,1,35.3,1.971,1.68,1.68,0,0,0,33.812.2,30.236,30.236,0,0,0,27,.184a1.685,1.685,0,0,0-1.5,1.733,6.738,6.738,0,0,1-4.147,6.462,7,7,0,0,1-7.5-1.707,1.689,1.689,0,0,0-2.285-.192,30.081,30.081,0,0,0-4.9,4.844,1.685,1.685,0,0,0,.181,2.3,6.711,6.711,0,0,1,1.693,7.556,7,7,0,0,1-6.59,4.094A1.646,1.646,0,0,0,.205,26.761a30.337,30.337,0,0,0-.013,6.887,2,2,0,0,0,1.986,1.489,6.642,6.642,0,0,1,6.231,4.15,6.734,6.734,0,0,1-1.693,7.489,1.683,1.683,0,0,0-.184,2.282,30.077,30.077,0,0,0,4.791,4.847,1.684,1.684,0,0,0,2.305-.183,6.969,6.969,0,0,1,7.55-1.7,6.716,6.716,0,0,1,4.1,6.573,1.682,1.682,0,0,0,1.486,1.769,30.142,30.142,0,0,0,6.813.018,1.685,1.685,0,0,0,1.5-1.734,6.731,6.731,0,0,1,4.144-6.458,6.989,6.989,0,0,1,7.5,1.706A1.692,1.692,0,0,0,49,54.09a30.151,30.151,0,0,0,4.9-4.844,1.681,1.681,0,0,0-.181-2.3,6.711,6.711,0,0,1-1.7-7.555,6.78,6.78,0,0,1,6.2-4.105l.375.01a1.686,1.686,0,0,0,1.772-1.485A30.312,30.312,0,0,0,60.382,26.922ZM30.335,40.451a10.1,10.1,0,1,1,10.1-10.1A10.113,10.113,0,0,1,30.335,40.451Z" transform="translate(-0.003 0)"/></g></g><g class="m" transform="translate(807.286 375.14)"><g transform="translate(0 0)"><path class="l" d="M23.669,10.552a.773.773,0,0,0-.763-.584,2.621,2.621,0,0,1-1.794-4.562.659.659,0,0,0,.072-.9,11.746,11.746,0,0,0-1.881-1.9.661.661,0,0,0-.9.073,2.736,2.736,0,0,1-2.961.665,2.637,2.637,0,0,1-1.6-2.577.659.659,0,0,0-.583-.693,11.851,11.851,0,0,0-2.67-.007A.661.661,0,0,0,10,.751,2.641,2.641,0,0,1,8.371,3.284a2.743,2.743,0,0,1-2.938-.669.662.662,0,0,0-.9-.075,11.79,11.79,0,0,0-1.92,1.9.66.66,0,0,0,.071.9A2.63,2.63,0,0,1,3.351,8.3a2.744,2.744,0,0,1-2.583,1.6.645.645,0,0,0-.686.583,11.891,11.891,0,0,0-.005,2.7.785.785,0,0,0,.778.584A2.6,2.6,0,0,1,3.3,15.4a2.639,2.639,0,0,1-.664,2.935.66.66,0,0,0-.072.894,11.789,11.789,0,0,0,1.878,1.9.66.66,0,0,0,.9-.072A2.732,2.732,0,0,1,8.3,20.392a2.632,2.632,0,0,1,1.606,2.576.659.659,0,0,0,.583.693,11.814,11.814,0,0,0,2.671.007.661.661,0,0,0,.588-.68,2.638,2.638,0,0,1,1.624-2.531,2.739,2.739,0,0,1,2.94.669.663.663,0,0,0,.9.075,11.818,11.818,0,0,0,1.92-1.9.659.659,0,0,0-.071-.9,2.63,2.63,0,0,1-.665-2.961,2.658,2.658,0,0,1,2.428-1.609l.147,0a.661.661,0,0,0,.695-.582A11.881,11.881,0,0,0,23.669,10.552Zm-11.777,5.3A3.959,3.959,0,1,1,15.851,11.9,3.964,3.964,0,0,1,11.892,15.855Z" transform="translate(-0.003 0)"/></g></g><g class="n" transform="translate(816.55 380.056)"><g transform="translate(25.171 -6.834)"><path class="l" d="M11.548,5.148a.377.377,0,0,0-.372-.285A1.279,1.279,0,0,1,10.3,2.637a.322.322,0,0,0,.035-.437,5.73,5.73,0,0,0-.917-.926.322.322,0,0,0-.44.036,1.335,1.335,0,0,1-1.444.324A1.286,1.286,0,0,1,6.752.377.321.321,0,0,0,6.468.039a5.782,5.782,0,0,0-1.3,0,.322.322,0,0,0-.287.331A1.288,1.288,0,0,1,4.085,1.6a1.338,1.338,0,0,1-1.434-.326.323.323,0,0,0-.437-.037,5.752,5.752,0,0,0-.937.926.322.322,0,0,0,.035.44A1.283,1.283,0,0,1,1.636,4.05a1.339,1.339,0,0,1-1.26.783.315.315,0,0,0-.334.284,5.8,5.8,0,0,0,0,1.317.383.383,0,0,0,.38.285,1.27,1.27,0,0,1,1.192.794,1.288,1.288,0,0,1-.324,1.432.322.322,0,0,0-.035.436,5.751,5.751,0,0,0,.916.927.322.322,0,0,0,.441-.035,1.333,1.333,0,0,1,1.444-.325,1.284,1.284,0,0,1,.783,1.257.322.322,0,0,0,.284.338,5.764,5.764,0,0,0,1.3,0,.322.322,0,0,0,.287-.332A1.287,1.287,0,0,1,7.5,9.98a1.336,1.336,0,0,1,1.434.326.324.324,0,0,0,.437.037,5.765,5.765,0,0,0,.937-.926.322.322,0,0,0-.035-.44A1.283,1.283,0,0,1,9.95,7.532a1.3,1.3,0,0,1,1.185-.785l.072,0a.322.322,0,0,0,.339-.284A5.8,5.8,0,0,0,11.548,5.148ZM5.8,7.735A1.932,1.932,0,1,1,7.734,5.8,1.934,1.934,0,0,1,5.8,7.735Z" transform="translate(-0.003 0)"/></g></g></g></svg>