<svg xmlns="http://www.w3.org/2000/svg" xmlns:xlink="http://www.w3.org/1999/xlink" width="485.153" height="137.615" viewBox="0 0 485.153 137.615"><defs><style>.a{fill:url(#a);}.b{fill:url(#d);}.c{fill:url(#e);}.d{fill:url(#f);}.e{fill:url(#g);}.f{fill:url(#h);}.g{fill:url(#i);}.h{fill:url(#j);}.i{font-size:31px;font-family:Lato-Italic, Lato;font-style:italic;}.j{filter:url(#b);}</style><linearGradient id="a" y1="0.5" x2="1" y2="0.5" gradientUnits="objectBoundingBox"><stop offset="0"/><stop offset="1" stop-color="#58595b"/></linearGradient><filter id="b" x="0" y="0" width="485.153" height="137.615" filterUnits="userSpaceOnUse"><feOffset dy="3" input="SourceAlpha"/><feGaussianBlur stdDeviation="10" result="c"/><feFlood/><feComposite operator="in" in2="c"/><feComposite in="SourceGraphic"/></filter><linearGradient id="d" y1="0.5" x2="1" y2="0.5" gradientUnits="objectBoundingBox"><stop offset="0" stop-color="#6d6e70"/><stop offset="1" stop-color="#bbbdbf"/></linearGradient><linearGradient id="e" x1="0.5" y1="0.992" x2="0.5" y2="0.066" gradientUnits="objectBoundingBox"><stop offset="0"/><stop offset="0.202" stop-color="#020202"/><stop offset="0.309" stop-color="#090a0a"/><stop offset="0.393" stop-color="#171717"/><stop offset="0.466" stop-color="#292a2a"/><stop offset="0.532" stop-color="#414243"/><stop offset="0.591" stop-color="#5f6061"/><stop offset="0.614" stop-color="#6d6e70"/><stop offset="1" stop-color="#fff"/></linearGradient><radialGradient id="f" cx="-38280.43" cy="-17339.922" r="4389.171" gradientTransform="translate(-36536.068 -17489.275) scale(0.084 0.043)" gradientUnits="userSpaceOnUse"><stop offset="0.145" stop-color="#fff"/><stop offset="0.57" stop-color="#d4d4d4"/><stop offset="1" stop-color="#f3f3f3"/></radialGradient><linearGradient id="g" x1="0.5" y1="-0.004" x2="0.5" y2="0.996" gradientUnits="objectBoundingBox"><stop offset="0"/><stop offset="0.461" stop-color="#6d6e70"/><stop offset="1" stop-color="#fff"/></linearGradient><linearGradient id="h" x1="0.794" y1="-0.706" x2="0.214" y2="1.676" gradientUnits="objectBoundingBox"><stop offset="0"/><stop offset="0.122" stop-color="#020202"/><stop offset="0.195" stop-color="#0a0a0a"/><stop offset="0.255" stop-color="#191919"/><stop offset="0.309" stop-color="#2d2d2d"/><stop offset="0.357" stop-color="#474747"/><stop offset="0.403" stop-color="#676768"/><stop offset="0.446" stop-color="#8d8e8e"/><stop offset="0.485" stop-color="#b8b9ba"/><stop offset="0.521" stop-color="#e6e7e8"/><stop offset="0.546" stop-color="#c6c7c8"/><stop offset="0.588" stop-color="#989999"/><stop offset="0.633" stop-color="#6f7070"/><stop offset="0.68" stop-color="#4d4d4d"/><stop offset="0.729" stop-color="#303131"/><stop offset="0.782" stop-color="#1b1b1b"/><stop offset="0.839" stop-color="#0b0b0b"/><stop offset="0.905" stop-color="#020202"/><stop offset="1"/></linearGradient><linearGradient id="i" x1="0.5" y1="0.998" x2="0.5" y2="0.01" gradientUnits="objectBoundingBox"><stop offset="0" stop-color="#009b00"/><stop offset="0.218" stop-color="#00ab00"/><stop offset="0.644" stop-color="#00d600"/><stop offset="1" stop-color="lime"/></linearGradient><linearGradient id="j" x1="0.5" y1="-0.008" x2="0.5" y2="0.999" gradientUnits="objectBoundingBox"><stop offset="0" stop-color="#fff"/><stop offset="1" stop-color="#fff" stop-opacity="0"/></linearGradient></defs><g transform="translate(-852.525 -712.748)"><g transform="translate(986.958 744.798)"><g transform="translate(-104.432 -5.05)"><g class="j" transform="matrix(1, 0, 0, 1, -30, -27)"><path class="a" d="M12.679,0h399.8a12.679,12.679,0,0,1,12.679,12.679V64.936a12.679,12.679,0,0,1-12.679,12.679H12.678A12.678,12.678,0,0,1,0,64.937V12.679A12.679,12.679,0,0,1,12.679,0Z" transform="translate(30 27)"/></g><path class="b" d="M12.38,0H411.334a12.377,12.377,0,0,1,12.377,12.377V63.8a12.378,12.378,0,0,1-12.378,12.378H12.377A12.377,12.377,0,0,1,0,63.8V12.38A12.38,12.38,0,0,1,12.38,0Z" transform="translate(0.721 0.721)"/><path class="c" d="M2091.254,1014.555c0,9.38-10.871,16.981-24.279,16.981H1692.2c-13.4,0-24.269-7.6-24.269-16.981V973.5c0-9.378,10.869-16.983,24.269-16.983h374.772c13.407,0,24.279,7.6,24.279,16.983Z" transform="translate(-1667.191 -955.792)"/><g transform="translate(0.743 0.721)"><path class="d" d="M2091.292,990.446l-.157-21.251c0-7-12.343-12.682-25.551-12.682H1691.85c-13.205,0-23.916,5.681-23.916,12.682v19.959C1693.374,992.9,2060.368,993.193,2091.292,990.446Z" transform="translate(-1667.934 -956.513)"/></g><path class="e" d="M2088.543,1014.956c0,8.09-9.931,14.65-22.188,14.65H1693.2c-12.268,0-22.208-6.56-22.208-14.65v-40.71c0-8.089,9.94-14.655,22.208-14.655h373.159c12.258,0,22.188,6.567,22.188,14.655Z" transform="translate(-1667.191 -955.792)"/><path class="f" d="M10.764,0H405.243a10.765,10.765,0,0,1,10.765,10.765V57.7A10.768,10.768,0,0,1,405.24,68.469H10.765A10.765,10.765,0,0,1,0,57.7V10.764A10.764,10.764,0,0,1,10.764,0Z" transform="translate(4.572 4.573)"/><path class="g" d="M2065.935,961.176H1693.591c-11.608,0-21.017,6.263-21.017,13.991v38.865c0,7.731,9.408,13.991,21.017,13.991h372.344c11.618,0,21.027-6.26,21.027-13.991V975.167C2086.961,967.439,2077.553,961.176,2065.935,961.176Z" transform="translate(-1666.532 -955.974)"/><path class="h" d="M10.038,0H402.5a10.04,10.04,0,0,1,10.04,10.04v6.706a10.04,10.04,0,0,1-10.04,10.04H10.04A10.04,10.04,0,0,1,0,16.746V10.038A10.038,10.038,0,0,1,10.038,0Z" transform="translate(6.307 6.311)"/></g><text class="i" transform="translate(107.974 45.314)"><tspan x="-163.114" y="0">YES, LINK MY ACCOUNT</tspan></text></g></g></svg>