<svg xmlns="http://www.w3.org/2000/svg" xmlns:xlink="http://www.w3.org/1999/xlink" width="333.75" height="362.842" viewBox="0 0 333.75 362.842"><defs><style>.a{fill:#ddb3c6;}.b{fill:#d799be;}.c{fill:#d17fb5;}.d{fill:#dbb1c8;}.e{fill:#fff;}.f{fill:#fcb33f;}.g{fill:#ffd13f;}.h{fill:#ea3c95;}.i{fill:#00b3e8;}.j{fill:#fbb13f;}.k{fill:#f9eb6f;}.l{fill:#f8d832;}.m{fill:#f6ce33;}.n{fill:#efa34b;}.o{fill:#f3c04e;}.p{fill:#932771;}.q{fill:#3b1f5f;}.r{fill:#64449b;}.s{fill:#f6dc7e;}.t{fill:#856baf;}.u{fill:#48429a;}.v{fill:#7357a4;}.w{fill:#9c91b1;}.x{fill:#595785;}.y{fill:#f2f9fc;}.z{fill:#ea70a6;}.aa{fill:#c33c95;}.ab{fill:#ec579f;}.ac,.ai{stroke:rgba(0,0,0,0);}.ac,.ad,.ae,.af,.ai,.aj,.ak,.al{fill-rule:evenodd;}.ac{opacity:0.144;fill:url(#a);}.ad{fill:url(#b);}.ae{fill:url(#e);}.af{fill:url(#f);}.ag{fill:url(#i);}.ah{fill:#edfdff;}.ai{fill:url(#j);}.aj{fill:url(#m);}.ak{fill:url(#n);}.al{fill:url(#p);}.am{opacity:0.193;}.an{fill:#ffca0e;}.ao{fill:#f16865;}.ap{filter:url(#g);}</style><radialGradient id="a" cx="0.5" cy="0.5" r="0.5" gradientUnits="objectBoundingBox"><stop offset="0" stop-color="#fff"/><stop offset="1" stop-color="#fff" stop-opacity="0"/></radialGradient><linearGradient id="b" x1="-0.336" y1="1.06" x2="0.938" y2="0.272" gradientUnits="objectBoundingBox"><stop offset="0" stop-color="#0052bb"/><stop offset="0.251" stop-color="#0052bb"/><stop offset="0.379" stop-color="#195cd6"/><stop offset="0.55" stop-color="#3f6cff"/><stop offset="0.634" stop-color="#477dff"/><stop offset="0.8" stop-color="#5babff"/><stop offset="0.907" stop-color="#6acbff"/><stop offset="1" stop-color="#6acbff"/></linearGradient><linearGradient id="e" x1="-0.336" y1="1.06" x2="0.938" y2="0.272" xlink:href="#b"/><linearGradient id="f" x1="0.214" y1="0.942" x2="0.936" y2="0.363" gradientUnits="objectBoundingBox"><stop offset="0" stop-color="#010d13"/><stop offset="0.1" stop-color="#021018"/><stop offset="0.2" stop-color="#03131d"/><stop offset="0.3" stop-color="#041722"/><stop offset="0.4" stop-color="#051a27"/><stop offset="0.5" stop-color="#061e2c"/><stop offset="0.6" stop-color="#072130"/><stop offset="0.7" stop-color="#082435"/><stop offset="0.8" stop-color="#09283a"/><stop offset="0.9" stop-color="#0a2b3f"/><stop offset="1" stop-color="#0a2e44"/></linearGradient><filter id="g" x="80.634" y="146.336" width="185.624" height="119.566" filterUnits="userSpaceOnUse"><feOffset dy="11" input="SourceAlpha"/><feGaussianBlur stdDeviation="13" result="h"/><feFlood flood-opacity="0.071"/><feComposite operator="in" in2="h"/><feComposite in="SourceGraphic"/></filter><radialGradient id="i" cx="0.5" cy="0.5" r="0.5" gradientUnits="objectBoundingBox"><stop offset="0" stop-color="#008fff"/><stop offset="1" stop-color="#008fff" stop-opacity="0"/></radialGradient><linearGradient id="j" x1="0.036" y1="0.336" x2="1" y2="0.454" xlink:href="#f"/><linearGradient id="m" x1="0.267" y1="0.817" x2="1.012" y2="0" xlink:href="#b"/><linearGradient id="n" x1="0.034" y1="0.104" x2="1.362" y2="0.981" xlink:href="#b"/><linearGradient id="p" x1="0.034" y1="0.896" x2="1.362" y2="0.019" xlink:href="#b"/></defs><g transform="translate(-55.863 401.93)"><g transform="translate(55.863 -401.931)"><path class="a" d="M1012.98-833.564c-.618,5.69-1.128,11.481-.263,17.175.9,5.895,2.319,11.692,3.548,17.521a88.939,88.939,0,0,1,2.232,18.422,48.517,48.517,0,0,1-3.708,17.554c-1.944,5.021-4.281,9.863-5.89,15.014a52.693,52.693,0,0,0-2,15.062,82.7,82.7,0,0,0,5.9,31.758c.568,1.411,2.885.8,2.307-.635a83.193,83.193,0,0,1-5.81-31.122,51.547,51.547,0,0,1,2.58-16.483c1.7-5.1,4.118-9.938,5.995-14.974,4.008-10.763,3.315-21.815,1.181-32.9-1.126-5.84-2.567-11.614-3.633-17.469-1.148-6.3-.726-12.6-.037-18.924C1015.54-835.1,1013.145-835.08,1012.98-833.564Z" transform="translate(-754.966 995.265)"/><path class="b" d="M1025.885-855.151c-1.016,1.432-2.079,2.82-3.08,4.237-.28.394-.658.931-.448,1.464.448,1.139,2.194.157,3.065.481.978.365,1.734,1.017,2.927.618.6-.2.891-.638,1.531-.8.45-.115.853-.062,1.031-.584.288-.848-.7-1.8-.986-2.5a9.215,9.215,0,0,1-1.036-3.451" transform="translate(-766.52 1010.999)"/><path class="b" d="M985.748-1109.557c-.088,21.492-17.834,46.448-26.343,46.448-9.185,0-27.258-28.182-26.343-46.448.731-14.531,11.794-26.343,26.343-26.343A26.3,26.3,0,0,1,985.748-1109.557Z" transform="translate(-699.587 1221.1)"/><path class="c" d="M956.133-1026.824a56.245,56.245,0,0,1-11.026-11.883,56.737,56.737,0,0,1-7.363-13.742,47.689,47.689,0,0,1-1.984-21.941,29.371,29.371,0,0,0-2.7,10.954c-.916,18.267,17.158,46.448,26.343,46.448,2.094,0,4.746-1.513,7.558-4.111A31.4,31.4,0,0,1,956.133-1026.824Z" transform="translate(-699.587 1174.98)"/><path class="d" d="M1047.518-1109.717c5.232,9.362,4.621,19.662-1.364,23.005s-15.072-1.537-20.3-10.9-4.621-19.661,1.364-23S1042.289-1119.08,1047.518-1109.717Z" transform="translate(-766.518 1210.429)"/><path class="e" d="M1052.14-1122.529c1.534-.921,4.829.343,6.225.871,4.238,1.609,8.512,5.867,10.759,9.815,3.15,5.532,4.906,12.688,2.912,19-.18.57-.583-.613-.608-.663a18,18,0,0,1-.931-3.445c-2.339-8.707-6.46-15.75-13.5-21.417C1056.058-1119.121,1050.984-1121.836,1052.14-1122.529Z" transform="translate(-788.769 1211.319)"/><path class="a" d="M413-809.356c-.619,5.69-1.129,11.482-.264,17.176.9,5.892,2.319,11.692,3.548,17.521a88.974,88.974,0,0,1,2.232,18.422,48.55,48.55,0,0,1-3.708,17.554c-1.944,5.021-4.28,9.863-5.891,15.014a52.774,52.774,0,0,0-2,15.062,82.724,82.724,0,0,0,5.9,31.758c.568,1.411,2.883.8,2.307-.635a83.208,83.208,0,0,1-5.811-31.122,51.56,51.56,0,0,1,2.582-16.483c1.7-5.1,4.116-9.938,5.992-14.974,4.009-10.763,3.316-21.815,1.182-32.9-1.125-5.842-2.567-11.614-3.634-17.469-1.148-6.3-.726-12.6-.038-18.925C415.56-810.888,413.165-810.873,413-809.356Z" transform="translate(-305.1 977.114)"/><path class="b" d="M425.9-830.942c-1.015,1.432-2.079,2.821-3.081,4.237-.278.393-.657.931-.447,1.463.449,1.139,2.2.156,3.066.481.978.363,1.732,1.018,2.927.618.6-.2.89-.638,1.53-.8.45-.115.853-.063,1.031-.584.287-.848-.7-1.8-.986-2.5a9.243,9.243,0,0,1-1.037-3.451" transform="translate(-316.651 992.846)"/><path class="b" d="M385.766-1085.347c-.088,21.491-17.835,46.448-26.344,46.448-9.185,0-27.261-28.183-26.344-46.448.73-14.531,11.794-26.343,26.344-26.343A26.306,26.306,0,0,1,385.766-1085.347Z" transform="translate(-249.717 1202.947)"/><path class="c" d="M356.149-1002.615a56.261,56.261,0,0,1-11.026-11.883,56.766,56.766,0,0,1-7.363-13.742,47.666,47.666,0,0,1-1.983-21.941,29.352,29.352,0,0,0-2.7,10.954c-.918,18.266,17.159,46.449,26.344,46.449,2.093,0,4.746-1.513,7.557-4.111A31.385,31.385,0,0,1,356.149-1002.615Z" transform="translate(-249.717 1156.827)"/><path class="d" d="M447.537-1085.511c5.231,9.362,4.621,19.662-1.363,23.005s-15.074-1.538-20.3-10.9-4.62-19.661,1.363-23.006S442.307-1094.873,447.537-1085.511Z" transform="translate(-316.652 1192.28)"/><path class="e" d="M452.157-1098.319c1.533-.921,4.829.343,6.225.871,4.239,1.606,8.51,5.867,10.759,9.815,3.15,5.532,4.906,12.688,2.912,19-.18.57-.581-.613-.607-.663a18.016,18.016,0,0,1-.931-3.448c-2.34-8.7-6.459-15.748-13.5-21.415C456.075-1094.911,451-1097.626,452.157-1098.319Z" transform="translate(-338.901 1193.167)"/><path class="f" d="M105.6-1101.361l5.184-1.669s-2.745,12.5-5.184,12.2l-2.439-.305Z" transform="translate(-77.351 1196.454)"/><path class="g" d="M1.9-1031.167l4.046-1.3s-2.142,9.758-4.046,9.52l-1.9-.238Z" transform="translate(0 1143.548)"/><path class="g" d="M507.621-1439.5l4.046-1.3s-2.142,9.758-4.046,9.52l-1.9-.238Z" transform="translate(-379.188 1449.715)"/><path class="g" d="M402.791-1122.43l3.911,1.669s-8.014,5.965-9.3,4.538l-1.282-1.426Z" transform="translate(-297.015 1211)"/><path class="g" d="M739.5-1379.72l4.128,1.016s-6.951,7.178-8.447,5.975l-1.494-1.2Z" transform="translate(-550.117 1403.917)"/><path class="g" d="M368.452-820.811l4.046-1.3s-2.142,9.759-4.046,9.521l-1.9-.238Z" transform="translate(-274.838 985.823)"/><path class="g" d="M859.957-1300.536l4.046-1.3s-2.142,9.758-4.046,9.52l-1.9-.238Z" transform="translate(-643.37 1345.522)"/><path class="h" d="M236.5-1291.4a28.216,28.216,0,0,1,4.192,8l1.944-1.5c1.568-1.216-2.608-8.477-4.279-11.236A12.035,12.035,0,0,1,236.5-1291.4Z" transform="translate(-177.331 1341.248)"/><path class="h" d="M221.077-837.975a26.9,26.9,0,0,1,2.158-8.342L220.9-846.5c-1.886-.145-3.58,7.663-4.164,10.683A11.468,11.468,0,0,1,221.077-837.975Z" transform="translate(-162.507 1004.106)"/><path class="h" d="M208.083-1148.994a26.922,26.922,0,0,1,2.158-8.342l-2.338-.18c-1.886-.143-3.581,7.664-4.164,10.683A11.478,11.478,0,0,1,208.083-1148.994Z" transform="translate(-152.764 1237.309)"/><path class="h" d="M285.361-1045.9a26.926,26.926,0,0,1-4.43-7.388l-1.768,1.539c-1.427,1.244,2.948,7.929,4.69,10.463A11.505,11.505,0,0,1,285.361-1045.9Z" transform="translate(-209.106 1159.159)"/><path class="i" d="M320.636-1399.894a26.922,26.922,0,0,1,2.158-8.342l-2.337-.18c-1.887-.145-3.581,7.664-4.165,10.683A11.478,11.478,0,0,1,320.636-1399.894Z" transform="translate(-237.156 1425.434)"/><path class="i" d="M119.67-929.26a26.918,26.918,0,0,1-7.714-3.841l-.66,2.25c-.532,1.816,6.754,5.092,9.587,6.289A11.47,11.47,0,0,1,119.67-929.26Z" transform="translate(-83.429 1069.041)"/><path class="i" d="M170.288-696.274a26.95,26.95,0,0,1,2.158-8.344l-2.338-.178c-1.886-.145-3.581,7.664-4.164,10.683A11.471,11.471,0,0,1,170.288-696.274Z" transform="translate(-124.425 897.859)"/><path class="h" d="M656.073-1471.694a28.242,28.242,0,0,1,4.193,8l1.944-1.506c1.566-1.216-2.61-8.477-4.281-11.234A12.012,12.012,0,0,1,656.073-1471.694Z" transform="translate(-491.925 1476.43)"/><path class="i" d="M613.728-1370.554a26.918,26.918,0,0,1-5.076-6.966l-1.622,1.694c-1.309,1.366,3.647,7.631,5.61,10A11.479,11.479,0,0,1,613.728-1370.554Z" transform="translate(-454.989 1402.267)"/><path class="i" d="M389.944-1282.18a26.929,26.929,0,0,1-8.022,3.145l1.226,2c.99,1.611,8.306-1.6,11.095-2.895A11.493,11.493,0,0,1,389.944-1282.18Z" transform="translate(-286.366 1330.781)"/><path class="f" d="M279.038-286.739l5.183-1.671s-2.744,12.5-5.183,12.2l-2.439-.305Z" transform="translate(-207.394 585.65)"/><path class="g" d="M268.584-576.266l4.046-1.3s-2.142,9.758-4.046,9.52l-1.9-.238Z" transform="translate(-199.957 802.463)"/><path class="g" d="M483.836-398.869l4.046-1.3s-2.142,9.758-4.046,9.52l-1.9-.238Z" transform="translate(-361.353 669.448)"/><path class="j" d="M406.1-696.158c2.3,3.823,1.508,8.915,1.508,8.915l2.312-.831c1.716-.621.388-7.6-.412-11.156C408.351-698.227,407.223-697.193,406.1-696.158Z" transform="translate(-304.491 893.684)"/><path class="j" d="M144.214-267.848c2.3,3.823,1.509,8.917,1.509,8.917l2.312-.836c1.716-.618.388-7.594-.413-11.154C146.47-269.917,145.341-268.883,144.214-267.848Z" transform="translate(-108.132 572.536)"/><path class="h" d="M393.593-352.291a28.217,28.217,0,0,1,4.192,8l1.944-1.506c1.568-1.213-2.608-8.474-4.279-11.234A12.037,12.037,0,0,1,393.593-352.291Z" transform="translate(-295.117 637.102)"/><path class="h" d="M516.548-621.794a28.243,28.243,0,0,1,4.192,8l1.943-1.506c1.568-1.214-2.607-8.477-4.279-11.234A12.019,12.019,0,0,1,516.548-621.794Z" transform="translate(-387.309 839.173)"/><path class="h" d="M157.864-451.244a26.909,26.909,0,0,1,2.158-8.342l-2.338-.18c-1.886-.143-3.581,7.664-4.165,10.683A11.477,11.477,0,0,1,157.864-451.244Z" transform="translate(-115.11 714.135)"/><path class="h" d="M434.332-137.967a26.943,26.943,0,0,1,2.157-8.342l-2.337-.178c-1.887-.145-3.581,7.661-4.165,10.683A11.482,11.482,0,0,1,434.332-137.967Z" transform="translate(-322.405 479.237)"/><path class="h" d="M545.027-227.349a26.925,26.925,0,0,1-4.43-7.391l-1.768,1.541c-1.427,1.241,2.948,7.926,4.69,10.461A11.477,11.477,0,0,1,545.027-227.349Z" transform="translate(-403.804 545.408)"/><path class="i" d="M406.88-516.76c-1.32,2.239-2.4,7.276-2.844,9.568a12.994,12.994,0,0,1,2.844-1.664Z" transform="translate(-302.947 756.868)"/><path class="i" d="M694.395-277.249a26.934,26.934,0,0,1-7.714-3.841l-.66,2.249c-.53,1.816,6.755,5.092,9.588,6.29A11.5,11.5,0,0,1,694.395-277.249Z" transform="translate(-514.359 580.162)"/><path class="i" d="M967.144-57.991a26.913,26.913,0,0,1,7.69-3.881l-1.406-1.876c-1.136-1.511-8.121,2.367-10.775,3.921A11.5,11.5,0,0,1,967.144-57.991Z" transform="translate(-721.799 417.456)"/><path class="g" d="M1286.2-1000.605l4.046-1.3s-2.142,9.76-4.046,9.522l-1.9-.238Z" transform="translate(-962.971 1120.634)"/><path class="g" d="M1274.307-729.176l4.046-1.3s-2.142,9.758-4.046,9.52l-1.906-.238Z" transform="translate(-954.048 917.115)"/><path class="g" d="M1150.594-506.4l4.048-1.306s-2.144,9.76-4.048,9.523l-1.9-.24Z" transform="translate(-861.29 750.082)"/><path class="j" d="M1129.22-1276.408c2.3,3.823,1.509,8.915,1.509,8.915l2.312-.833c1.716-.618.388-7.594-.413-11.154C1131.477-1278.477,1130.348-1277.443,1129.22-1276.408Z" transform="translate(-846.691 1328.756)"/><path class="h" d="M1226.116-1178.864a26.913,26.913,0,0,1,2.157-8.344l-2.337-.178c-1.886-.145-3.58,7.661-4.166,10.681A11.466,11.466,0,0,1,1226.116-1178.864Z" transform="translate(-916.086 1259.706)"/><path class="h" d="M1150.1-600.044a26.887,26.887,0,0,1,2.157-8.342l-2.337-.18c-1.886-.145-3.58,7.664-4.166,10.683A11.469,11.469,0,0,1,1150.1-600.044Z" transform="translate(-859.086 825.705)"/><path class="i" d="M1004.008-1325.874a26.915,26.915,0,0,1,2.157-8.344l-2.337-.178c-1.886-.145-3.58,7.661-4.165,10.681A11.493,11.493,0,0,1,1004.008-1325.874Z" transform="translate(-749.549 1369.934)"/><path class="i" d="M1151.845-803.191a26.923,26.923,0,0,1-5.076-6.965l-1.621,1.693c-1.311,1.366,3.645,7.631,5.609,10A11.472,11.472,0,0,1,1151.845-803.191Z" transform="translate(-858.471 976.856)"/><path class="i" d="M962.082-758.42a26.937,26.937,0,0,1-8.339,2.167l.978,2.129c.791,1.719,8.437-.593,11.361-1.551A11.457,11.457,0,0,1,962.082-758.42Z" transform="translate(-715.118 938.065)"/><path class="h" d="M1017.249-1214.282a28.245,28.245,0,0,1,8.286-3.6l-1.361-2.047c-1.1-1.651-8.644,1.989-11.514,3.455A12,12,0,0,1,1017.249-1214.282Z" transform="translate(-759.294 1284.422)"/><path class="h" d="M861.766-1396.614a26.936,26.936,0,0,1,2.159-8.342l-2.339-.18c-1.886-.143-3.58,7.663-4.163,10.683A11.478,11.478,0,0,1,861.766-1396.614Z" transform="translate(-642.897 1422.975)"/><path class="h" d="M712.542-621.935a28.208,28.208,0,0,1,8.287-3.6l-1.361-2.047c-1.1-1.651-8.642,1.987-11.514,3.455A12.03,12.03,0,0,1,712.542-621.935Z" transform="translate(-530.825 840.278)"/><path class="g" d="M876.168-357.26l3.913,1.666s-8.014,5.97-9.3,4.541l-1.281-1.429Z" transform="translate(-651.955 637.274)"/><path class="h" d="M899.274-892.776a1.21,1.21,0,0,1-.863-.862c-.03-.187-.062-.372-.093-.558a9.6,9.6,0,0,1-.505.842,28.249,28.249,0,0,1,4.191,8l1.941-1.506c.866-.669-.017-3.175-1.261-5.751C902.034-892.3,901-892.3,899.274-892.776Z" transform="translate(-673.182 1039.87)"/><path class="h" d="M891.909-630.834a26.887,26.887,0,0,1,2.157-8.342l-2.337-.18c-1.886-.145-3.58,7.664-4.166,10.683A11.506,11.506,0,0,1,891.909-630.834Z" transform="translate(-665.497 848.792)"/><path class="i" d="M1045.006-889.348a26.889,26.889,0,0,1,2.157-8.342l-2.337-.179c-1.886-.144-3.58,7.663-4.166,10.683A11.468,11.468,0,0,1,1045.006-889.348Z" transform="translate(-780.289 1042.626)"/><path class="i" d="M718.966-784.954a26.935,26.935,0,0,1,2.159-8.342l-2.337-.18c-1.886-.143-3.583,7.664-4.166,10.683A11.477,11.477,0,0,1,718.966-784.954Z" transform="translate(-535.826 964.351)"/><path class="k" d="M802.5-884.034c-.8,7.306-1.449,14.743-.338,22.056,1.148,7.568,2.977,15.014,4.554,22.5a114.015,114.015,0,0,1,2.867,23.656c-.008,7.841-1.952,15.28-4.761,22.54-2.495,6.45-5.494,12.668-7.563,19.28-1.957,6.257-2.479,12.82-2.572,19.343a106.234,106.234,0,0,0,7.571,40.78c.731,1.814,3.7,1.023,2.962-.816a106.834,106.834,0,0,1-7.461-39.964,66.217,66.217,0,0,1,3.315-21.167c2.187-6.548,5.287-12.763,7.694-19.23,5.149-13.821,4.261-28.012,1.519-42.246-1.444-7.5-3.3-14.914-4.666-22.43-1.474-8.093-.931-16.18-.047-24.3C805.792-886,802.717-885.982,802.5-884.034Z" transform="translate(-595.853 1033.352)"/><path class="l" d="M819.072-911.756c-1.3,1.839-2.67,3.622-3.956,5.44-.358.505-.843,1.2-.575,1.88.578,1.463,2.82.2,3.938.618,1.256.468,2.224,1.306,3.758.793.766-.255,1.143-.82,1.967-1.029.578-.147,1.1-.079,1.324-.75.37-1.089-.9-2.309-1.266-3.214a11.843,11.843,0,0,1-1.331-4.432" transform="translate(-610.687 1053.555)"/><path class="l" d="M767.532-1238.451c-.113,27.6-22.9,59.646-33.829,59.646-11.794,0-35.008-36.19-33.829-59.646.938-18.66,15.145-33.829,33.829-33.829A33.783,33.783,0,0,1,767.532-1238.451Z" transform="translate(-524.734 1323.358)"/><path class="m" d="M729.5-1132.209a72.2,72.2,0,0,1-14.159-15.26,72.866,72.866,0,0,1-9.457-17.644,61.223,61.223,0,0,1-2.544-28.177,37.7,37.7,0,0,0-3.465,14.066c-1.178,23.456,22.035,59.646,33.829,59.646,2.687,0,6.095-1.943,9.705-5.278A40.312,40.312,0,0,1,729.5-1132.209Z" transform="translate(-524.734 1264.131)"/><path class="k" d="M846.855-1238.657c6.718,12.025,5.932,25.25-1.751,29.543s-19.355-1.974-26.073-14-5.932-25.248,1.751-29.541S840.14-1250.679,846.855-1238.657Z" transform="translate(-610.687 1309.656)"/><path class="e" d="M852.788-1255.105c1.969-1.181,6.2.44,7.994,1.121,5.442,2.062,10.929,7.534,13.816,12.6,4.046,7.1,6.3,16.29,3.738,24.394-.23.733-.746-.786-.778-.848a23.09,23.09,0,0,1-1.2-4.428c-3-11.179-8.294-20.224-17.341-27.5C857.82-1250.729,851.3-1254.214,852.788-1255.105Z" transform="translate(-639.259 1310.794)"/><path class="k" d="M243.57-792.218c-.618,5.689-1.128,11.482-.263,17.176.9,5.892,2.319,11.692,3.547,17.521a88.917,88.917,0,0,1,2.232,18.422,48.549,48.549,0,0,1-3.707,17.554c-1.944,5.022-4.28,9.863-5.891,15.012a52.821,52.821,0,0,0-2,15.064,82.692,82.692,0,0,0,5.9,31.755c.568,1.414,2.883.8,2.308-.636a83.165,83.165,0,0,1-5.812-31.12,51.584,51.584,0,0,1,2.582-16.483c1.7-5.1,4.117-9.94,5.992-14.974,4.009-10.763,3.316-21.815,1.182-32.9-1.124-5.842-2.567-11.617-3.634-17.469-1.148-6.3-.725-12.6-.037-18.925C246.13-793.751,243.735-793.734,243.57-792.218Z" transform="translate(-178.061 964.264)"/><path class="l" d="M256.472-813.8c-1.015,1.432-2.08,2.819-3.081,4.235-.278.4-.657.931-.447,1.466.449,1.138,2.195.155,3.066.48.978.365,1.732,1.018,2.927.618.6-.2.891-.638,1.531-.8.45-.115.853-.063,1.03-.585.288-.848-.7-1.8-.985-2.5a9.234,9.234,0,0,1-1.037-3.451" transform="translate(-189.612 979.997)"/><path class="l" d="M216.336-1068.207c-.088,21.492-17.836,46.447-26.344,46.447-9.185,0-27.261-28.181-26.344-46.447.73-14.531,11.794-26.343,26.344-26.343A26.306,26.306,0,0,1,216.336-1068.207Z" transform="translate(-122.679 1190.096)"/><path class="m" d="M186.719-985.475a56.262,56.262,0,0,1-11.027-11.883,56.743,56.743,0,0,1-7.363-13.742,47.652,47.652,0,0,1-1.983-21.94,29.339,29.339,0,0,0-2.7,10.953c-.917,18.267,17.159,46.447,26.344,46.447,2.094,0,4.746-1.512,7.557-4.11A31.377,31.377,0,0,1,186.719-985.475Z" transform="translate(-122.679 1143.975)"/><path class="k" d="M278.107-1068.367c5.231,9.362,4.62,19.662-1.363,23s-15.074-1.537-20.3-10.9-4.62-19.664,1.363-23S272.876-1077.73,278.107-1068.367Z" transform="translate(-189.612 1179.425)"/><path class="e" d="M282.727-1081.179c1.533-.921,4.829.343,6.224.871,4.239,1.606,8.511,5.867,10.76,9.815,3.15,5.529,4.906,12.686,2.912,19-.18.57-.581-.613-.607-.662a17.945,17.945,0,0,1-.931-3.448c-2.341-8.7-6.459-15.748-13.5-21.415C286.645-1077.774,281.572-1080.486,282.727-1081.179Z" transform="translate(-211.862 1180.315)"/><path class="n" d="M576.563-643.59c-1.662.033-6.769.423-8,3.886v3.047c.175-.555,1.942-3.793,8-3.708Z" transform="translate(-426.311 851.965)"/><path class="n" d="M568.533-611.125s-.386-2,5.873-3.062,7.023-2.722,7.023-2.722v3.88a21.266,21.266,0,0,1-9.553,2.57Z" transform="translate(-426.284 831.96)"/><path class="o" d="M568.547-628.882v3.728s9.074-1.308,12.9,2.95v-3.881S579.719-630.213,568.547-628.882Z" transform="translate(-426.298 841.135)"/><path class="n" d="M568.533-576.825s-.386-2,5.873-3.062,7.023-2.722,7.023-2.722v3.883a21.3,21.3,0,0,1-9.553,2.57Z" transform="translate(-426.284 806.242)"/><path class="o" d="M568.547-594.582v3.728s9.074-1.311,12.9,2.952v-3.883S579.719-595.913,568.547-594.582Z" transform="translate(-426.298 815.417)"/><path class="n" d="M568.533-542.523s-.386-2,5.873-3.062,7.023-2.725,7.023-2.725v3.883a21.266,21.266,0,0,1-9.553,2.57Z" transform="translate(-426.284 780.524)"/><path class="n" d="M604.982-510.127s-.41,2.662-5.041,1.641v-3.127s5.041,1.486,5.041-2.4Z" transform="translate(-449.837 754.806)"/><path class="o" d="M568.547-525.973v3.728s9.074-1.311,12.9,2.95v-3.883S579.719-527.3,568.547-525.973Z" transform="translate(-426.298 763.974)"/><path class="o" d="M568.547-560.282v3.73s9.074-1.311,12.9,2.95v-3.883S579.719-561.613,568.547-560.282Z" transform="translate(-426.298 789.699)"/><path class="p" d="M20.595-781.856c-.9-.433-4.926-.535-6.01,1.344a25.958,25.958,0,0,0-.792,3.068,4.363,4.363,0,0,1,5.831-2.024A18.292,18.292,0,0,1,20.595-781.856Z" transform="translate(-10.342 955.834)"/><path class="p" d="M11.9-753.679c-.022.048-.262-2.184,3.839-2.76,4.055-.543,4.738-1.441,4.747-1.471a17.664,17.664,0,0,0-.339,2.7,17.992,17.992,0,0,1-6.089,2.1C13.339-753.284,12.619-753.474,11.9-753.679Z" transform="translate(-8.917 937.682)"/><path class="h" d="M14.211-775.73a25.911,25.911,0,0,0-.917,3.755c.08-.19,5.737.2,7.906,3.4a17.664,17.664,0,0,1,.339-2.7C21.433-771.156,21.269-774.484,14.211-775.73Z" transform="translate(-9.968 951.044)"/><path class="p" d="M18.175-727.4c0,.053-.953-1.964,2.735-3.838,3.658-1.826,4.009-2.875,4.007-2.907a17.9,17.9,0,0,0,.556,2.615A18.13,18.13,0,0,1,20.4-727.58Q19.292-727.463,18.175-727.4Z" transform="translate(-13.543 919.867)"/><path class="h" d="M11.93-741.78a26.088,26.088,0,0,0,.371,3.745c.013-.2,5.489-1.686,8.574.583a17.9,17.9,0,0,1-.556-2.615C20.262-739.934,19-742.921,11.93-741.78Z" transform="translate(-8.945 925.783)"/><path class="p" d="M34.591-703.053c.012.05-1.564-1.569,1.309-4.549,2.856-2.93,2.848-4.038,2.836-4.068a17.714,17.714,0,0,0,1.385,2.307,18.133,18.133,0,0,1-3.481,5.427Q35.63-703.471,34.591-703.053Z" transform="translate(-25.621 903.011)"/><path class="p" d="M66.551-690.7c-.049,0,1.526,1.289-.661,3.408a20.943,20.943,0,0,1-2.2-1.531c.079.013,2.76-1.821.716-3.648A17.837,17.837,0,0,0,66.551-690.7Z" transform="translate(-47.752 888.615)"/><path class="h" d="M35.852-689.037a25.767,25.767,0,0,0,2.67,2.772c-.108-.165,3.218-4.751,7.16-4.814a17.849,17.849,0,0,1-2.15-1.771C43.561-692.712,40.7-694.318,35.852-689.037Z" transform="translate(-26.882 888.995)"/><path class="h" d="M18.512-712.638a26.049,26.049,0,0,0,1.566,3.418c-.05-.19,4.633-3.393,8.3-2.232A17.882,17.882,0,0,1,27-713.759C26.983-713.619,24.827-716.021,18.512-712.638Z" transform="translate(-13.88 905.1)"/><path class="q" d="M302.977-398.076c.779-.628,2.6-4.218,1.364-6a25.843,25.843,0,0,0-2.431-2.029,4.36,4.36,0,0,1-.673,6.135A18.444,18.444,0,0,1,302.977-398.076Z" transform="translate(-225.869 673.902)"/><path class="q" d="M277.888-417.425c-.035-.04,2.085.7.848,4.651-1.25,3.9-.733,4.9-.708,4.919a17.67,17.67,0,0,0-2.292-1.464,17.982,17.982,0,0,1,.717-6.4Q277.146-416.585,277.888-417.425Z" transform="translate(-206.717 682.387)"/><path class="r" d="M285.317-405.291a25.9,25.9,0,0,0-3-2.439c.137.153-2.645,5.094-6.462,5.682a17.672,17.672,0,0,1,2.292,1.464C278.087-400.729,281.164-399.448,285.317-405.291Z" transform="translate(-206.836 675.117)"/><path class="q" d="M248.706-425.982c-.045-.027,2.183-.018,2.292,4.116.082,4.086.879,4.854.909,4.866a17.566,17.566,0,0,0-2.6-.618,18.163,18.163,0,0,1-1.4-6.285C248.157-424.6,248.422-425.293,248.706-425.982Z" transform="translate(-185.883 688.805)"/><path class="r" d="M261.238-421.229A26.127,26.127,0,0,0,257.7-422.5c.173.1-.831,5.682-4.2,7.5a17.567,17.567,0,0,1,2.6.618C256-414.5,259.236-414.349,261.238-421.229Z" transform="translate(-190.068 686.191)"/><path class="q" d="M216.345-423.343c-.051-.01,2.089-.741,3.549,3.135,1.421,3.836,2.425,4.3,2.458,4.3a18.206,18.206,0,0,0-2.677.265,18.156,18.156,0,0,1-3.41-5.472Q216.277-422.226,216.345-423.343Z" transform="translate(-162.156 686.869)"/><path class="q" d="M198.733-394.337c.018-.045-1.819.826-2.8-2.059a21.01,21.01,0,0,1,2.329-1.334c-.046.065.461,3.275,2.988,2.212A17.624,17.624,0,0,0,198.733-394.337Z" transform="translate(-146.914 667.619)"/><path class="r" d="M205.649-423.16A25.961,25.961,0,0,0,202-421.937c.2-.027,2.912,4.944,1.279,8.532a17.625,17.625,0,0,1,2.52-1.181C205.664-414.618,208.343-416.52,205.649-423.16Z" transform="translate(-151.46 686.686)"/><path class="r" d="M235.2-426.259a26.18,26.18,0,0,0-3.76-.053c.193.037,1.077,5.642-1.544,8.459a18.223,18.223,0,0,1,2.677-.265C232.448-418.187,235.545-419.1,235.2-426.259Z" transform="translate(-172.374 689.082)"/><path class="n" d="M1290.419-886.454c-1.664.034-6.771.423-8,3.887v3.049c.175-.558,1.942-3.8,8-3.709Z" transform="translate(-961.561 1034.065)"/><path class="n" d="M1282.386-853.99s-.385-2,5.872-3.062,7.023-2.724,7.023-2.724v3.883a21.29,21.29,0,0,1-9.552,2.569Z" transform="translate(-961.532 1014.062)"/><path class="o" d="M1282.4-871.744v3.728s9.075-1.31,12.9,2.951v-3.883S1293.571-873.076,1282.4-871.744Z" transform="translate(-961.546 1023.234)"/><path class="n" d="M1282.386-819.684s-.385-2,5.872-3.064,7.023-2.724,7.023-2.724v3.883a21.3,21.3,0,0,1-9.552,2.57Z" transform="translate(-961.532 988.34)"/><path class="o" d="M1282.4-837.442v3.728s9.075-1.31,12.9,2.951v-3.883S1293.571-838.773,1282.4-837.442Z" transform="translate(-961.546 997.514)"/><path class="n" d="M1282.386-785.383s-.385-2,5.872-3.062,7.023-2.725,7.023-2.725v3.883a21.267,21.267,0,0,1-9.552,2.569Z" transform="translate(-961.532 962.621)"/><path class="n" d="M1318.832-752.987s-.41,2.662-5.042,1.641v-3.128s5.042,1.486,5.042-2.4Z" transform="translate(-985.082 936.903)"/><path class="o" d="M1282.4-768.833v3.728s9.075-1.311,12.9,2.95v-3.883S1293.571-770.164,1282.4-768.833Z" transform="translate(-961.546 946.07)"/><path class="o" d="M1282.4-803.134v3.728s9.075-1.311,12.9,2.95v-3.883S1293.571-804.467,1282.4-803.134Z" transform="translate(-961.546 971.79)"/><path class="p" d="M884.916-654.371c-.9-.435-4.926-.538-6.012,1.344a26.266,26.266,0,0,0-.791,3.065,4.359,4.359,0,0,1,5.83-2.022A18.239,18.239,0,0,1,884.916-654.371Z" transform="translate(-658.411 860.247)"/><path class="p" d="M876.224-626.2c-.023.05-.263-2.182,3.838-2.76,4.056-.543,4.739-1.439,4.746-1.471a17.7,17.7,0,0,0-.338,2.7,17.953,17.953,0,0,1-6.09,2.1C877.66-625.8,876.939-625.991,876.224-626.2Z" transform="translate(-656.987 842.098)"/><path class="h" d="M878.529-648.25a25.9,25.9,0,0,0-.916,3.755c.08-.19,5.737.205,7.906,3.4a17.707,17.707,0,0,1,.338-2.7C885.752-643.674,885.589-647,878.529-648.25Z" transform="translate(-658.036 855.459)"/><path class="p" d="M882.495-599.917c-.005.052-.953-1.964,2.735-3.836,3.658-1.829,4.008-2.877,4.006-2.907a17.836,17.836,0,0,0,.558,2.612,18.15,18.15,0,0,1-5.077,3.958C883.981-600.015,883.238-599.957,882.495-599.917Z" transform="translate(-661.612 824.275)"/><path class="h" d="M876.253-614.3a26.029,26.029,0,0,0,.37,3.745c.012-.2,5.489-1.684,8.574.583a17.851,17.851,0,0,1-.558-2.612C884.585-612.451,883.326-615.44,876.253-614.3Z" transform="translate(-657.016 830.198)"/><path class="p" d="M898.91-575.563c.01.05-1.564-1.571,1.308-4.551,2.857-2.93,2.85-4.038,2.835-4.066a18.144,18.144,0,0,0,1.386,2.3,18.025,18.025,0,0,1-3.48,5.427Q899.95-575.984,898.91-575.563Z" transform="translate(-673.689 807.419)"/><path class="p" d="M930.87-563.211c-.05,0,1.524,1.288-.663,3.408a20.914,20.914,0,0,1-2.2-1.531c.08.012,2.762-1.819.716-3.645A17.83,17.83,0,0,0,930.87-563.211Z" transform="translate(-695.818 793.023)"/><path class="h" d="M900.173-561.55a26.294,26.294,0,0,0,2.67,2.772c-.108-.168,3.218-4.751,7.161-4.816a17.831,17.831,0,0,1-2.152-1.769C907.882-565.228,905.017-566.832,900.173-561.55Z" transform="translate(-674.952 793.406)"/><path class="h" d="M882.833-585.155a25.824,25.824,0,0,0,1.566,3.418c-.05-.188,4.634-3.39,8.3-2.232a18.143,18.143,0,0,1-1.386-2.3C891.3-586.133,889.148-588.538,882.833-585.155Z" transform="translate(-661.95 809.513)"/><path class="q" d="M1062.5-137.834c.778-.628,2.595-4.221,1.364-6a25.833,25.833,0,0,0-2.432-2.032,4.358,4.358,0,0,1-.673,6.135A18.3,18.3,0,0,1,1062.5-137.834Z" transform="translate(-795.36 478.773)"/><path class="q" d="M1037.412-157.184c-.035-.04,2.084.7.848,4.651-1.251,3.9-.733,4.9-.708,4.919a17.826,17.826,0,0,0-2.292-1.461,17.975,17.975,0,0,1,.716-6.4Q1036.67-156.346,1037.412-157.184Z" transform="translate(-776.21 487.258)"/><path class="r" d="M1044.843-145.051a26.1,26.1,0,0,0-3-2.439c.138.155-2.645,5.094-6.463,5.684a17.819,17.819,0,0,1,2.292,1.461C1037.612-140.489,1040.689-139.208,1044.843-145.051Z" transform="translate(-776.33 479.988)"/><path class="q" d="M1008.226-165.742c-.042-.028,2.184-.018,2.294,4.116.083,4.088.878,4.856.908,4.866a17.927,17.927,0,0,0-2.6-.618,18.138,18.138,0,0,1-1.4-6.282C1007.678-164.358,1007.943-165.053,1008.226-165.742Z" transform="translate(-755.373 493.676)"/><path class="r" d="M1020.766-160.989a26.457,26.457,0,0,0-3.543-1.271c.173.1-.831,5.682-4.2,7.5a17.929,17.929,0,0,1,2.6.618C1015.522-154.254,1018.762-154.109,1020.766-160.989Z" transform="translate(-759.564 491.063)"/><path class="q" d="M975.873-163.1c-.05-.01,2.089-.738,3.548,3.135,1.421,3.836,2.427,4.3,2.459,4.306a17.869,17.869,0,0,0-2.676.263,18.108,18.108,0,0,1-3.41-5.472C975.8-161.61,975.828-162.356,975.873-163.1Z" transform="translate(-731.652 491.739)"/><path class="q" d="M958.26-134.1c.018-.045-1.819.828-2.8-2.057a21.073,21.073,0,0,1,2.329-1.336c-.045.065.46,3.275,2.987,2.212A17.692,17.692,0,0,0,958.26-134.1Z" transform="translate(-716.408 472.49)"/><path class="r" d="M965.173-162.92a26.058,26.058,0,0,0-3.65,1.223c.2-.028,2.912,4.944,1.281,8.532a17.694,17.694,0,0,1,2.52-1.181C965.188-154.378,967.868-156.277,965.173-162.92Z" transform="translate(-720.952 491.558)"/><path class="r" d="M994.724-166.017a25.792,25.792,0,0,0-3.757-.05c.193.035,1.076,5.639-1.544,8.457a17.867,17.867,0,0,1,2.676-.263C991.977-157.946,995.074-158.862,994.724-166.017Z" transform="translate(-741.871 493.952)"/><path class="s" d="M302.8-737.484c-1.388-.823-2.868-1.7-4.349-2.574-1.493-.856-2.986-1.711-4.386-2.512-.305-.178-.606-.345-.9-.513l15.809,1.636-14.886-4.426c.157-.01.31-.02.468-.032l4.213-.323c1.432-.135,2.864-.27,4.206-.4s2.592-.285,3.665-.4c2.144-.25,3.569-.46,3.569-.46s-1.44.035-3.6.153c-1.076.07-2.334.125-3.679.23l-4.212.323-4.207.4c-.348.032-.688.068-1.022.1l13.071-8.832-14.052,6.778c.219-.29.44-.583.664-.883,1.065-1.431,2.2-2.955,3.338-4.481,1.117-1.541,2.233-3.08,3.28-4.524s1.993-2.815,2.819-3.978c1.637-2.337,2.691-3.923,2.691-3.923s-1.2,1.481-2.941,3.74c-.863,1.136-1.891,2.447-2.954,3.878s-2.2,2.955-3.339,4.481c-1.116,1.539-2.233,3.077-3.279,4.523-.388.533-.756,1.051-1.115,1.559l-.027-.025,4.286-16.065-6.216,13.989c.093-1.439.191-2.955.289-4.479.08-1.616.159-3.235.234-4.751s.106-2.932.152-4.146c.071-2.429.075-4.053.075-4.053s-.181,1.614-.385,4.033c-.091,1.214-.224,2.625-.319,4.141s-.2,3.13-.306,4.746c-.079,1.619-.158,3.235-.233,4.751-.011.22-.019.43-.028.646a4.342,4.342,0,0,0-.545-.042l-6.591-14.834,3.468,13.991c-.127-.163-.251-.325-.381-.49-1.011-1.293-2.089-2.675-3.168-4.053l-3.225-4.006c-1.027-1.281-2.021-2.449-2.854-3.465-1.684-2.014-2.842-3.333-2.842-3.333s1.019,1.429,2.6,3.525c.8,1.043,1.71,2.277,2.723,3.57s2.089,2.67,3.168,4.051l3.225,4.006c.345.428.683.841,1.015,1.243l.165.663-.009.005L271.43-755.11l12.591,9.167c-1.238-.15-2.524-.3-3.822-.458l-4.461-.463c-1.424-.15-2.757-.245-3.9-.35-2.283-.188-3.81-.27-3.81-.27s1.507.258,3.776.578c1.135.15,2.457.35,3.879.518s2.936.353,4.453.533l3.675.383-14.794,4.026L283.2-741.9c-.439.225-.886.455-1.343.7l-4.947,2.595L272-735.95c-1.569.848-3.013,1.676-4.261,2.367-2.486,1.4-4.122,2.372-4.122,2.372s1.72-.816,4.268-2.1c1.27-.651,2.762-1.386,4.34-2.217s3.263-1.711,4.947-2.6c1.672-.906,3.344-1.809,4.913-2.66.648-.35,1.268-.693,1.869-1.028l-8,12.382,10.635-10.6-2.351,4.686-3.094,6.3-3.029,6.335c-.969,2.019-1.833,3.923-2.595,5.547-1.5,3.255-2.466,5.444-2.466,5.444s1.123-2.112,2.746-5.309c.8-1.6,1.761-3.463,2.746-5.474s2.041-4.156,3.094-6.3c1.031-2.154,2.062-4.311,3.029-6.332.81-1.731,1.568-3.353,2.246-4.8L289-724.686l1.179-15.422q.27.89.55,1.811c.714,2.289,1.477,4.729,2.239,7.171.786,2.432,1.572,4.866,2.308,7.146.754,2.277,1.459,4.4,2.063,6.22,1.225,3.635,2.083,6.045,2.083,6.045s-.69-2.462-1.787-6.137c-.557-1.836-1.207-3.978-1.9-6.27-.715-2.289-1.477-4.729-2.239-7.171-.786-2.432-1.572-4.866-2.309-7.146q-.309-.935-.606-1.826l11.46,10.836-9.446-13.461,0-.01c.4.245.811.49,1.235.743,1.388.821,2.868,1.7,4.348,2.575l4.385,2.512c1.4.8,2.726,1.516,3.852,2.147,2.263,1.241,3.795,2.032,3.795,2.032s-1.442-.943-3.639-2.3C305.466-735.862,304.192-736.663,302.8-737.484Z" transform="translate(-197.661 944.85)"/><path class="s" d="M408.151-580.56l-1.4.733-1.4-.733.267,1.556-1.131,1.1,1.563.228.7,1.416.7-1.416,1.564-.228-1.132-1.1Z" transform="translate(-303.287 804.705)"/><path class="s" d="M442.354-746.933l.7,1.416.7-1.416,1.564-.228-1.132-1.1.268-1.556-1.4.736-1.4-.736.267,1.556-1.131,1.1Z" transform="translate(-330.506 931.616)"/><path class="s" d="M288.607-572.221l.267-1.559-1.4.738-1.4-.738.268,1.559-1.132,1.1,1.563.23.7,1.416.7-1.416,1.563-.23Z" transform="translate(-213.853 799.621)"/><path class="s" d="M394.289-768.321l.462.933.462-.933,1.033-.15-.747-.731.176-1.028-.924.485-.923-.485L394-769.2l-.747.731Z" transform="translate(-294.865 946.92)"/><path class="s" d="M314.534-762.641l.461.936.462-.936,1.033-.15-.747-.731.177-1.028-.924.488-.923-.488.176,1.028-.747.731Z" transform="translate(-235.064 942.661)"/><path class="s" d="M256.938-694.982l.176-1.028-.923.485-.924-.485.176,1.028-.747.728,1.033.15.462.936.461-.936,1.033-.15Z" transform="translate(-190.972 891.27)"/><path class="s" d="M448.726-643.59l-.785.41-.784-.41.15.871-.635.621.877.128.392.8.393-.8.877-.128-.634-.621Z" transform="translate(-334.916 851.965)"/><path class="s" d="M398.1-594.849l.393.8.393-.8.877-.128-.634-.618.149-.876-.784.415-.784-.415.15.876-.635.618Z" transform="translate(-297.84 816.634)"/><path class="s" d="M268.644-641.971l.392.8.393-.8.877-.128-.635-.621.149-.871-.785.41-.784-.41.15.871-.635.621Z" transform="translate(-200.771 851.965)"/><path class="s" d="M320.743-745.637l-.784-.413.15.873-.635.62.877.128.393.793.392-.793.878-.128-.635-.62.15-.873Z" transform="translate(-239.541 928.79)"/><path class="s" d="M682.889-1373.874c-1.386-.823-2.867-1.7-4.348-2.577l-4.386-2.512c-.305-.175-.605-.343-.9-.51l15.81,1.636-14.887-4.426c.155-.01.308-.02.468-.032l4.213-.323,4.206-.4c1.344-.123,2.592-.283,3.665-.4,2.144-.25,3.568-.46,3.568-.46s-1.441.032-3.6.153c-1.076.068-2.334.123-3.678.23l-4.213.323-4.206.4c-.348.032-.688.067-1.023.1l13.073-8.834-14.054,6.778c.22-.29.44-.581.666-.881,1.063-1.431,2.2-2.957,3.338-4.481,1.116-1.541,2.232-3.08,3.28-4.524s1.992-2.815,2.817-3.978c1.636-2.337,2.692-3.923,2.692-3.923s-1.2,1.481-2.942,3.74c-.863,1.136-1.889,2.447-2.952,3.878s-2.2,2.955-3.34,4.479c-1.116,1.541-2.232,3.082-3.278,4.524-.388.535-.758,1.053-1.116,1.561l-.028-.025,4.286-16.065-6.215,13.989c.093-1.439.19-2.955.288-4.476l.235-4.754c.078-1.516.105-2.935.15-4.148.073-2.429.075-4.051.075-4.051s-.18,1.611-.383,4.033c-.093,1.211-.225,2.622-.32,4.138s-.2,3.132-.305,4.749c-.08,1.616-.16,3.235-.235,4.751-.01.218-.02.43-.028.646a4.384,4.384,0,0,0-.545-.045l-6.59-14.832,3.468,13.991c-.128-.165-.253-.325-.383-.493l-3.167-4.051c-1.1-1.364-2.194-2.73-3.225-4.008s-2.019-2.447-2.852-3.463c-1.686-2.017-2.842-3.333-2.842-3.333s1.018,1.429,2.6,3.528c.8,1.041,1.709,2.274,2.722,3.565s2.089,2.672,3.167,4.053c1.1,1.361,2.194,2.727,3.225,4.005.345.428.683.841,1.016,1.244l.163.663-.008.005-14.514-6.79,12.593,9.17c-1.239-.15-2.525-.3-3.823-.458l-4.461-.463c-1.424-.15-2.757-.245-3.9-.35-2.284-.19-3.81-.27-3.81-.27s1.506.258,3.775.578c1.136.15,2.457.35,3.878.518s2.937.353,4.454.533c1.246.13,2.482.258,3.675.38l-14.794,4.028,14.184-.453q-.661.334-1.344.7L657-1375l-4.914,2.66c-1.569.846-3.013,1.676-4.261,2.367-2.487,1.4-4.123,2.372-4.123,2.372s1.721-.816,4.271-2.1c1.268-.651,2.762-1.386,4.338-2.217l4.946-2.6c1.674-.906,3.345-1.809,4.914-2.66.648-.35,1.268-.693,1.869-1.028l-8,12.382,10.633-10.6c-.711,1.419-1.5,3-2.349,4.686l-3.095,6.3c-1.031,2.157-2.062,4.311-3.027,6.335s-1.836,3.923-2.6,5.547c-1.5,3.255-2.464,5.444-2.464,5.444s1.121-2.112,2.745-5.309c.8-1.6,1.761-3.463,2.745-5.474l3.095-6.3c1.031-2.157,2.062-4.311,3.03-6.335l2.244-4.8,2.079,15.255,1.178-15.425q.27.89.55,1.811c.716,2.289,1.476,4.729,2.239,7.171.786,2.432,1.571,4.864,2.309,7.146.753,2.277,1.459,4.4,2.062,6.22,1.226,3.635,2.084,6.045,2.084,6.045s-.69-2.464-1.786-6.14c-.558-1.834-1.208-3.976-1.9-6.27-.716-2.287-1.476-4.729-2.239-7.168-.786-2.434-1.571-4.866-2.309-7.148q-.308-.931-.605-1.826l11.462,10.839-9.448-13.463.005-.008c.4.245.811.49,1.233.743,1.389.821,2.87,1.7,4.348,2.574l4.386,2.512c1.4.8,2.725,1.516,3.853,2.147,2.262,1.241,3.793,2.029,3.793,2.029s-1.441-.941-3.638-2.3C685.554-1372.252,684.278-1373.056,682.889-1373.874Z" transform="translate(-482.65 1422.017)"/><path class="s" d="M788.243-1216.95l-1.4.733-1.4-.733.268,1.556-1.131,1.1,1.561.225.7,1.419.7-1.419,1.561-.225-1.131-1.1Z" transform="translate(-588.282 1281.871)"/><path class="s" d="M822.447-1383.323l.7,1.416.7-1.416,1.564-.228-1.133-1.1.268-1.556-1.4.733-1.4-.733.268,1.556-1.131,1.1Z" transform="translate(-615.5 1408.783)"/><path class="s" d="M668.7-1208.611l.268-1.559-1.4.736-1.4-.736.265,1.559-1.131,1.1,1.564.228.7,1.419.7-1.419,1.564-.228Z" transform="translate(-498.845 1276.788)"/><path class="s" d="M774.376-1404.713l.463.936.46-.936,1.033-.15-.748-.728.178-1.028-.923.485-.926-.485.178,1.028-.748.728Z" transform="translate(-579.854 1424.086)"/><path class="s" d="M694.626-1399.031l.46.933.463-.933,1.031-.153-.746-.728.175-1.028-.923.485-.923-.485.175,1.028-.746.728Z" transform="translate(-520.057 1419.827)"/><path class="s" d="M637.025-1331.372l.178-1.028-.923.485-.923-.485.175,1.028-.748.728,1.033.15.463.936.46-.936,1.033-.15Z" transform="translate(-475.962 1368.436)"/><path class="s" d="M828.817-1279.99l-.786.413-.783-.413.148.873-.633.621.876.127.393.793.393-.793.876-.127-.633-.621Z" transform="translate(-619.909 1329.139)"/><path class="s" d="M778.191-1231.231l.393.793.39-.793.878-.127-.635-.618.15-.873-.783.41-.786-.41.15.873-.636.618Z" transform="translate(-582.831 1293.793)"/><path class="s" d="M648.739-1278.369l.393.793.393-.793.876-.127-.633-.621.147-.873-.783.413-.786-.413.15.873-.633.621Z" transform="translate(-485.769 1329.139)"/><path class="s" d="M700.831-1382.027l-.783-.413.15.873-.636.621.878.125.39.8.393-.8.878-.125-.636-.621.15-.873Z" transform="translate(-524.534 1405.956)"/><path class="t" d="M499.767-912.52c-.724,6.66-1.321,13.437-.309,20.1,1.048,6.9,2.715,13.685,4.152,20.508a104.037,104.037,0,0,1,2.612,21.56,56.82,56.82,0,0,1-4.339,20.546c-2.275,5.877-5.009,11.544-6.894,17.571a61.785,61.785,0,0,0-2.344,17.629,96.818,96.818,0,0,0,6.9,37.167c.665,1.654,3.375.933,2.7-.743a97.365,97.365,0,0,1-6.8-36.424,60.356,60.356,0,0,1,3.022-19.29c1.994-5.97,4.818-11.634,7.013-17.529,4.692-12.595,3.881-25.53,1.384-38.5-1.316-6.838-3-13.6-4.253-20.447-1.344-7.375-.849-14.746-.044-22.149C502.763-914.314,499.961-914.295,499.767-912.52Z" transform="translate(-369.379 1054.613)"/><path class="r" d="M514.868-937.786c-1.188,1.676-2.434,3.3-3.606,4.959-.325.461-.769,1.09-.523,1.713.525,1.333,2.568.183,3.589.564,1.145.426,2.027,1.19,3.426.723.7-.233,1.042-.747,1.791-.938.527-.134,1-.073,1.206-.684.337-.992-.822-2.1-1.153-2.929a10.807,10.807,0,0,1-1.213-4.039" transform="translate(-382.9 1073.027)"/><path class="r" d="M467.893-1235.538c-.1,25.152-20.875,54.363-30.833,54.363-10.75,0-31.906-32.984-30.833-54.363.854-17.006,13.8-30.832,30.833-30.832A30.787,30.787,0,0,1,467.893-1235.538Z" transform="translate(-304.56 1318.927)"/><path class="u" d="M433.229-1138.709a65.829,65.829,0,0,1-12.905-13.908,66.371,66.371,0,0,1-8.618-16.083,55.787,55.787,0,0,1-2.321-25.68,34.362,34.362,0,0,0-3.158,12.82c-1.073,21.38,20.083,54.363,30.833,54.363,2.45,0,5.555-1.771,8.845-4.811A36.723,36.723,0,0,1,433.229-1138.709Z" transform="translate(-304.56 1264.948)"/><path class="v" d="M540.19-1235.727c6.121,10.956,5.408,23.011-1.6,26.924s-17.642-1.8-23.764-12.758-5.408-23.011,1.6-26.924S534.068-1246.685,540.19-1235.727Z" transform="translate(-382.9 1306.44)"/><path class="e" d="M545.6-1250.723c1.794-1.076,5.652.4,7.285,1.021,4.96,1.882,9.96,6.868,12.592,11.487,3.686,6.475,5.743,14.849,3.409,22.235-.21.668-.681-.718-.711-.773a21.186,21.186,0,0,1-1.091-4.038c-2.738-10.188-7.559-18.43-15.8-25.062C550.182-1246.735,544.246-1249.91,545.6-1250.723Z" transform="translate(-408.941 1307.48)"/><path class="w" d="M842.168-51.1a3.236,3.236,0,0,1-3.237,3.238,3.236,3.236,0,0,1-3.238-3.238,3.236,3.236,0,0,1,3.238-3.238A3.236,3.236,0,0,1,842.168-51.1Z" transform="translate(-626.604 410.144)"/><path class="w" d="M842.168-148.022a3.236,3.236,0,0,1-3.237,3.235,3.236,3.236,0,0,1-3.238-3.235,3.236,3.236,0,0,1,3.238-3.238A3.236,3.236,0,0,1,842.168-148.022Z" transform="translate(-626.604 482.815)"/><path class="w" d="M842.168-244.952a3.236,3.236,0,0,1-3.237,3.238,3.236,3.236,0,0,1-3.238-3.238,3.236,3.236,0,0,1,3.238-3.238A3.236,3.236,0,0,1,842.168-244.952Z" transform="translate(-626.604 555.493)"/><path class="w" d="M842.168-341.872a3.238,3.238,0,0,1-3.237,3.238,3.238,3.238,0,0,1-3.238-3.238,3.236,3.236,0,0,1,3.238-3.238A3.236,3.236,0,0,1,842.168-341.872Z" transform="translate(-626.604 628.164)"/><path class="w" d="M842.168-438.8a3.238,3.238,0,0,1-3.237,3.238,3.238,3.238,0,0,1-3.238-3.238,3.239,3.239,0,0,1,3.238-3.24A3.239,3.239,0,0,1,842.168-438.8Z" transform="translate(-626.604 700.842)"/><path class="w" d="M898.791-94.2a3.238,3.238,0,0,1-3.238,3.238,3.239,3.239,0,0,1-3.24-3.238,3.24,3.24,0,0,1,3.24-3.238A3.24,3.24,0,0,1,898.791-94.2Z" transform="translate(-669.058 442.461)"/><path class="w" d="M898.791-191.122a3.238,3.238,0,0,1-3.238,3.238,3.239,3.239,0,0,1-3.24-3.238,3.239,3.239,0,0,1,3.24-3.238A3.238,3.238,0,0,1,898.791-191.122Z" transform="translate(-669.058 515.131)"/><path class="w" d="M898.791-288.042a3.238,3.238,0,0,1-3.238,3.238,3.239,3.239,0,0,1-3.24-3.238,3.239,3.239,0,0,1,3.24-3.238A3.238,3.238,0,0,1,898.791-288.042Z" transform="translate(-669.058 587.802)"/><path class="w" d="M898.791-384.972a3.238,3.238,0,0,1-3.238,3.238,3.239,3.239,0,0,1-3.24-3.238,3.24,3.24,0,0,1,3.24-3.238A3.24,3.24,0,0,1,898.791-384.972Z" transform="translate(-669.058 660.48)"/><path class="w" d="M960.778-51.1a3.236,3.236,0,0,1-3.238,3.238A3.238,3.238,0,0,1,954.3-51.1a3.238,3.238,0,0,1,3.238-3.238A3.236,3.236,0,0,1,960.778-51.1Z" transform="translate(-715.538 410.144)"/><path class="w" d="M960.778-148.022a3.236,3.236,0,0,1-3.238,3.235,3.238,3.238,0,0,1-3.238-3.235,3.238,3.238,0,0,1,3.238-3.238A3.236,3.236,0,0,1,960.778-148.022Z" transform="translate(-715.538 482.815)"/><path class="w" d="M960.778-244.952a3.236,3.236,0,0,1-3.238,3.238,3.238,3.238,0,0,1-3.238-3.238,3.238,3.238,0,0,1,3.238-3.238A3.236,3.236,0,0,1,960.778-244.952Z" transform="translate(-715.538 555.493)"/><path class="w" d="M960.778-341.872a3.238,3.238,0,0,1-3.238,3.238,3.24,3.24,0,0,1-3.238-3.238,3.238,3.238,0,0,1,3.238-3.238A3.236,3.236,0,0,1,960.778-341.872Z" transform="translate(-715.538 628.164)"/><path class="w" d="M960.778-438.8a3.238,3.238,0,0,1-3.238,3.238A3.24,3.24,0,0,1,954.3-438.8a3.24,3.24,0,0,1,3.238-3.24A3.239,3.239,0,0,1,960.778-438.8Z" transform="translate(-715.538 700.842)"/><path class="w" d="M1035.045-94.2a3.236,3.236,0,0,1-3.238,3.238,3.236,3.236,0,0,1-3.238-3.238,3.238,3.238,0,0,1,3.238-3.238A3.238,3.238,0,0,1,1035.045-94.2Z" transform="translate(-771.224 442.461)"/><path class="w" d="M1035.045-191.122a3.236,3.236,0,0,1-3.238,3.238,3.236,3.236,0,0,1-3.238-3.238,3.236,3.236,0,0,1,3.238-3.238A3.236,3.236,0,0,1,1035.045-191.122Z" transform="translate(-771.224 515.131)"/><path class="w" d="M1035.045-288.042a3.236,3.236,0,0,1-3.238,3.238,3.236,3.236,0,0,1-3.238-3.238,3.236,3.236,0,0,1,3.238-3.238A3.236,3.236,0,0,1,1035.045-288.042Z" transform="translate(-771.224 587.802)"/><path class="w" d="M1035.045-384.972a3.236,3.236,0,0,1-3.238,3.238,3.236,3.236,0,0,1-3.238-3.238,3.238,3.238,0,0,1,3.238-3.238A3.238,3.238,0,0,1,1035.045-384.972Z" transform="translate(-771.224 660.48)"/><path class="w" d="M1079.393-341.872a3.238,3.238,0,0,1-3.235,3.238,3.238,3.238,0,0,1-3.238-3.238,3.236,3.236,0,0,1,3.238-3.238A3.236,3.236,0,0,1,1079.393-341.872Z" transform="translate(-804.478 628.164)"/><path class="w" d="M1079.393-438.8a3.238,3.238,0,0,1-3.235,3.238,3.238,3.238,0,0,1-3.238-3.238,3.239,3.239,0,0,1,3.238-3.24A3.238,3.238,0,0,1,1079.393-438.8Z" transform="translate(-804.478 700.842)"/><path class="x" d="M847.154-440.043l-4.481-1.631a3.214,3.214,0,0,1,1.491-.365A3.237,3.237,0,0,1,847.154-440.043Z" transform="translate(-631.838 700.842)"/><path class="x" d="M957.541-435.562A3.24,3.24,0,0,1,954.3-438.8a3.24,3.24,0,0,1,3.238-3.24,3.239,3.239,0,0,1,3.238,3.24A3.238,3.238,0,0,1,957.541-435.562Z" transform="translate(-715.538 700.842)"/><path class="x" d="M1033.844-382.455l-5.217-1.9a3.344,3.344,0,0,1-.057-.618,3.238,3.238,0,0,1,3.238-3.238,3.238,3.238,0,0,1,3.238,3.238A3.226,3.226,0,0,1,1033.844-382.455Z" transform="translate(-771.224 660.48)"/><path class="x" d="M1076.158-435.562a3.238,3.238,0,0,1-3.238-3.238,3.239,3.239,0,0,1,3.238-3.24,3.238,3.238,0,0,1,3.235,3.24A3.238,3.238,0,0,1,1076.158-435.562Z" transform="translate(-804.478 700.842)"/><path class="w" d="M813.858-560.112a3.236,3.236,0,0,1-3.238,3.238,3.236,3.236,0,0,1-3.237-3.238,3.236,3.236,0,0,1,3.237-3.238A3.236,3.236,0,0,1,813.858-560.112Z" transform="translate(-605.377 791.801)"/><path class="w" d="M870.478-506.282a3.238,3.238,0,0,1-3.238,3.238A3.24,3.24,0,0,1,864-506.282a3.238,3.238,0,0,1,3.237-3.238A3.236,3.236,0,0,1,870.478-506.282Z" transform="translate(-647.831 751.439)"/><path class="w" d="M932.468-560.112a3.236,3.236,0,0,1-3.237,3.238,3.236,3.236,0,0,1-3.238-3.238,3.236,3.236,0,0,1,3.238-3.238A3.236,3.236,0,0,1,932.468-560.112Z" transform="translate(-694.311 791.801)"/><path class="w" d="M989.09-506.282a3.239,3.239,0,0,1-3.237,3.238,3.24,3.24,0,0,1-3.24-3.238,3.239,3.239,0,0,1,3.24-3.238A3.238,3.238,0,0,1,989.09-506.282Z" transform="translate(-736.765 751.439)"/><path class="w" d="M1051.075-560.112a3.237,3.237,0,0,1-3.238,3.238,3.238,3.238,0,0,1-3.238-3.238,3.238,3.238,0,0,1,3.238-3.238A3.237,3.237,0,0,1,1051.075-560.112Z" transform="translate(-783.243 791.801)"/><path class="w" d="M1107.705-506.282a3.24,3.24,0,0,1-3.238,3.238,3.238,3.238,0,0,1-3.238-3.238,3.237,3.237,0,0,1,3.238-3.238A3.238,3.238,0,0,1,1107.705-506.282Z" transform="translate(-825.704 751.439)"/><path class="w" d="M1169.7-560.112a3.238,3.238,0,0,1-3.238,3.238,3.236,3.236,0,0,1-3.238-3.238,3.236,3.236,0,0,1,3.238-3.238A3.238,3.238,0,0,1,1169.7-560.112Z" transform="translate(-872.185 791.801)"/><path class="y" d="M775.343-227.03h44.14v5.589Z" transform="translate(-581.354 539.627)"/></g><g transform="translate(198.343 -379.974)"><path class="z" d="M637.567-715.206c-.766,7.046-1.4,14.216-.325,21.269,1.108,7.3,2.872,14.479,4.394,21.7,1.584,7.526,3.443,2.1,3.443,2.1s-3.18-14.386-4.5-21.635c-1.421-7.8-.9-15.6-.048-23.436C640.737-717.1,637.772-717.085,637.567-715.206Z" transform="translate(-607.136 809.943)"/><path class="h" d="M652.821-741.932c-1.259,1.771-2.577,3.49-3.815,5.244-.345.488-.813,1.153-.555,1.814.558,1.411,2.719.193,3.8.6,1.211.45,2.144,1.261,3.625.766.736-.248,1.1-.791,1.9-.991.555-.143,1.056-.078,1.273-.726.358-1.048-.868-2.227-1.218-3.1a11.447,11.447,0,0,1-1.284-4.273" transform="translate(-620.716 829.421)"/><path class="h" d="M603.114-1056.987c-.108,26.614-22.085,57.521-32.623,57.521-11.374,0-33.759-34.9-32.624-57.521.9-18,14.607-32.623,32.624-32.623A32.575,32.575,0,0,1,603.114-1056.987Z" transform="translate(-537.826 1089.61)"/><path class="aa" d="M566.438-954.536a69.634,69.634,0,0,1-13.655-14.715,70.288,70.288,0,0,1-9.119-17.017,59.019,59.019,0,0,1-2.456-27.172,36.375,36.375,0,0,0-3.341,13.565c-1.135,22.621,21.25,57.521,32.624,57.521,2.592,0,5.877-1.874,9.36-5.089A38.879,38.879,0,0,1,566.438-954.536Z" transform="translate(-537.826 1032.497)"/><path class="ab" d="M679.614-1057.188c6.478,11.595,5.722,24.349-1.689,28.489s-18.667-1.9-25.145-13.5-5.72-24.348,1.689-28.489S673.136-1068.782,679.614-1057.188Z" transform="translate(-620.718 1076.398)"/><path class="e" d="M685.331-1073.053c1.9-1.141,5.98.425,7.709,1.078,5.249,1.992,10.541,7.268,13.326,12.155,3.9,6.849,6.075,15.711,3.605,23.527-.223.706-.721-.759-.753-.82a22.346,22.346,0,0,1-1.153-4.27c-2.9-10.78-8-19.5-16.723-26.521C690.183-1068.835,683.9-1072.195,685.331-1073.053Z" transform="translate(-648.268 1077.499)"/></g><g transform="translate(127.441 -303.003)"><g transform="translate(59.839 227.195)"><path class="ac" d="M245.876-3.957c-24.431,0-44.237-8.108-44.237-18.109s19.806-18.11,44.237-18.11,44.236,8.108,44.236,18.11S270.307-3.957,245.876-3.957Z" transform="translate(-201.639 40.177)"/></g><g transform="translate(32.726)"><g transform="translate(49.82)"><g transform="translate(17.115 7.591)"><path class="ad" d="M245.811-251.793h4.416v-28.982h-4.416Z" transform="translate(-245.811 280.775)"/></g><g transform="translate(0 33.536)"><path class="ad" d="M261.4-232.95H230.9a4.072,4.072,0,0,1-4.072-4.072v-10.9a4.072,4.072,0,0,1,4.072-4.072h30.5a4.072,4.072,0,0,1,4.072,4.072v10.9A4.072,4.072,0,0,1,261.4-232.95Z" transform="translate(-226.826 251.995)"/></g><g transform="translate(13.663)"><path class="ad" d="M253.3-283.536a5.658,5.658,0,0,1-5.658,5.658,5.659,5.659,0,0,1-5.66-5.658,5.659,5.659,0,0,1,5.66-5.659A5.658,5.658,0,0,1,253.3-283.536Z" transform="translate(-241.982 289.195)"/></g><path class="e" d="M252.245-285.556a1.725,1.725,0,0,1-1.725,1.725,1.726,1.726,0,0,1-1.725-1.725,1.725,1.725,0,0,1,1.725-1.725A1.724,1.724,0,0,1,252.245-285.556Z" transform="translate(-228.99 289.007)"/><path class="e" d="M266.551-246.317c-.141.021-.231-.807-.919-2.084a11.4,11.4,0,0,0-.691-1.1c-1.185-1.631-5.2-1.595-5.52-1.592-6.259.054-10.283-.343-10.282-.306s2.936-.028,5.086-.071c6.068-.124,9.684-.45,11.233,1.176a5.112,5.112,0,0,1,.966,1.552A3.261,3.261,0,0,1,266.551-246.317Z" transform="translate(-229.024 285.491)"/></g><g transform="translate(0 45.349)"><path class="ae" d="M277.968-136.729H203.443a31.974,31.974,0,0,1-31.88-31.88V-185.17a56.888,56.888,0,0,1,56.722-56.721h24.841a56.888,56.888,0,0,1,56.722,56.721v16.562A31.88,31.88,0,0,1,277.968-136.729Zm-37.262-75.1c-7.1,0-13.93.191-20.469.532-17.114.89-31.076,12.741-33.2,28.156l-.046.332a10.913,10.913,0,0,0,6.325,11.184,13.34,13.34,0,0,0,5.9,1.363H282.2a13.343,13.343,0,0,0,5.9-1.363,10.914,10.914,0,0,0,6.325-11.185l-.046-.334c-2.134-15.473-16.2-27.277-33.378-28.163q-8.669-.446-17.991-.516C242.236-211.829,241.47-211.831,240.706-211.831Z" transform="translate(-171.563 241.891)"/></g><g transform="translate(15.33 75.409)"><g class="ap" transform="matrix(1, 0, 0, 1, -119.63, -174.34)"><path class="af" d="M283.872-166.98H200.888a13.34,13.34,0,0,1-5.9-1.363,10.913,10.913,0,0,1-6.325-11.184l.046-.332c2.127-15.415,16.088-27.266,33.2-28.156,6.539-.341,13.369-.532,20.469-.532.764,0,1.53,0,2.3.006q9.314.054,17.991.516c17.18.886,31.244,12.69,33.378,28.163l.046.334a10.914,10.914,0,0,1-6.325,11.185A13.343,13.343,0,0,1,283.872-166.98Z" transform="translate(-68.93 382.88)"/></g><g transform="translate(57.184 6.176)"><ellipse class="ag" cx="16.227" cy="11.269" rx="16.227" ry="11.269"/><path class="ah" d="M280.9-184.792c0,6.2-5.616-1.755-11.232-1.755s-11.232,7.957-11.232,1.755a11.232,11.232,0,0,1,11.232-11.232A11.232,11.232,0,0,1,280.9-184.792Z" transform="translate(-252.634 201.137)"/><g transform="translate(7.596 6.911)"><path class="ai" d="M279.294-184.6s-4.717-5.248-9.434-5.248-9.434,5.248-9.434,5.248a9.434,9.434,0,0,1,9.434-9.434A9.434,9.434,0,0,1,279.294-184.6Z" transform="translate(-260.426 194.03)"/></g></g><g transform="translate(18.419 6.176)"><ellipse class="ag" cx="16.227" cy="11.269" rx="16.227" ry="11.269" transform="translate(0)"/><path class="ah" d="M280.9-184.792c0,6.2-5.616-1.755-11.232-1.755s-11.232,7.957-11.232,1.755a11.232,11.232,0,0,1,11.232-11.232A11.232,11.232,0,0,1,280.9-184.792Z" transform="translate(-252.634 201.137)"/><g transform="translate(7.596 6.911)"><path class="ai" d="M279.294-184.6s-4.717-5.248-9.434-5.248-9.434,5.248-9.434,5.248a9.434,9.434,0,0,1,9.434-9.434A9.434,9.434,0,0,1,279.294-184.6Z" transform="translate(-260.426 194.03)"/></g></g></g><g transform="translate(58.579 120.999)"><path class="aj" d="M264.068-154.989a13.841,13.841,0,0,1-12.445,12.347,13.822,13.822,0,0,1-14.483-9.49,3.2,3.2,0,0,0,3.3,1.938l20.734-2A3.2,3.2,0,0,0,264.068-154.989Z" transform="translate(-236.601 157.682)"/><path class="ah" d="M264.008-155.284a3.194,3.194,0,0,1-2.9,2.8l-20.73,2A3.194,3.194,0,0,1,237-152.677a14.045,14.045,0,0,1-.445-1.982.692.692,0,0,1,.139-.529.692.692,0,0,1,.479-.262l26.153-2.523a.681.681,0,0,1,.513.165.677.677,0,0,1,.233.486A13.922,13.922,0,0,1,264.008-155.284Z" transform="translate(-236.543 157.977)"/></g></g><g transform="translate(3.984 141.838) rotate(8)"><path class="ak" d="M17.585,1.314C38.335,7,43.238,5.406,46.935,10.969a12.66,12.66,0,0,1,2.159,8.09A12.037,12.037,0,0,1,45.72,26.1C38.611,32.985,19.051,24.567,7.848,15.36,5.406,13.353-1.146,7.968.174,4.142.714,2.575,2.394,1.8,3.6,1.258,8.929-1.127,14.456.457,17.585,1.314Z" transform="translate(0 0)"/></g><g transform="translate(59.187 154.002)"><path class="ae" d="M293.16-105.12c0,.19,0,.372-.008.546a12.865,12.865,0,0,1-.671,3.636c-5.707,17.43-9.125,26.621-13.92,34.057-.828,1.284-1.7,2.518-2.633,3.727-1.225,1.615-2.567,3.188-4.058,4.81-3.312,3.6-8.322,5.233-9.936,5.8-5.9,2.088-11.12,1.707-14.59,1.74h-.6c-3.477-.033-8.686.348-14.59-1.74-1.615-.563-6.632-2.193-9.936-5.8C213.1-68.256,209.6-76.495,201.6-100.938a12.782,12.782,0,0,1-.663-3.412,13.256,13.256,0,0,1-.008-1.416,14.824,14.824,0,0,1,3.461-8.4,19.178,19.178,0,0,1,14.922-6.973l27.731-.116,27.226-.107a19.653,19.653,0,0,1,15.311,6.988,15.215,15.215,0,0,1,3.378,7.031c.058.348.108.7.141,1.051C293.134-105.907,293.16-105.519,293.16-105.12Z" transform="translate(-200.916 121.367)"/></g><g transform="translate(210.42 170.184) rotate(172)"><path class="al" d="M17.585,27.311c20.75-5.684,25.652-4.092,29.349-9.655a12.66,12.66,0,0,0,2.159-8.09A12.037,12.037,0,0,0,45.72,2.52C38.611-4.361,19.051,4.057,7.848,13.264,5.406,15.271-1.146,20.657.174,24.482c.54,1.568,2.22,2.347,3.426,2.885C8.929,29.751,14.456,28.167,17.585,27.311Z" transform="translate(0 0)"/></g></g><ellipse class="am" cx="5.86" cy="1.803" rx="5.86" ry="1.803" transform="matrix(0.999, -0.035, 0.035, 0.999, 154.191, -153.6)"/><g transform="translate(93.254 -323.197)"><path class="an" d="M135.588,27.545q0-.939-.008-1.878a5.811,5.811,0,0,0-.019-.778,5.6,5.6,0,0,1-3.233-3.008,3.676,3.676,0,0,1-.019.778c-.007.626-.008,1.252-.008,1.878s0,1.252.008,1.878a2.932,2.932,0,0,0,.019.778,5.6,5.6,0,0,0,3.233,3.008A22.4,22.4,0,0,1,135.588,27.545Z" transform="translate(-62.361 -13.604)"/><path class="an" d="M36.344,149.082c.006-.626.008-1.252.008-1.878s0-1.252-.008-1.878a5.6,5.6,0,0,1-.019-.778,16.009,16.009,0,0,1-4.535,3.133,11.951,11.951,0,0,0-.027,2.656,17.046,17.046,0,0,1,.027,2.656,16.008,16.008,0,0,0,4.535-3.133A3.319,3.319,0,0,0,36.344,149.082Z" transform="translate(-21.147 -63.86)"/><path class="an" d="M94.259,283.876a33.553,33.553,0,0,0-4.4-2.143,19.94,19.94,0,0,1-.027,2.656,13.206,13.206,0,0,0,.027,2.656,33.549,33.549,0,0,1,4.4,2.143c-.018-.011.019-.822.019-.778q.009-.939.008-1.878t-.008-1.878A4.386,4.386,0,0,0,94.259,283.876Z" transform="translate(-44.942 -120.065)"/><path class="an" d="M171.4,436.493q.01-.939.008-1.878t-.008-1.878a6.7,6.7,0,0,1-.018-.778l-2.923,2.4a3.64,3.64,0,0,0-.019.778c-.006.626-.008,1.253-.008,1.878s0,1.253.008,1.879a6.8,6.8,0,0,1,.019.777l2.923-2.4A3.675,3.675,0,0,0,171.4,436.493Z" transform="translate(-77.166 -181.611)"/><path class="an" d="M53.094,388.129a15.153,15.153,0,0,1-6.52-3.731c.248.24-.027,2.316-.027,2.656,0,.376-.266,2.374.027,2.656a15.153,15.153,0,0,0,6.52,3.731c-.077-.022.027-2.5.027-2.656A17.015,17.015,0,0,0,53.094,388.129Z" transform="translate(-27.186 -162.126)"/><path class="an" d="M18.66,9.764l-4.748-1.9a19.942,19.942,0,0,1-.027,2.656,13.164,13.164,0,0,0,.027,2.656l4.748,1.9a19.842,19.842,0,0,1,.027-2.656A13.162,13.162,0,0,0,18.66,9.764Z" transform="translate(-13.825 -7.86)"/><path class="an" d="M262.419,75.877c.006-.626.008-1.252.008-1.878s0-1.252-.008-1.878a5.512,5.512,0,0,1-.019-.778,6.148,6.148,0,0,1-4.386,1.79c-.037,0-.043,5.313,0,5.313a6.148,6.148,0,0,0,4.386-1.79A3.317,3.317,0,0,0,262.419,75.877Z" transform="translate(-113.856 -33.868)"/><path class="an" d="M366.044,14.678a19.175,19.175,0,0,1-6.654-3.116,11.377,11.377,0,0,1-.027,2.656c0,.3-.232,2.468.027,2.656a19.175,19.175,0,0,0,6.654,3.116C365.662,19.895,366.5,14.794,366.044,14.678Z" transform="translate(-155.352 -9.377)"/><path class="an" d="M467.562,60.2c.007-.626.008-1.253.008-1.879s0-1.252-.008-1.878c0,.045-.036-.769-.019-.779l-3.525,2a4.383,4.383,0,0,0-.019.778c-.007.626-.008,1.252-.008,1.878s0,1.252.008,1.878c0-.045.036.768.019.778l3.525-2A4.381,4.381,0,0,0,467.562,60.2Z" transform="translate(-198.256 -27.446)"/><path class="an" d="M428.983,155.62a9.552,9.552,0,0,1-4.255-3.283,4.241,4.241,0,0,1-.019.778q-.009.939-.008,1.878t.008,1.878a2.993,2.993,0,0,0,.019.778,9.552,9.552,0,0,0,4.255,3.283,20.348,20.348,0,0,1,.027-2.656A13.337,13.337,0,0,0,428.983,155.62Z" transform="translate(-182.156 -67.052)"/><path class="an" d="M275.99,239.891a9.554,9.554,0,0,1-5.172-1.46,4.281,4.281,0,0,1,.273.729q.341.875.693,1.746t.707,1.74a2.991,2.991,0,0,0,.308.715,9.545,9.545,0,0,0,5.172,1.46,20.24,20.24,0,0,1-.965-2.475A13.344,13.344,0,0,0,275.99,239.891Z" transform="translate(-119.114 -102.324)"/><path class="an" d="M469.467,265.056q.01-.939.008-1.878t-.008-1.878a3.87,3.87,0,0,1-.018-.778,12.709,12.709,0,0,1-4.067,4.274,4.12,4.12,0,0,0-.019.778c-.007.626-.008,1.252-.008,1.878s0,1.252.008,1.878c0-.04.04.764.019.778a12.709,12.709,0,0,0,4.067-4.274A2.893,2.893,0,0,0,469.467,265.056Z" transform="translate(-198.814 -111.375)"/><path class="an" d="M445.7,339.964a8.274,8.274,0,0,1-5.712-4.531,3.67,3.67,0,0,1-.019.778c-.007.626-.008,1.252-.008,1.878s0,1.252.008,1.878a2.91,2.91,0,0,0,.019.778,8.274,8.274,0,0,0,5.712,4.531c-.055-.012.027-2.508.027-2.656A19.894,19.894,0,0,0,445.7,339.964Z" transform="translate(-188.407 -142.065)"/><path class="an" d="M446.135,431.56q.009-.939.008-1.879t-.008-1.878a6.21,6.21,0,0,1-.019-.779l-4.631,4.041a3.566,3.566,0,0,0-.018.779c-.007.626-.008,1.252-.008,1.878s0,1.253.008,1.879a6.31,6.31,0,0,1,.018.777l4.631-4.041A3.52,3.52,0,0,0,446.135,431.56Z" transform="translate(-189.023 -179.59)"/><path class="an" d="M347.2,405.986a15.284,15.284,0,0,1-5.9-1.616,15.645,15.645,0,0,1-.027,2.656,11.281,11.281,0,0,0,.027,2.656,15.285,15.285,0,0,0,5.9,1.616C347.119,411.293,347.358,406,347.2,405.986Z" transform="translate(-147.949 -170.309)"/><path class="an" d="M269.864,470.386l-5.852-2.111a22.411,22.411,0,0,1-.027,2.656,14.184,14.184,0,0,0,.027,2.656l5.852,2.112a22.405,22.405,0,0,1,.027-2.656A14.188,14.188,0,0,0,269.864,470.386Z" transform="translate(-116.293 -196.49)"/><path class="an" d="M95.049,476.753c.006-.626.008-1.253.008-1.878s0-1.253-.008-1.878a4.75,4.75,0,0,1-.019-.778,5.2,5.2,0,0,1-5.876,1.484,20.665,20.665,0,0,1-.027,2.656,13.471,13.471,0,0,0,.027,2.656,5.2,5.2,0,0,0,5.876-1.484A3.134,3.134,0,0,0,95.049,476.753Z" transform="translate(-44.652 -198.106)"/><path class="ao" d="M60.151,66.02A7.7,7.7,0,0,1,54.6,63.784a5.6,5.6,0,0,1-.018.777q-.01.939-.008,1.879t.008,1.878a3.35,3.35,0,0,0,.018.778,7.7,7.7,0,0,0,5.553,2.236C60.208,71.332,60.174,66.019,60.151,66.02Z" transform="translate(-30.516 -30.772)"/><path class="ao" d="M400.266,64.711a8.124,8.124,0,0,1-5.386-2.524,5.25,5.25,0,0,1-.019.778c-.007.626-.008,1.253-.008,1.878s0,1.253.008,1.878a3.256,3.256,0,0,0,.019.778,8.124,8.124,0,0,0,5.386,2.524C400.184,70.017,400.429,64.722,400.266,64.711Z" transform="translate(-169.928 -30.118)"/><path class="ao" d="M212.1,30.322a6.8,6.8,0,0,1-5.6-3.536,3.742,3.742,0,0,1-.019.778q-.009.939-.008,1.878t.008,1.878a2.914,2.914,0,0,0,.019.778,6.8,6.8,0,0,0,5.6,3.536C212.039,35.631,212.249,30.331,212.1,30.322Z" transform="translate(-92.748 -15.614)"/><path class="ao" d="M316.5,43.583q.009-.939.008-1.878t-.008-1.878a4.086,4.086,0,0,1-.019-.778,11.788,11.788,0,0,1-3.176,3.111,4.072,4.072,0,0,0-.019.778q-.009.939-.008,1.878t.008,1.878c0-.039.041.763.019.778a11.788,11.788,0,0,0,3.176-3.111A3,3,0,0,0,316.5,43.583Z" transform="translate(-136.511 -20.638)"/><path class="ao" d="M55.22,219.265a11.026,11.026,0,0,1-5.943-3.5,4.926,4.926,0,0,1-.019.78q-.009.936-.008,1.876t.008,1.878a3.193,3.193,0,0,0,.019.778,11.026,11.026,0,0,0,5.943,3.5C54.884,224.5,55.633,219.356,55.22,219.265Z" transform="translate(-28.336 -93.037)"/><path class="ao" d="M37.358,306.728q.009-.939.008-1.878t-.008-1.878a3.909,3.909,0,0,1-.019-.778,8.546,8.546,0,0,1-5.639,3.89c-.378.075.3,5.253,0,5.313a8.546,8.546,0,0,0,5.639-3.89A2.941,2.941,0,0,0,37.358,306.728Z" transform="translate(-21.1 -128.447)"/><path class="ao" d="M64.084,446.1a6.8,6.8,0,0,1-4.712-1.757,6.1,6.1,0,0,1-.019.778q-.009.939-.008,1.878t.008,1.878a3.489,3.489,0,0,0,.019.778,6.8,6.8,0,0,0,4.712,1.757C64.151,451.413,64.1,446.1,64.084,446.1Z" transform="translate(-32.472 -186.686)"/><path class="ao" d="M384.079,464.672a21.659,21.659,0,0,1-6.579-3.258,11.377,11.377,0,0,1-.027,2.656c0,.3-.232,2.468.027,2.656a21.66,21.66,0,0,0,6.579,3.258c-.084-.025.027-2.5.027-2.656A16.193,16.193,0,0,0,384.079,464.672Z" transform="translate(-162.771 -193.679)"/><path class="ao" d="M455.017,217.174q-2.51-1.09-4.92-2.384a14.722,14.722,0,0,1-.027,2.656,10.828,10.828,0,0,0,.027,2.656q2.411,1.294,4.92,2.384a18.209,18.209,0,0,1,.026-2.656A12.47,12.47,0,0,0,455.017,217.174Z" transform="translate(-192.522 -92.638)"/><path class="ao" d="M161.544,245.545q-2.509-1.091-4.92-2.384a14.777,14.777,0,0,1-.027,2.656,10.828,10.828,0,0,0,.027,2.656q2.411,1.294,4.92,2.384a18.3,18.3,0,0,1,.027-2.656A12.432,12.432,0,0,0,161.544,245.545Z" transform="translate(-72.287 -104.262)"/><path class="ao" d="M477.414,123.166q.01-.939.008-1.878t-.008-1.878a6.676,6.676,0,0,1-.018-.778l-4.074,3.375a3.624,3.624,0,0,0-.018.777q-.01.94-.008,1.88t.008,1.878a6.673,6.673,0,0,1,.018.778l4.074-3.375A3.638,3.638,0,0,0,477.414,123.166Z" transform="translate(-202.066 -53.242)"/><path class="ao" d="M473.739,15.033a35.326,35.326,0,0,0-5.052-2.117,25.094,25.094,0,0,1-.027,2.656,15.034,15.034,0,0,0,.027,2.656,35.326,35.326,0,0,1,5.052,2.117,15.4,15.4,0,0,1,.027-2.656A11.158,11.158,0,0,0,473.739,15.033Z" transform="translate(-200.149 -9.931)"/><path class="ao" d="M134.571,130.765l-3.43-2.515a7.547,7.547,0,0,1-.019.777q-.009.939-.008,1.879t.008,1.878a3.888,3.888,0,0,0,.019.778l3.43,2.515a7.739,7.739,0,0,1,.018-.778q.01-.939.008-1.878t-.008-1.879A3.835,3.835,0,0,0,134.571,130.765Z" transform="translate(-61.877 -57.183)"/><path class="ao" d="M357.475,235.561a13.332,13.332,0,0,0-4.325.406,17.768,17.768,0,0,0-.027,2.656c0,.153.1,2.638.027,2.656a13.331,13.331,0,0,1,4.325-.406C357.393,240.869,357.636,235.573,357.475,235.561Z" transform="translate(-152.818 -101.135)"/><path class="ao" d="M232.024,184.558a7.468,7.468,0,0,1-7.7-2.533c.272.332-.027,2.237-.027,2.656,0,.457-.283,2.278.027,2.656a7.468,7.468,0,0,0,7.7,2.533C232.486,189.753,231.637,184.657,232.024,184.558Z" transform="translate(-100.005 -79.215)"/><path class="ao" d="M369.381,128.645a21.8,21.8,0,0,1-.027-2.656,15,15,0,0,1-4.683.934c-.107,0,.027,5.312,0,5.313a15,15,0,0,0,4.683-.934A13.887,13.887,0,0,0,369.381,128.645Z" transform="translate(-157.548 -56.257)"/><path class="ao" d="M301.808,316.5a6.189,6.189,0,0,1-5.2-2.325,4.623,4.623,0,0,1-.019.777c-.007.626-.008,1.253-.008,1.879s0,1.252.008,1.878a3.082,3.082,0,0,0,.019.779,6.189,6.189,0,0,0,5.2,2.325C301.938,321.8,301.759,316.5,301.808,316.5Z" transform="translate(-129.665 -133.355)"/><path class="an" d="M318.448,173.755a7.66,7.66,0,0,1-4.794-3.5,3.04,3.04,0,0,1-.015.605q-.007.731-.006,1.461t.006,1.461a2.253,2.253,0,0,0,.015.605,7.66,7.66,0,0,0,4.794,3.5c-.049-.012.021-1.949.021-2.066A14.542,14.542,0,0,0,318.448,173.755Z" transform="translate(-136.652 -74.391)"/><path class="an" d="M195.381,161.772c.005-.487.007-.974.007-1.461s0-.974-.007-1.461a2.876,2.876,0,0,1-.014-.605,3.179,3.179,0,0,1-2.3,1.67,18.274,18.274,0,0,0-.021,2.066c0,.112.049,2.061.021,2.066a3.179,3.179,0,0,0,2.3-1.67A2.251,2.251,0,0,0,195.381,161.772Z" transform="translate(-87.244 -69.472)"/><path class="an" d="M211.131,315.009a19.235,19.235,0,0,1-.021-2.066l-4.719,1.582a11.61,11.61,0,0,0-.021,2.066,19.086,19.086,0,0,1,.021,2.066l4.719-1.582A11.56,11.56,0,0,0,211.131,315.009Z" transform="translate(-92.694 -132.851)"/><path class="an" d="M383.69,299.167a5.887,5.887,0,0,1-3.99-3.1,2.874,2.874,0,0,1-.015.605q-.007.73-.006,1.461t.006,1.461a2.28,2.28,0,0,0,.015.605,5.887,5.887,0,0,0,3.99,3.1c-.044-.01.021-1.95.021-2.066A15.374,15.374,0,0,0,383.69,299.167Z" transform="translate(-163.711 -125.939)"/></g></g></svg>