<svg xmlns="http://www.w3.org/2000/svg" xmlns:xlink="http://www.w3.org/1999/xlink" width="222.07" height="353.827" viewBox="0 0 222.07 353.827"><defs><style>.a,.h,.v,.y{stroke:rgba(0,0,0,0);}.a,.b,.d,.e,.h,.v,.w,.x{fill-rule:evenodd;}.a{opacity:0.144;fill:url(#a);}.b{fill:url(#b);}.c{fill:#fff;}.d{fill:url(#e);}.e{fill:url(#f);}.f{fill:url(#i);}.g{fill:#edfdff;}.h{fill:url(#j);}.i{fill:#37465c;}.j,.r{fill:#4b607d;}.k{fill:#3f526e;}.l{fill:#eaedf0;}.m{fill:#bbc5c9;}.n{fill:#3ea37d;}.o{fill:#368f6e;}.p{fill:#5cc29c;}.q{fill:#8dd9bc;}.r{font-size:5px;font-family:Helvetica-Bold, Helvetica;font-weight:700;}.s,.t,.u{fill:none;stroke-linecap:round;stroke-linejoin:round;}.s{stroke:#4b607d;}.s,.t{stroke-width:2px;}.t,.u{stroke:#3ea37d;}.u{stroke-width:4px;}.v{fill:rgba(0,0,0,0.08);}.w{fill:url(#n);}.x{fill:url(#o);}.y{fill:url(#p);}.z{filter:url(#g);}</style><radialGradient id="a" cx="0.5" cy="0.5" r="0.5" gradientUnits="objectBoundingBox"><stop offset="0" stop-color="#fff"/><stop offset="1" stop-color="#fff" stop-opacity="0"/></radialGradient><linearGradient id="b" x1="-0.336" y1="1.06" x2="0.938" y2="0.272" gradientUnits="objectBoundingBox"><stop offset="0" stop-color="#0052bb"/><stop offset="0.251" stop-color="#0052bb"/><stop offset="0.379" stop-color="#195cd6"/><stop offset="0.55" stop-color="#3f6cff"/><stop offset="0.634" stop-color="#477dff"/><stop offset="0.8" stop-color="#5babff"/><stop offset="0.907" stop-color="#6acbff"/><stop offset="1" stop-color="#6acbff"/></linearGradient><linearGradient id="e" x1="-0.336" y1="1.06" x2="0.938" y2="0.272" xlink:href="#b"/><linearGradient id="f" x1="0.214" y1="0.942" x2="0.936" y2="0.363" gradientUnits="objectBoundingBox"><stop offset="0" stop-color="#010d13"/><stop offset="0.1" stop-color="#021018"/><stop offset="0.2" stop-color="#03131d"/><stop offset="0.3" stop-color="#041722"/><stop offset="0.4" stop-color="#051a27"/><stop offset="0.5" stop-color="#061e2c"/><stop offset="0.6" stop-color="#072130"/><stop offset="0.7" stop-color="#082435"/><stop offset="0.8" stop-color="#09283a"/><stop offset="0.9" stop-color="#0a2b3f"/><stop offset="1" stop-color="#0a2e44"/></linearGradient><filter id="g" x="0" y="73.654" width="222.07" height="133.643" filterUnits="userSpaceOnUse"><feOffset dy="11" input="SourceAlpha"/><feGaussianBlur stdDeviation="13" result="h"/><feFlood flood-opacity="0.071"/><feComposite operator="in" in2="h"/><feComposite in="SourceGraphic"/></filter><radialGradient id="i" cx="0.5" cy="0.5" r="0.5" gradientUnits="objectBoundingBox"><stop offset="0" stop-color="#008fff"/><stop offset="1" stop-color="#008fff" stop-opacity="0"/></radialGradient><linearGradient id="j" x1="0.036" y1="0.336" x2="1" y2="0.454" xlink:href="#f"/><linearGradient id="n" x1="0.297" y1="0.035" x2="1" y2="1" xlink:href="#b"/><linearGradient id="o" x1="0.297" y1="0.965" x2="1" y2="0" xlink:href="#b"/><linearGradient id="p" y1="0.319" x2="0.881" y2="0.826" gradientUnits="objectBoundingBox"><stop offset="0" stop-color="#c1272d"/><stop offset="0.493" stop-color="#ed3138"/><stop offset="1" stop-color="#eaa3a6"/></linearGradient></defs><g transform="translate(22.573 367.097)"><g transform="translate(-180.621 -74.229)"><g transform="translate(147.561 -292.159)"><g transform="translate(65.261 304.133)"><path class="a" d="M260.856,8.308c-32.7,0-59.217-10.854-59.217-24.242s26.513-24.243,59.217-24.243,59.216,10.854,59.216,24.243S293.561,8.308,260.856,8.308Z" transform="translate(-201.639 40.177)"/></g><g transform="translate(28.966)"><g transform="translate(66.691)"><g transform="translate(22.911 10.161)"><path class="b" d="M245.811-241.979h5.911v-38.8h-5.911Z" transform="translate(-245.811 280.775)"/></g><g transform="translate(0 44.893)"><path class="b" d="M273.108-226.5H232.277a5.451,5.451,0,0,1-5.451-5.451v-14.593A5.451,5.451,0,0,1,232.277-252h40.831a5.451,5.451,0,0,1,5.451,5.451v14.593A5.451,5.451,0,0,1,273.108-226.5Z" transform="translate(-226.826 251.995)"/></g><g transform="translate(18.29)"><path class="b" d="M257.132-281.62a7.574,7.574,0,0,1-7.574,7.574,7.575,7.575,0,0,1-7.576-7.574,7.576,7.576,0,0,1,7.576-7.575A7.574,7.574,0,0,1,257.132-281.62Z" transform="translate(-241.982 289.195)"/></g><path class="c" d="M253.413-284.972a2.309,2.309,0,0,1-2.309,2.31,2.311,2.311,0,0,1-2.31-2.31,2.31,2.31,0,0,1,2.31-2.309A2.308,2.308,0,0,1,253.413-284.972Z" transform="translate(-222.283 289.591)"/><path class="c" d="M272.447-244.532c-.188.028-.309-1.08-1.23-2.79a15.251,15.251,0,0,0-.924-1.478c-1.587-2.183-6.966-2.135-7.389-2.131-8.379.072-13.765-.459-13.764-.409s3.931-.037,6.809-.1c8.123-.165,12.963-.6,15.037,1.574a6.842,6.842,0,0,1,1.294,2.078C272.866-246.189,272.671-244.565,272.447-244.532Z" transform="translate(-222.212 296.972)"/></g><g transform="translate(0 60.706)"><path class="d" d="M314-101.116H214.239a42.8,42.8,0,0,1-42.676-42.676v-22.17a76.153,76.153,0,0,1,75.93-75.929h33.253a76.152,76.152,0,0,1,75.93,75.929v22.17A42.676,42.676,0,0,1,314-101.116ZM264.12-201.652c-9.5,0-18.647.256-27.4.712-22.91,1.191-41.6,17.056-44.446,37.69l-.062.444c-.84,6.092,2.517,12.031,8.467,14.971a17.857,17.857,0,0,0,7.9,1.825H319.663a17.861,17.861,0,0,0,7.9-1.825c5.949-2.941,9.307-8.88,8.467-14.973l-.062-.447c-2.856-20.712-21.684-36.514-44.681-37.7q-11.605-.6-24.084-.69C266.168-201.649,265.144-201.652,264.12-201.652Z" transform="translate(-171.563 241.891)"/><path class="c" d="M293.048-225.878c1.212,3.894.1,8.764-1.367,9.032-1.373.251-2.782.153-5.439-6.188s-1.352-8.289.592-9.387S291.836-229.772,293.048-225.878Z" transform="matrix(0.966, 0.259, -0.259, 0.966, -212.947, 250.882)"/></g><g transform="translate(20.522 100.946)"><g class="z" transform="matrix(1, 0, 0, 1, -39, -101.65)"><path class="e" d="M316.146-152.9H205.06a17.857,17.857,0,0,1-7.9-1.825c-5.949-2.941-9.307-8.88-8.467-14.971l.062-.444c2.847-20.635,21.536-36.5,44.446-37.69,8.753-.456,17.9-.712,27.4-.712,1.023,0,2.048,0,3.08.008q12.469.072,24.084.69c23,1.186,41.825,16.988,44.681,37.7l.062.447c.84,6.093-2.517,12.032-8.467,14.973A17.861,17.861,0,0,1,316.146-152.9Z" transform="translate(-149.57 310.2)"/></g><path class="c" d="M307.694-176.144c-.845.6-6.734-11.4-22.538-21.8-5.557-3.655-11.042-6.262-10.715-7.02s6.507.661,11.454,2.955C301.652-194.7,308.7-176.852,307.694-176.144Z" transform="translate(-170.813 209.245)"/><g transform="translate(65.688 51.851) rotate(180)"><ellipse class="f" cx="21.722" cy="15.085" rx="21.722" ry="15.085" transform="translate(0)"/><path class="g" d="M288.5-180.989c0,8.3-7.518-2.349-15.035-2.349s-15.035,10.652-15.035,2.349a15.035,15.035,0,0,1,15.035-15.035A15.035,15.035,0,0,1,288.5-180.989Z" transform="translate(-250.67 202.869)"/><g transform="translate(10.168 9.251)"><path class="h" d="M285.684-181.4s-6.315-7.025-12.629-7.025-12.629,7.025-12.629,7.025a12.629,12.629,0,0,1,12.629-12.629A12.629,12.629,0,0,1,285.684-181.4Z" transform="translate(-260.426 194.03)"/></g></g><g transform="translate(117.58 51.851) rotate(180)"><ellipse class="f" cx="21.722" cy="15.085" rx="21.722" ry="15.085" transform="translate(0)"/><path class="g" d="M288.5-180.989c0,8.3-7.518-2.349-15.035-2.349s-15.035,10.652-15.035,2.349a15.035,15.035,0,0,1,15.035-15.035A15.035,15.035,0,0,1,288.5-180.989Z" transform="translate(-250.67 202.869)"/><g transform="translate(10.168 9.251)"><path class="h" d="M285.684-181.4s-6.315-7.025-12.629-7.025-12.629,7.025-12.629,7.025a12.629,12.629,0,0,1,12.629-12.629A12.629,12.629,0,0,1,285.684-181.4Z" transform="translate(-260.426 194.03)"/></g></g></g></g><g transform="translate(64.388 206.153)"><path class="d" d="M324.4-99.618c0,.255,0,.5-.011.731a17.221,17.221,0,0,1-.9,4.867c-7.639,23.332-12.215,35.637-18.634,45.59-1.109,1.718-2.272,3.371-3.525,4.989-1.64,2.161-3.436,4.267-5.432,6.439-4.434,4.822-11.14,7.005-13.3,7.758-7.9,2.795-14.886,2.284-19.531,2.329h-.81c-4.655-.045-11.627.466-19.531-2.329-2.161-.753-8.878-2.936-13.3-7.758-12.193-13.269-16.882-24.3-27.59-57.018a17.111,17.111,0,0,1-.887-4.568,17.742,17.742,0,0,1-.011-1.9,19.844,19.844,0,0,1,4.633-11.25,25.673,25.673,0,0,1,19.975-9.335l37.122-.156,36.446-.144a26.308,26.308,0,0,1,20.5,9.355,20.367,20.367,0,0,1,4.522,9.412c.077.466.145.941.188,1.407C324.363-100.672,324.4-100.152,324.4-99.618Z" transform="translate(-200.916 121.367)"/></g><g transform="matrix(0.839, 0.545, -0.545, 0.839, 144.885, 130.871)"><path class="i" d="M74.218,95.884l-48.865,9.242A8.656,8.656,0,0,1,15.27,98.249L.371,19.476C-1.17,12.773,2.292,9.082,6.955,8.2L56.113.15A8.656,8.656,0,0,1,66.2,7.027l16.1,78.4C83.174,90.088,81.1,94.284,74.218,95.884Z" transform="translate(0 9.542)"/><path class="j" d="M74,95.884l-48.865,9.242A8.656,8.656,0,0,1,15.049,98.25L.15,19.476A8.656,8.656,0,0,1,7.026,9.392L55.891.15A8.655,8.655,0,0,1,65.975,7.026L80.874,85.8A8.656,8.656,0,0,1,74,95.884Z" transform="translate(1.315 7.965)"/><path class="k" d="M43.3,11.18a4.026,4.026,0,0,0,2.457-3.248,3.966,3.966,0,0,0-.043-1.2h0c-.023-.122-.053-.241-.087-.357-.017-.061-.039-.119-.058-.178s-.034-.1-.053-.149c-.03-.078-.063-.154-.1-.23l-.031-.066a4.015,4.015,0,0,0-4.351-2.21l-1.579.3-.473-2.5c-.026-.137-.058-.272-.093-.405-.008-.032-.017-.064-.025-.1-.036-.13-.075-.258-.118-.383l0-.005c-.047-.134-.1-.265-.155-.395L38.566,0V0L4.261,6.488v0c0,.02,0,.04,0,.06,0,.141-.005.282,0,.424V6.98c.005.133.016.266.03.4,0,.033.007.065.011.1.016.137.036.273.062.411l.473,2.5-1.578.3A4.016,4.016,0,0,0,.012,14.334c0,.024,0,.048,0,.073,0,.083-.008.166-.007.25,0,.052,0,.1.005.157s0,.124.011.187c.011.121.027.242.05.364h0A3.966,3.966,0,0,0,.9,17.146,4.037,4.037,0,0,0,3.543,18.6a3.966,3.966,0,0,0,1.2-.043l37.78-7.145A3.987,3.987,0,0,0,43.3,11.18Z" transform="translate(10.106 9.729)"/><path class="k" d="M72.928,81.605,63.889,42.665l-.023-.122L58.572,1.895a.27.27,0,0,0-.1-.18.275.275,0,0,0-.2-.054l-2.082.271L55.953.7a.271.271,0,0,0-.317-.216L54.164.763,54.036.21a.271.271,0,0,0-.326-.2L34.128,4.552l-4.28.81L3.805,8.754a.271.271,0,0,0-.234.3L3.733,10.3l-2.063.39a.271.271,0,0,0-.216.317l.2,1.08L.21,12.424a.272.272,0,0,0-.2.326l9.216,39.7,5.14,39.468a.272.272,0,0,0,.3.234l2.082-.271.233,1.231a.271.271,0,0,0,.317.216l1.351-.255.249,1.073a.272.272,0,0,0,.264.21.267.267,0,0,0,.062-.007l27.383-6.357L69.13,85.058a.271.271,0,0,0,.234-.3L69.2,83.512l2.063-.39a.271.271,0,0,0,.216-.317l-.106-.56,1.35-.313A.271.271,0,0,0,72.928,81.605Z" transform="translate(5.046 15.921)"/><rect class="l" width="54.922" height="83.559" transform="translate(9.319 23.347) rotate(-7.421)"/><rect class="m" width="54.922" height="83.559" transform="translate(5.75 27.012) rotate(-13.067)"/><rect class="c" width="54.922" height="83.559" transform="matrix(0.983, -0.186, 0.186, 0.983, 7.199, 25.281)"/><g transform="translate(17.382 37.456)"><circle class="l" cx="4.035" cy="4.035" r="4.035" transform="matrix(0.966, -0.26, 0.26, 0.966, 0, 8.006)"/><path class="l" d="M27.837,1.594.954,6.679a.807.807,0,0,1-.94-.641h0A.806.806,0,0,1,.655,5.1L27.538.014a.806.806,0,0,1,.94.641h0A.807.807,0,0,1,27.837,1.594Z" transform="translate(11.297 3.612)"/><path class="l" d="M31.466,1.594.954,7.365a.806.806,0,0,1-.94-.641h0a.806.806,0,0,1,.641-.94L31.168.014a.807.807,0,0,1,.94.641h0A.806.806,0,0,1,31.466,1.594Z" transform="translate(9.382 0)"/><path class="l" d="M26.692,1.594.954,6.462a.806.806,0,0,1-.94-.641h0a.807.807,0,0,1,.641-.94L26.393.014a.807.807,0,0,1,.94.641h0A.807.807,0,0,1,26.692,1.594Z" transform="translate(10.583 7.252)"/></g><g transform="translate(19.766 50.062)"><circle class="l" cx="4.035" cy="4.035" r="4.035" transform="translate(0 8.005) rotate(-15.046)"/><path class="l" d="M27.837,1.594.954,6.679a.806.806,0,0,1-.94-.641h0A.807.807,0,0,1,.655,5.1L27.538.014a.807.807,0,0,1,.94.641h0A.807.807,0,0,1,27.837,1.594Z" transform="translate(11.296 3.612)"/><path class="l" d="M31.466,1.594.954,7.365a.806.806,0,0,1-.94-.641h0a.806.806,0,0,1,.641-.94L31.167.014a.807.807,0,0,1,.94.641h0A.806.806,0,0,1,31.466,1.594Z" transform="translate(9.382 0)"/><path class="l" d="M26.692,1.594.954,6.462a.807.807,0,0,1-.94-.641h0a.807.807,0,0,1,.641-.94L26.393.014a.807.807,0,0,1,.94.641h0A.807.807,0,0,1,26.692,1.594Z" transform="translate(10.582 7.252)"/></g><g transform="translate(22.432 62.668)"><circle class="l" cx="4.035" cy="4.035" r="4.035" transform="matrix(0.985, -0.17, 0.17, 0.985, 0, 7.565)"/><path class="l" d="M27.837,1.594.954,6.679a.806.806,0,0,1-.94-.641h0A.807.807,0,0,1,.655,5.1L27.538.014a.806.806,0,0,1,.94.641h0A.807.807,0,0,1,27.837,1.594Z" transform="translate(11.015 3.612)"/><path class="l" d="M31.467,1.594.953,7.365a.807.807,0,0,1-.94-.641h0a.807.807,0,0,1,.641-.94L31.168.014a.806.806,0,0,1,.94.641h0A.806.806,0,0,1,31.467,1.594Z" transform="translate(9.101 0)"/></g><g transform="translate(24.839 76.032)"><circle class="l" cx="4.035" cy="4.035" r="4.035" transform="matrix(0.987, -0.163, 0.163, 0.987, 0, 6.773)"/><path class="l" d="M23.826,1.594.954,5.92a.806.806,0,0,1-.94-.641h0a.807.807,0,0,1,.641-.94L23.527.014a.806.806,0,0,1,.94.641h0A.807.807,0,0,1,23.826,1.594Z" transform="translate(10.992 3.612)"/><path class="l" d="M27.455,1.594.954,6.607a.807.807,0,0,1-.94-.641h0a.807.807,0,0,1,.641-.94L27.156.014a.807.807,0,0,1,.94.641h0A.806.806,0,0,1,27.455,1.594Z" transform="translate(9.077 0)"/></g><g transform="translate(11.502 0)"><path class="n" d="M4.114.089a5.051,5.051,0,1,0,5.9,4.025A5.052,5.052,0,0,0,4.114.089Zm1.249,6.6A1.667,1.667,0,1,1,6.69,4.743,1.667,1.667,0,0,1,5.362,6.69Z" transform="translate(14.767 0)"/><path class="o" d="M2.369.051a2.908,2.908,0,1,0,3.4,2.317A2.908,2.908,0,0,0,2.369.051Zm.85,4.5A1.667,1.667,0,1,1,4.547,2.6,1.667,1.667,0,0,1,3.219,4.547Z" transform="translate(16.91 2.143)"/><path class="n" d="M9.559,0H25.677a9.559,9.559,0,0,1,9.559,9.559v0a6.3,6.3,0,0,1-6.3,6.3H6.3A6.3,6.3,0,0,1,0,9.559v0A9.559,9.559,0,0,1,9.559,0Z" transform="matrix(0.983, -0.186, 0.186, 0.983, 3.217, 12.073)"/><path class="o" d="M30.885,3.3,4.266,8.334A4.085,4.085,0,0,1,.037,6.449a6.126,6.126,0,0,0,.07,1.81l1.042,5.51a4.085,4.085,0,0,0,4.759,3.245l26.618-5.034a4.085,4.085,0,0,0,3.245-4.759l-1.042-5.51A6.125,6.125,0,0,0,34.134,0,4.084,4.084,0,0,1,30.885,3.3Z" transform="translate(4.258 9.885)"/><path class="p" d="M42.527,7.937,4.747,15.082A4.015,4.015,0,0,1,.07,11.892h0a4.015,4.015,0,0,1,3.19-4.678L41.039.07a4.015,4.015,0,0,1,4.677,3.19h0A4.015,4.015,0,0,1,42.527,7.937Z" transform="translate(0 13.729)"/><path class="q" d="M18.526,1.675,1,4.989a.847.847,0,0,1-.987-.673h0a.847.847,0,0,1,.673-.987L18.212.015A.847.847,0,0,1,19.2.688h0A.847.847,0,0,1,18.526,1.675Z" transform="translate(6.113 17.975)"/><path class="q" d="M11.234,1.675,1,3.61a.847.847,0,0,1-.987-.673h0A.847.847,0,0,1,.688,1.95L10.92.015a.847.847,0,0,1,.987.673h0A.847.847,0,0,1,11.234,1.675Z" transform="translate(26.962 15.411)"/><path class="p" d="M15.45,1.675,1,4.407a.847.847,0,0,1-.987-.673h0a.847.847,0,0,1,.673-.987L15.136.015a.847.847,0,0,1,.987.673h0A.847.847,0,0,1,15.45,1.675Z" transform="translate(8.18 9.517)"/><path class="p" d="M7.018,1.675,1,2.812A.847.847,0,0,1,.015,2.14h0a.847.847,0,0,1,.673-.987L6.7.015a.847.847,0,0,1,.987.673h0A.847.847,0,0,1,7.018,1.675Z" transform="translate(26.477 7.652)"/><path class="n" d="M45.253,0A4.015,4.015,0,0,1,42.04,3.357L4.261,10.5A4.015,4.015,0,0,1,.045,8.55,3.958,3.958,0,0,0,.067,9.871h0a4.015,4.015,0,0,0,4.677,3.19l37.78-7.145a4.015,4.015,0,0,0,3.19-4.677h0A3.956,3.956,0,0,0,45.253,0Z" transform="translate(0.002 15.751)"/></g><g transform="translate(16.156 24.218)"><text class="r" transform="translate(15.175 6.602) rotate(-10.71)"><tspan x="-8.75" y="0">TERMS</tspan></text><line class="s" y1="7.739" x2="40.919" transform="translate(0 4.96)"/></g><path class="t" d="M0,2.106,2.467,3.793,4.584,0" transform="translate(19.597 46.683)"/><path class="t" d="M0,2.106,2.467,3.793,4.584,0" transform="translate(22.326 59.02)"/><path class="u" d="M0,2.106,2.467,3.793,4.584,0" transform="translate(27.186 84.231)"/></g><g transform="matrix(0.407, -0.914, 0.914, 0.407, 65.037, 250.415)"><g transform="translate(47.371 38.953)"><path class="v" d="M12.34,4.989C11.231,3.27,10.068,1.618,8.815,0c-.4.41-.754.821-1.074,1.2C2.664,7.138.175,7.359.1,11.7-.446,40.5,1.454,49.639,2,20.929,2.076,16.585,7.186,11.053,12.252,5.1Z" transform="translate(0)"/></g><path class="w" d="M1.794,21.295c-.543,28.8-4.439,34.489,1.307,41.34a16.96,16.96,0,0,0,9.574,5.83A16.1,16.1,0,0,0,23,66.792c11.524-6.528,8.1-34.828.514-52.694C21.857,10.2,17.417-.244,12,0c-2.216.1-3.851,1.966-5,3.309C1.931,9.257,1.874,16.954,1.794,21.295Z" transform="translate(47.577 38.584)"/></g><g transform="matrix(-0.407, -0.914, 0.914, -0.407, 72.894, 253.968)"><g transform="translate(3.49 29.916)"><path class="v" d="M12.341,33.434c-1.109,1.718-2.272,3.371-3.525,4.989-.4-.41-.754-.821-1.074-1.2C2.664,31.285.175,31.064.1,26.719-.447-2.079,1.454-11.216,2,17.494c.077,4.344,5.188,9.876,10.254,15.829Z" transform="translate(0)"/></g><path class="x" d="M1.794,47.413C1.251,18.617-2.645,12.924,3.1,6.073A16.959,16.959,0,0,1,12.674.243,16.1,16.1,0,0,1,23,1.916c11.524,6.528,8.1,34.828.514,52.694C21.857,58.5,17.417,68.952,12,68.7c-2.216-.1-3.851-1.966-5-3.309C1.931,59.451,1.875,51.754,1.794,47.413Z" transform="translate(3.696 0)"/><path class="c" d="M8.334,17.039c2.408,1.949,4.489,3.042,8.647,5.225,5.442,2.855,8.873,3.382,8.9,5.07.017,1.1-1.42,1.94-1.744,2.13-4.931,2.882-13.648-2.7-18.241-7.147C3.084,19.592.472,15.954,1.287,14.76a1.624,1.624,0,0,1,1.06-.647C4.469,13.871,6.5,15.559,8.334,17.039Z" transform="translate(-40.131 92.643) rotate(-69)"/><path class="c" d="M.84,3.946a1.13,1.13,0,1,1,1.594-.084A1.129,1.129,0,0,1,.84,3.946Z" transform="translate(-33.253 98.625) rotate(-69)"/></g></g><path class="y" d="M16.789,13.964q-2.534-3.949-6.218-3.949h-.4q-3.686,0-6.276,3.949A17.054,17.054,0,0,0,1.3,23.529V40.641a17.051,17.051,0,0,0,2.591,9.565q2.591,3.949,6.276,3.949h.4q3.684,0,6.218-3.949a17.051,17.051,0,0,0,2.591-9.565V23.529a17.055,17.055,0,0,0-2.591-9.565Zm-3.282,41.07H7.173q-2.418,0-4.146,2.633A11.424,11.424,0,0,0,1.3,64.072v.175a11.259,11.259,0,0,0,1.727,6.318Q4.755,73.2,7.173,73.2h6.334q2.418,0,4.146-2.633a11.259,11.259,0,0,0,1.727-6.318v-.175a11.424,11.424,0,0,0-1.727-6.406Q15.925,55.033,13.507,55.033Z" transform="translate(351.356 -302.382)"/></g></g></svg>