<svg xmlns="http://www.w3.org/2000/svg" xmlns:xlink="http://www.w3.org/1999/xlink" width="518.453" height="137.615" viewBox="0 0 518.453 137.615"><defs><style>.a{fill:url(#a);}.b{fill:url(#d);}.c{fill:url(#e);}.d{fill:url(#f);}.e{fill:url(#g);}.f{fill:url(#h);}.g{fill:url(#i);}.h{fill:url(#l);}.i{fill:#fff;font-size:31px;font-family:Lato-Italic, Lato;font-style:italic;}.j{filter:url(#j);}.k{filter:url(#b);}</style><linearGradient id="a" y1="0.5" x2="1" y2="0.5" gradientUnits="objectBoundingBox"><stop offset="0"/><stop offset="1" stop-color="#58595b"/></linearGradient><filter id="b" x="0" y="0" width="518.453" height="137.615" filterUnits="userSpaceOnUse"><feOffset dy="3" input="SourceAlpha"/><feGaussianBlur stdDeviation="10" result="c"/><feFlood/><feComposite operator="in" in2="c"/><feComposite in="SourceGraphic"/></filter><linearGradient id="d" y1="0.5" x2="1" y2="0.5" gradientUnits="objectBoundingBox"><stop offset="0" stop-color="#6d6e70"/><stop offset="1" stop-color="#bbbdbf"/></linearGradient><linearGradient id="e" x1="0.5" y1="0.992" x2="0.5" y2="0.066" gradientUnits="objectBoundingBox"><stop offset="0"/><stop offset="0.202" stop-color="#020202"/><stop offset="0.309" stop-color="#090a0a"/><stop offset="0.393" stop-color="#171717"/><stop offset="0.466" stop-color="#292a2a"/><stop offset="0.532" stop-color="#414243"/><stop offset="0.591" stop-color="#5f6061"/><stop offset="0.614" stop-color="#6d6e70"/><stop offset="1" stop-color="#fff"/></linearGradient><radialGradient id="f" cx="-47778.155" cy="-20968.81" r="5106.812" gradientTransform="translate(-45534.629 -21093.151) scale(0.078 0.037)" gradientUnits="userSpaceOnUse"><stop offset="0.145" stop-color="#fff"/><stop offset="0.57" stop-color="#d4d4d4"/><stop offset="1" stop-color="#f3f3f3"/></radialGradient><linearGradient id="g" x1="0.5" y1="-0.004" x2="0.5" y2="0.996" gradientUnits="objectBoundingBox"><stop offset="0"/><stop offset="0.461" stop-color="#6d6e70"/><stop offset="1" stop-color="#fff"/></linearGradient><linearGradient id="h" x1="0.794" y1="-0.706" x2="0.214" y2="1.676" gradientUnits="objectBoundingBox"><stop offset="0"/><stop offset="0.122" stop-color="#020202"/><stop offset="0.195" stop-color="#0a0a0a"/><stop offset="0.255" stop-color="#191919"/><stop offset="0.309" stop-color="#2d2d2d"/><stop offset="0.357" stop-color="#474747"/><stop offset="0.403" stop-color="#676768"/><stop offset="0.446" stop-color="#8d8e8e"/><stop offset="0.485" stop-color="#b8b9ba"/><stop offset="0.521" stop-color="#e6e7e8"/><stop offset="0.546" stop-color="#c6c7c8"/><stop offset="0.588" stop-color="#989999"/><stop offset="0.633" stop-color="#6f7070"/><stop offset="0.68" stop-color="#4d4d4d"/><stop offset="0.729" stop-color="#303131"/><stop offset="0.782" stop-color="#1b1b1b"/><stop offset="0.839" stop-color="#0b0b0b"/><stop offset="0.905" stop-color="#020202"/><stop offset="1"/></linearGradient><linearGradient id="i" x1="0.5" y1="0.006" x2="0.5" y2="1.018" gradientUnits="objectBoundingBox"><stop offset="0" stop-color="#a30000"/><stop offset="0.233" stop-color="#b30500"/><stop offset="0.691" stop-color="#de1500"/><stop offset="1" stop-color="#ff2100"/></linearGradient><filter id="j" x="21.042" y="23.202" width="477.688" height="96.848" filterUnits="userSpaceOnUse"><feOffset dy="6" input="SourceAlpha"/><feGaussianBlur stdDeviation="5" result="k"/><feFlood flood-opacity="0.251"/><feComposite operator="in" in2="k"/><feComposite in="SourceGraphic"/></filter><linearGradient id="l" x1="0.5" y1="-0.008" x2="0.5" y2="0.999" gradientUnits="objectBoundingBox"><stop offset="0" stop-color="#fff"/><stop offset="1" stop-color="#fff" stop-opacity="0"/></linearGradient></defs><g transform="translate(-852.525 -712.748)"><g transform="translate(882.525 739.748)"><g transform="translate(0)"><g class="k" transform="matrix(1, 0, 0, 1, -30, -27)"><path class="a" d="M12.679,0h433.1a12.679,12.679,0,0,1,12.679,12.679V64.936a12.679,12.679,0,0,1-12.679,12.679H12.678A12.678,12.678,0,0,1,0,64.937V12.679A12.679,12.679,0,0,1,12.679,0Z" transform="translate(30 27)"/></g><path class="b" d="M12.38,0H444.634a12.377,12.377,0,0,1,12.377,12.377V63.8a12.378,12.378,0,0,1-12.378,12.378H12.377A12.377,12.377,0,0,1,0,63.8V12.38A12.38,12.38,0,0,1,12.38,0Z" transform="translate(0.721 0.721)"/><path class="c" d="M2124.555,1014.555c0,9.38-11.727,16.981-26.189,16.981H1694.112c-14.454,0-26.178-7.6-26.178-16.981V973.5c0-9.378,11.724-16.983,26.178-16.983h404.254c14.462,0,26.189,7.6,26.189,16.983Z" transform="translate(-1667.191 -955.792)"/><g transform="translate(0.743 0.721)"><path class="d" d="M2124.592,990.446l-.17-21.251c0-7-13.313-12.682-27.561-12.682H1693.731c-14.244,0-25.8,5.681-25.8,12.682v19.959C1695.375,992.9,2091.236,993.193,2124.592,990.446Z" transform="translate(-1667.934 -956.513)"/></g><path class="e" d="M2121.843,1014.956c0,8.09-10.723,14.65-23.958,14.65H1694.967c-13.247,0-23.98-6.56-23.98-14.65v-40.71c0-8.089,10.733-14.655,23.98-14.655h402.919c13.235,0,23.958,6.567,23.958,14.655Z" transform="translate(-1667.191 -955.792)"/><path class="f" d="M10.764,0H438.543a10.765,10.765,0,0,1,10.765,10.765V57.7a10.768,10.768,0,0,1-10.768,10.768H10.765A10.765,10.765,0,0,1,0,57.7V10.764A10.764,10.764,0,0,1,10.764,0Z" transform="translate(4.572 4.573)"/><g class="j" transform="matrix(1, 0, 0, 1, -30, -27)"><path class="g" d="M2097.545,961.176H1695.28c-12.541,0-22.706,6.263-22.706,13.991v38.865c0,7.731,10.164,13.991,22.706,13.991h402.265c12.552,0,22.717-6.26,22.717-13.991V975.167C2120.262,967.439,2110.1,961.176,2097.545,961.176Z" transform="translate(-1636.53 -928.97)"/></g><path class="h" d="M10.038,0H435.8a10.04,10.04,0,0,1,10.04,10.04v6.706a10.04,10.04,0,0,1-10.04,10.04H10.04A10.04,10.04,0,0,1,0,16.746V10.038A10.038,10.038,0,0,1,10.038,0Z" transform="translate(6.307 6.311)"/></g><text class="i" transform="translate(231.406 50.364)"><tspan x="-184.737" y="0">YES, UNLINK MY ACCOUNT</tspan></text></g></g></svg>