<svg xmlns="http://www.w3.org/2000/svg" width="66.269" height="65.824" viewBox="0 0 66.269 65.824"><defs><style>.a{fill:#020b48;stroke:#59b7e7;stroke-width:2px;}.b{fill:#3b4a9f;}.c{fill:#59b7e7;}.d{fill:#4674b9;}</style></defs><g transform="translate(-485.368 -577.367)"><rect class="a" width="64.269" height="63.824" rx="10" transform="translate(486.368 578.367)"/><g transform="translate(505.375 589.428)"><path class="b" d="M772.857,772.878v6.856a.539.539,0,0,0,.81.465l5.988-3.456a.536.536,0,0,0,.27-.467V769.42a.54.54,0,0,0-.81-.466l-5.988,3.456a.542.542,0,0,0-.27.469" transform="translate(-749.662 -759.501)"/><path class="b" d="M772.857,780.865v6.854a.54.54,0,0,0,.81.469l5.988-3.457a.539.539,0,0,0,.27-.468v-6.855a.539.539,0,0,0-.81-.468l-5.988,3.456a.54.54,0,0,0-.27.469" transform="translate(-749.662 -758.617)"/><path class="b" d="M765.9,784.883v6.855a.54.54,0,0,0,.81.469l5.986-3.458a.532.532,0,0,0,.27-.465v-6.857a.541.541,0,0,0-.81-.468l-5.986,3.458a.541.541,0,0,0-.27.466" transform="translate(-750.432 -758.172)"/><path class="c" d="M772.962,772.878v6.856a.539.539,0,0,1-.81.465l-5.986-3.456a.539.539,0,0,1-.27-.467V769.42a.54.54,0,0,1,.81-.466l5.986,3.456a.537.537,0,0,1,.27.469" transform="translate(-750.432 -759.501)"/><path class="d" d="M773.521,764.5l5.938,3.429a.54.54,0,0,1,0,.936l-5.985,3.455a.544.544,0,0,1-.54,0L767,768.9a.538.538,0,0,1,0-.933l5.987-3.459a.542.542,0,0,1,.539,0" transform="translate(-750.34 -759.993)"/><path class="d" d="M766.6,760.508l5.936,3.43a.539.539,0,0,1,0,.934l-5.986,3.455a.538.538,0,0,1-.54,0l-5.937-3.426a.54.54,0,0,1,0-.935l5.987-3.458a.539.539,0,0,1,.54,0" transform="translate(-751.106 -760.436)"/><path class="c" d="M759.04,772.878v6.856a.539.539,0,0,1-.81.465l-5.988-3.456a.536.536,0,0,1-.27-.467V769.42a.54.54,0,0,1,.81-.466l5.988,3.456a.542.542,0,0,1,.27.469" transform="translate(-751.973 -759.501)"/><path class="c" d="M759.04,780.865v6.854a.54.54,0,0,1-.81.469l-5.988-3.457a.539.539,0,0,1-.27-.468v-6.855a.54.54,0,0,1,.81-.468l5.988,3.456a.54.54,0,0,1,.27.469" transform="translate(-751.973 -758.617)"/><path class="c" d="M759.04,788.85v6.856a.539.539,0,0,1-.81.468l-5.988-3.456a.542.542,0,0,1-.27-.468v-6.857a.541.541,0,0,1,.81-.468l5.988,3.458a.541.541,0,0,1,.27.468" transform="translate(-751.973 -757.734)"/><path class="c" d="M766,784.883v6.855a.54.54,0,0,1-.81.469l-5.986-3.458a.533.533,0,0,1-.269-.465v-6.857a.54.54,0,0,1,.809-.468l5.986,3.458a.539.539,0,0,1,.27.466" transform="translate(-751.203 -758.172)"/><path class="b" d="M758.936,772.878v6.856a.538.538,0,0,0,.809.465l5.986-3.456a.536.536,0,0,0,.27-.467V769.42a.54.54,0,0,0-.81-.466L759.2,772.41a.539.539,0,0,0-.269.469" transform="translate(-751.203 -759.501)"/><path class="d" d="M758.967,764.5l-5.938,3.429a.541.541,0,0,0,0,.936l5.985,3.455a.546.546,0,0,0,.541,0l5.938-3.429a.539.539,0,0,0,0-.933l-5.988-3.459a.542.542,0,0,0-.539,0" transform="translate(-751.886 -759.993)"/><path class="d" d="M766.538,776.5l5.939,3.428a.541.541,0,0,1,0,.936l-5.987,3.455a.541.541,0,0,1-.541,0l-5.939-3.426a.542.542,0,0,1,0-.935L766,776.5a.542.542,0,0,1,.539,0" transform="translate(-751.113 -758.666)"/><path class="b" d="M758.936,788.518V795.3a.538.538,0,0,0,.809.468l5.874-3.393Z" transform="translate(-751.203 -757.328)"/></g></g></svg>