<svg xmlns="http://www.w3.org/2000/svg" xmlns:xlink="http://www.w3.org/1999/xlink" width="66.411" height="65.938" viewBox="0 0 66.411 65.938"><defs><style>.a{fill:url(#a);}.b{fill:#000733;}.c{fill:#fff;}</style><linearGradient id="a" x1="0.989" y1="1" x2="0" y2="0.178" gradientUnits="objectBoundingBox"><stop offset="0" stop-color="#faf600"/><stop offset="0.266" stop-color="#f8df16"/><stop offset="0.493" stop-color="#e1b200"/><stop offset="0.818" stop-color="#d38f00"/><stop offset="1" stop-color="#924400"/></linearGradient></defs><g transform="translate(-485.276 -576.76)"><g transform="translate(394.563 32.938)"><rect class="a" width="66.411" height="65.938" rx="10" transform="translate(90.713 543.822)"/><rect class="b" width="62.411" height="61.938" rx="10" transform="translate(92.312 545.822)"/></g><g transform="translate(428.823 575.708)"><path class="c" d="M73.689,23.115a1.2,1.2,0,0,0-.621.368c-.215.252-.223.29-.217,1.049.005.438,0,1.212-.022,1.733-.019.934-.019.934-.193.876a2.074,2.074,0,0,0-1.32.074c-.121.125-.121.125.015.08.1-.028.135-.015.109.047a.113.113,0,0,1-.127.079c-.056-.009-.091.136-.095.395a6,6,0,0,1-.056.7.484.484,0,0,0,.16.495c.187.205.252.223.819.231.53.007.624.033.658.144.042.182-.127,9.216-.175,9.343-.027.071-.2.1-.549.1a1.591,1.591,0,0,0-.755.126c-.238.141-.247.154-.264.773-.032,1.26,0,1.308,1,1.32l.667.009-.046,1.518c-.056,2.14,0,2.234,1.538,2.338,2.277.148,8.95.279,10.047.2a10.2,10.2,0,0,1,1.09-.016c.513.015.641.009.735-.081.082-.061.111-.061.111,0a.09.09,0,0,0,.079.091c.046,0,.082-.07.083-.163s-.028-.138-.079-.113-.081.008-.08-.039c0-.145.191-.044.273.148.079.176.1.176,1.858.2.98.013,2.326.054,2.992.085A22.964,22.964,0,0,0,95.94,45.1c0-.064.04-.111.091-.109s.071.056.037.119c-.032.1.053.12.566.127.331.013,2.162.043,4.071.076s3.435.035,3.413,0,.026-.055.094-.054.1.04.072.1a6.093,6.093,0,0,0,2.327-.12c.582-.277.618-.4.643-2.115a14.6,14.6,0,0,1,.085-1.663c.031-.092.1-.11.223-.069a3.17,3.17,0,0,0,1.253-.032c.1-.063.093-.071-.024-.081-.091,0-.136-.038-.11-.1s.073-.089.111-.08a3.21,3.21,0,0,0,.111-1.4c-.186-.343-.215-.36-.938-.405l-.72-.048.043-4.775.034-4.767.7.008c.649.009.7-.007.9-.208A.476.476,0,0,0,109.1,29a4.956,4.956,0,0,1-.039-.688c0-.267-.025-.413-.085-.4a.122.122,0,0,1-.127-.09c-.024-.063.011-.081.112-.045.127.048.127.04.027-.071a2.161,2.161,0,0,0-1.265-.119c-.358.089-.386.005-.42-1.422-.061-2.2-.222-2.52-1.306-2.5a3.235,3.235,0,0,1-.666-.037,11.471,11.471,0,0,0-2.109-.2c-.262.005-.72,0-1.026-.005s-1.868-.005-3.485-.017-3.231-.016-3.6-.009-.833.02-1.029.014c-3.072-.085-5.618-.135-5.755-.1-.1.023-.175.07-.158.1s-.018.063-.066.07-.079-.026-.079-.082c0-.072-.382-.1-1.62-.113-1.26-.016-1.614,0-1.611.074s-.03.1-.1.1-.1-.03-.081-.072c.095-.144-.417-.171-4.025-.216-2-.025-4.283-.072-5.068-.094a8.1,8.1,0,0,0-1.822.042Zm16.066,2.348c10.836.152,14.424.172,14.425.109s.026-.064.063,0a.754.754,0,0,0,.448.125l.4.03,0,.395c.009.634.031,7.031.02,7.167-.033.675-.073,5.766-.057,7.54a8.4,8.4,0,0,1-.076,2.325,2.558,2.558,0,0,1-.658.03c-.586-.033-2.725-.06-10.925-.154-4.253-.045-4.806-.035-4.77.068.029.081-.009.118-.111.117s-.144-.039-.109-.119c.04-.1-.457-.117-3.981-.16-2.207-.019-4.67-.03-5.473-.014a8,8,0,0,1-1.44-.026c0-.095-.274-.068-.382.032-.072.072-.12.08-.156.015a2.661,2.661,0,0,0-1.035-.115,7.154,7.154,0,0,1-1.045-.068,1.84,1.84,0,0,1-.064-.68c.007-.531-.009-.625-.111-.588-.081.028-.119-.011-.118-.112s.04-.144.121-.109c.1.04.123-.308.162-2.825.15-9.47.149-9.361.038-9.4-.063-.025-.079-.054-.023-.089a2.678,2.678,0,0,0,.041-1.379.562.562,0,0,1-.025-.386,6.024,6.024,0,0,0,.094-.97c.014-.484.03-.918.03-.98s.055-.09.148-.037c.07.031,6.63.15,14.566.26Z" transform="translate(0)"/><path class="c" d="M103.21,29.8l-1.687,0-.315.3a.913.913,0,0,0-.366.725,23.518,23.518,0,0,0-.06,3.485c.026.9.041,1.767.022,1.942s-.051,1.629-.072,3.246l-.044,2.929.187.313a1.215,1.215,0,0,0,.435.416,19.339,19.339,0,0,0,3.918.088,1.133,1.133,0,0,0,.756-.941c.089-.768.129-6.617.047-6.839l-.087-.213-1.086-.014a3.38,3.38,0,0,0-1.181.077,2.028,2.028,0,0,0-.1.854l-.011.759.235.139.235.148,0,.886c-.006.493-.016,1.283-.03,1.775a3.178,3.178,0,0,0,.069,1.027.353.353,0,0,1,0,.357c-.085.211-.092.211-.68.174-.676-.037-.8-.089-.673-.245.091-.11.2-5.645.16-8.248l-.022-1.275.568-.021c.849-.028.841-.036.834.532a1.258,1.258,0,0,0,.086.588c.072.072.072.094,0,.093-.174,0-.1.22.085.264a5.053,5.053,0,0,0,1.482-.054,8.888,8.888,0,0,0,.119-1.363l.046-1.3-.217-.224c-.188-.193-.353-.258-.883-.348-.049-.02-.851-.03-1.768-.029Zm-22.628-.132a4.93,4.93,0,0,0-.093,1.619c0,1.775,0,1.639.092,1.493.066-.094.082-.071.079.095,0,.111-.04.22-.1.236-.072.025-.1.364-.109,1.179-.02.989-.041,1.171-.16,1.288s-.148.283-.157,1.012a2.986,2.986,0,0,0,.044.834c.073-.07.338.178.336.323,0,.055-.026.1-.056.1a22.834,22.834,0,0,0-.121,2.414c-.026,1.328-.013,2.417.017,2.417s.109.091.155.2c.085.193.116.2.876.211,1.171.015,1.1.158,1.12-2.723,0-1.261,0-2.329-.016-2.37-.084-.34-.042-.356,1.082-.342,1.219.015,1.678-.069,1.953-.348l.185-.2.07-3.435a30.678,30.678,0,0,0-.019-3.6c-.2-.368-.407-.4-2.822-.456a10.117,10.117,0,0,0-2.36.048Zm3.1,1.936c.009.081,0,.925-.006,1.885s0,1.677.018,1.6c.067-.236.184-.142.18.15,0,.23-.028.276-.129.236s-.112-.009-.081.093c.036.12-.011.135-.486.1a1.536,1.536,0,0,1-.631-.142c-.125-.129-.131-.359-.013-.358a6.867,6.867,0,0,0,.061-1.812c0-1,.007-1.838.033-1.859a2.035,2.035,0,0,1,.556-.041c.426.011.5.032.5.143Zm3.675-1.878a4.191,4.191,0,0,0,.033,1.887c.046-.009.093.04.092.1s-.048.109-.095.092c-.072-.008-.113.118-.132.4-.021.331-.005.411.075.366s.082-.036.017.056c-.129.164-.328,9.132-.215,9.665a.864.864,0,0,0,.348.582l.262.208,2.076,0c2.315,0,2.481-.041,2.736-.523.18-.337.285-3,.3-7.655,0-1.893.017-3.778.023-4.173a1.757,1.757,0,0,0-.079-.794.086.086,0,0,0-.127.036c-.04.136-.177.118-.175-.027,0-.093-.125-.121-.674-.127-1.088-.014-1-.276-1.04,3.375-.013,1.685-.015,3.54,0,4.109.028.752.013,1.054-.05,1.053-.146,0-.105.3.048.386.093.064.111.1.038.144a3.443,3.443,0,0,0-.134,1.145c-.037.917-.06,1.107-.181,1.226-.136.134-.149.134-.244,0a.607.607,0,0,0-.688-.054c-.239.116-.483-.117-.415-.4.058-.238.178-6.807.171-9.19l-.011-1.631-.338-.186c-.227-.13-.392-.18-.489-.132a2.076,2.076,0,0,1-.91-.021.312.312,0,0,0-.227.088Zm7.056.081a20.966,20.966,0,0,0-.072,3.379,3.688,3.688,0,0,1,.007.833,1.632,1.632,0,0,0,.009.649c.1.129-.005.42-.151.418-.064,0-.093.038-.072.081s-.011.134-.075.2A2.19,2.19,0,0,0,94,36.708a.256.256,0,0,1,.078.2.18.18,0,0,0,.087.174,11.83,11.83,0,0,1,.061,2.6,21.259,21.259,0,0,0,.038,2.672c.038.046.036.11.007.127a.614.614,0,0,0-.042.365l.027.323h2.114c3.151.014,2.964.238,3.021-3.659.034-2.619.027-2.739-.121-2.9-.468-.521-.522-.619-.394-.686.32-.168.4-.533.434-1.722.015-.633.046-1.782.069-2.555.043-1.328.035-1.418-.124-1.567-.242-.249-.613-.3-2.76-.337a7.535,7.535,0,0,0-2.077.066Zm2.941,1.846a21.7,21.7,0,0,1-.038,3c-.015.577-.056.611-.648.505l-.339-.05-.038-.688c-.021-.384-.037-.743-.045-.807s.033-.558.069-1.09l.068-.968.458.007A.925.925,0,0,1,97.353,31.655Zm-.1,5.564a8.887,8.887,0,0,1,.047,1.355c-.009.7-.013,1.593-.018,2a3.349,3.349,0,0,1-.047.8,1.648,1.648,0,0,1-1.023-.069c-.087-.072-.1-.166-.048-.383a18.066,18.066,0,0,0,.1-1.994c.018-1.473.038-1.718.148-1.795A1.008,1.008,0,0,1,97.249,37.219Z" transform="translate(-3.067 -2.212)"/></g></g></svg>
