<svg xmlns="http://www.w3.org/2000/svg" width="42.998" height="25.272" viewBox="0 0 42.998 25.272"><defs><style>.a{fill:#fff;}</style></defs><g transform="translate(-71.052 -23.051)"><path class="a" d="M74.032,23.124a1.35,1.35,0,0,0-.7.415c-.243.284-.252.328-.246,1.185.006.495-.005,1.369-.025,1.958-.022,1.055-.022,1.055-.218.99a2.344,2.344,0,0,0-1.492.083c-.136.141-.136.141.017.091.116-.032.153-.016.123.053a.128.128,0,0,1-.143.089c-.063-.01-.1.153-.107.446a6.772,6.772,0,0,1-.063.786.547.547,0,0,0,.181.559c.212.232.284.252.926.261.6.007.705.037.743.162.048.206-.144,10.413-.2,10.557-.03.08-.231.112-.62.108a1.8,1.8,0,0,0-.853.142c-.269.159-.279.174-.3.873-.037,1.424,0,1.478,1.129,1.492l.754.01L72.891,45.1c-.064,2.418,0,2.525,1.738,2.641,2.573.168,10.112.315,11.352.225a11.52,11.52,0,0,1,1.232-.018c.579.017.725.01.831-.091.093-.069.126-.069.125,0a.1.1,0,0,0,.09.1c.052,0,.093-.079.094-.184s-.031-.156-.09-.127-.091.009-.09-.044c0-.164.216-.05.308.167.09.2.113.2,2.1.224,1.107.014,2.628.061,3.38.1a25.947,25.947,0,0,0,5.212-.132c0-.073.045-.125.1-.124s.08.064.042.135c-.036.114.06.135.639.143.373.015,2.443.049,4.6.086s3.881.04,3.856-.005.03-.062.106-.061.115.046.081.108a6.884,6.884,0,0,0,2.629-.135c.657-.313.7-.448.726-2.389a16.494,16.494,0,0,1,.1-1.879c.035-.1.108-.124.252-.078a3.582,3.582,0,0,0,1.415-.037c.116-.071.106-.08-.028-.092-.1,0-.153-.043-.124-.114.02-.054.082-.1.126-.091a3.627,3.627,0,0,0,.126-1.582c-.21-.388-.243-.406-1.06-.458l-.814-.055.049-5.4.039-5.386.8.009c.734.01.795-.008,1.015-.235a.538.538,0,0,0,.2-.554,5.6,5.6,0,0,1-.044-.778c0-.3-.028-.466-.1-.449a.138.138,0,0,1-.143-.1c-.027-.071.012-.091.127-.051.143.055.143.045.031-.08a2.442,2.442,0,0,0-1.429-.135c-.4.1-.436.006-.475-1.607-.069-2.49-.251-2.847-1.475-2.83a3.655,3.655,0,0,1-.753-.042,12.961,12.961,0,0,0-2.382-.223c-.3.006-.814,0-1.159-.006s-2.111-.006-3.938-.019-3.65-.018-4.073-.01-.941.022-1.162.016c-3.471-.1-6.347-.153-6.5-.116-.115.026-.2.079-.178.114s-.02.071-.074.079-.09-.029-.089-.093c0-.081-.431-.112-1.831-.128-1.424-.018-1.824,0-1.82.083.019.063-.034.114-.115.112s-.114-.034-.091-.082c.107-.163-.471-.193-4.548-.244-2.264-.028-4.84-.082-5.726-.106a9.146,9.146,0,0,0-2.059.048Zm18.152,2.653c12.243.172,16.3.195,16.3.123s.03-.072.071,0a.852.852,0,0,0,.507.141l.447.034,0,.446c.01.716.035,7.944.022,8.1-.037.763-.082,6.515-.064,8.519a9.495,9.495,0,0,1-.086,2.627,2.891,2.891,0,0,1-.744.034c-.662-.037-3.079-.068-12.344-.174-4.805-.051-5.43-.04-5.389.076.033.091-.01.133-.125.132s-.163-.044-.123-.135c.045-.115-.516-.132-4.5-.181-2.494-.022-5.276-.034-6.183-.016a9.04,9.04,0,0,1-1.627-.029c0-.107-.31-.077-.431.037-.082.081-.135.091-.176.017a3.007,3.007,0,0,0-1.169-.13,8.083,8.083,0,0,1-1.18-.077,2.079,2.079,0,0,1-.073-.768c.008-.6-.01-.706-.125-.664-.091.032-.134-.012-.133-.126s.046-.163.137-.124c.115.046.138-.348.183-3.192.17-10.7.168-10.576.043-10.621-.071-.028-.09-.061-.026-.1a3.026,3.026,0,0,0,.046-1.558.635.635,0,0,1-.028-.436,6.807,6.807,0,0,0,.106-1.1c.016-.547.034-1.037.034-1.107s.062-.1.168-.042c.079.035,7.491.169,16.458.293Z" transform="translate(0 0)"/><path class="a" d="M106.207,29.827l-1.906-.005-.356.337a1.031,1.031,0,0,0-.413.819,26.572,26.572,0,0,0-.067,3.938c.029,1.013.046,2,.025,2.194s-.058,1.841-.081,3.668l-.05,3.309.212.354a1.373,1.373,0,0,0,.492.47,21.85,21.85,0,0,0,4.427.1,1.28,1.28,0,0,0,.854-1.064c.1-.868.146-7.477.053-7.727l-.1-.241-1.228-.016a3.819,3.819,0,0,0-1.335.087,2.292,2.292,0,0,0-.116.965l-.012.858.266.157.266.167,0,1c-.007.557-.018,1.449-.034,2.006a3.591,3.591,0,0,0,.078,1.161.4.4,0,0,1,0,.4c-.1.238-.1.238-.769.2-.764-.042-.9-.1-.76-.277.1-.124.225-6.378.18-9.319l-.025-1.44.641-.023c.96-.032.95-.041.942.6a1.421,1.421,0,0,0,.1.664c.081.082.081.106,0,.106-.2,0-.118.249.1.3a5.71,5.71,0,0,0,1.674-.061,10.044,10.044,0,0,0,.134-1.54l.052-1.467-.245-.253c-.213-.218-.4-.292-1-.394-.055-.022-.962-.034-2-.033ZM80.64,29.678a5.57,5.57,0,0,0-.106,1.829c0,2.006,0,1.852.1,1.686.074-.106.093-.08.089.107,0,.126-.045.248-.108.267-.081.028-.112.411-.123,1.332-.022,1.117-.046,1.323-.18,1.456s-.167.32-.177,1.143a3.374,3.374,0,0,0,.05.942c.082-.079.382.2.38.365,0,.062-.029.114-.063.113a25.8,25.8,0,0,0-.136,2.727c-.029,1.5-.015,2.73.019,2.73s.123.1.175.227c.1.218.131.228.989.238,1.323.017,1.248.179,1.265-3.077,0-1.425,0-2.631-.018-2.678-.1-.384-.047-.4,1.223-.386,1.377.017,1.9-.078,2.207-.394l.209-.223.079-3.882a34.658,34.658,0,0,0-.021-4.063c-.221-.415-.46-.451-3.189-.515a11.43,11.43,0,0,0-2.667.055Zm3.5,2.188c.01.091,0,1.046-.007,2.129s.005,1.894.02,1.81c.076-.267.208-.161.2.169,0,.26-.032.312-.145.267s-.126-.01-.092.106c.04.135-.013.153-.549.116a1.736,1.736,0,0,1-.713-.161c-.141-.146-.148-.406-.015-.4a7.759,7.759,0,0,0,.069-2.047c0-1.126.008-2.077.037-2.1a2.3,2.3,0,0,1,.628-.046c.481.012.565.037.564.162Zm4.153-2.122a4.735,4.735,0,0,0,.037,2.132c.052-.01.1.046.1.117s-.054.123-.107.1c-.082-.009-.128.133-.15.454-.024.373-.006.464.085.413s.093-.041.019.063c-.146.186-.37,10.318-.243,10.92a.976.976,0,0,0,.393.657l.3.235,2.346-.005c2.616,0,2.8-.046,3.091-.591.2-.38.322-3.4.341-8.65.005-2.138.019-4.269.025-4.715a1.985,1.985,0,0,0-.09-.9.1.1,0,0,0-.144.04c-.046.153-.2.133-.2-.031,0-.106-.141-.137-.761-.144-1.229-.016-1.133-.312-1.175,3.814-.014,1.9-.016,4,0,4.643.032.85.015,1.191-.057,1.19-.165,0-.119.34.054.436.106.073.125.118.043.163a3.89,3.89,0,0,0-.152,1.294c-.042,1.037-.068,1.251-.2,1.385-.153.152-.168.152-.276,0a.686.686,0,0,0-.777-.061c-.27.131-.546-.132-.469-.452.066-.269.2-7.691.193-10.383l-.012-1.843-.382-.21c-.256-.147-.443-.2-.552-.15a2.346,2.346,0,0,1-1.028-.024.353.353,0,0,0-.257.1Zm7.972.092a23.688,23.688,0,0,0-.081,3.817,4.168,4.168,0,0,1,.008.942,1.844,1.844,0,0,0,.01.733c.112.145-.006.475-.171.472-.072,0-.1.043-.081.092s-.013.152-.085.228a2.474,2.474,0,0,0-.072,1.511.289.289,0,0,1,.088.228.2.2,0,0,0,.1.2,13.367,13.367,0,0,1,.069,2.937,24.019,24.019,0,0,0,.043,3.019c.043.052.041.124.007.143a.693.693,0,0,0-.048.412l.03.365h2.388c3.56.016,3.349.269,3.414-4.134.038-2.959.031-3.095-.136-3.277-.528-.588-.59-.7-.445-.775.362-.19.453-.6.49-1.945.016-.715.052-2.013.078-2.887.049-1.5.04-1.6-.14-1.771-.274-.281-.692-.341-3.119-.38a8.513,8.513,0,0,0-2.347.075Zm3.323,2.086a24.518,24.518,0,0,1-.043,3.39c-.017.652-.063.69-.732.571l-.383-.057-.043-.778c-.024-.433-.042-.84-.051-.912s.037-.63.078-1.232l.077-1.094.517.007A1.045,1.045,0,0,1,99.589,31.922Zm-.118,6.287a10.04,10.04,0,0,1,.053,1.531c-.01.788-.015,1.8-.02,2.255a3.783,3.783,0,0,1-.053.9,1.862,1.862,0,0,1-1.156-.078c-.1-.082-.111-.188-.055-.433a20.411,20.411,0,0,0,.109-2.253c.02-1.664.043-1.942.168-2.028A1.138,1.138,0,0,1,99.471,38.208Z" transform="translate(-2.285 -1.648)"/></g></svg>