<?xml version="1.0" encoding="utf-8"?>
<!-- Generator: Adobe Illustrator 16.0.0, SVG Export Plug-In . SVG Version: 6.00 Build 0)  -->
<!DOCTYPE svg PUBLIC "-//W3C//DTD SVG 1.1//EN" "http://www.w3.org/Graphics/SVG/1.1/DTD/svg11.dtd">
<svg version="1.1" xmlns="http://www.w3.org/2000/svg" xmlns:xlink="http://www.w3.org/1999/xlink" x="0px" y="0px" width="338.5px"
	 height="60px" viewBox="0 0 338.5 60" enable-background="new 0 0 338.5 60" xml:space="preserve">
<g id="Layer_1" display="none">
	<rect x="57" y="25" display="inline" fill="#33FF00" width="91" height="8"/>
	<rect x="196" y="25" display="inline" fill="#3FA9F5" width="89" height="8"/>
	<g display="inline">
		<g>
			<g>
				<g>
					<g>
						<g>
							<path opacity="0.25" fill="#3FA9F5" d="M196.221,30.416c0,15.244-12.1,27.602-27.029,27.602
								c-14.928,0-27.025-12.357-27.025-27.602s12.098-27.6,27.025-27.6C184.121,2.816,196.221,15.172,196.221,30.416z"/>
							<ellipse opacity="0.56" fill="#3FA9F5" cx="168.895" cy="30.522" rx="21.524" ry="21.981"/>
							<ellipse fill="#3FA9F5" cx="169.482" cy="30.262" rx="27.11" ry="27.684"/>
						</g>
					</g>
					
						<linearGradient id="SVGID_1_" gradientUnits="userSpaceOnUse" x1="141.1147" y1="48.2334" x2="170.5961" y2="85.4734" gradientTransform="matrix(1 0 0 1 13.7754 -36.082)">
						<stop  offset="0.0047" style="stop-color:#1A1A1A"/>
						<stop  offset="0.445" style="stop-color:#0D0D0D"/>
						<stop  offset="1" style="stop-color:#000000"/>
					</linearGradient>
					<path fill="url(#SVGID_1_)" d="M192.843,30.455c0,13.438-10.502,24.338-23.465,24.338c-12.956,0-23.464-10.9-23.464-24.338
						c0-13.445,10.508-24.336,23.464-24.336C182.341,6.119,192.843,17.01,192.843,30.455z"/>
				</g>
			</g>
		</g>
	</g>
	<g display="inline">
		<g>
			<g>
				<g>
					<g>
						<g>
							<ellipse opacity="0.25" fill="#33FF00" cx="31.491" cy="30.416" rx="27.028" ry="27.602"/>
							<path opacity="0.56" fill="#33FF00" d="M31.19,8.541c-11.886,0-21.524,9.838-21.524,21.98
								c0,12.141,9.639,21.982,21.524,21.982c11.893,0,21.529-9.842,21.529-21.982C52.72,18.379,43.083,8.541,31.19,8.541z"/>
							<path fill="#33FF00" d="M58.891,30.262c0,15.291-12.133,27.684-27.109,27.684c-14.973,0-27.111-12.393-27.111-27.684
								c0-15.287,12.139-27.686,27.111-27.686C46.758,2.576,58.891,14.975,58.891,30.262z"/>
						</g>
					</g>
					
						<linearGradient id="SVGID_2_" gradientUnits="userSpaceOnUse" x1="3.4131" y1="48.2344" x2="32.8938" y2="85.4736" gradientTransform="matrix(1 0 0 1 13.7754 -36.082)">
						<stop  offset="0.0047" style="stop-color:#1A1A1A"/>
						<stop  offset="0.445" style="stop-color:#0D0D0D"/>
						<stop  offset="1" style="stop-color:#000000"/>
					</linearGradient>
					<path fill="url(#SVGID_2_)" d="M55.141,30.455c0,13.438-10.504,24.338-23.465,24.338c-12.955,0-23.463-10.9-23.463-24.338
						c0-13.445,10.508-24.336,23.463-24.336C44.637,6.119,55.141,17.01,55.141,30.455z"/>
				</g>
				<linearGradient id="SVGID_3_" gradientUnits="userSpaceOnUse" x1="20.8267" y1="-10.4985" x2="32.2801" y2="46.7688">
					<stop  offset="0" style="stop-color:#FFFFFF"/>
					<stop  offset="1" style="stop-color:#000000"/>
				</linearGradient>
				<path opacity="0.3" fill="url(#SVGID_3_)" d="M31.42,6.058c-12.915,0-23.385,10.691-23.385,23.878
					c0,7.784,3.649,14.697,9.294,19.056l29.329-37.16C42.566,8.237,37.243,6.058,31.42,6.058z"/>
			</g>
		</g>
	</g>
	<g display="inline">
		<g>
			<ellipse opacity="0.25" fill="#3FA9F5" cx="306.894" cy="30.416" rx="27.026" ry="27.602"/>
			<ellipse opacity="0.56" fill="#3FA9F5" cx="306.594" cy="30.522" rx="21.524" ry="21.981"/>
			<ellipse fill="#3FA9F5" cx="307.185" cy="30.262" rx="27.112" ry="27.684"/>
		</g>
	</g>
	
		<linearGradient id="SVGID_4_" gradientUnits="userSpaceOnUse" x1="278.8154" y1="48.2334" x2="308.2974" y2="85.4741" gradientTransform="matrix(1 0 0 1 13.7754 -36.082)">
		<stop  offset="0.0047" style="stop-color:#1A1A1A"/>
		<stop  offset="0.445" style="stop-color:#0D0D0D"/>
		<stop  offset="1" style="stop-color:#000000"/>
	</linearGradient>
	<path display="inline" fill="url(#SVGID_4_)" d="M330.546,30.455c0,13.438-10.505,24.338-23.466,24.338
		c-12.958,0-23.467-10.9-23.467-24.338c0-13.445,10.509-24.336,23.467-24.336C320.041,6.119,330.546,17.01,330.546,30.455z"/>
	<g display="inline">
		
			<text transform="matrix(1 0 0 1 298.5391 38.5957)" fill="#3FA9F5" font-family="'Lato-Light'" font-size="26" letter-spacing="1">3</text>
	</g>
	<linearGradient id="SVGID_5_" gradientUnits="userSpaceOnUse" x1="295.9756" y1="-10.7036" x2="307.4293" y2="46.5651">
		<stop  offset="0" style="stop-color:#FFFFFF"/>
		<stop  offset="1" style="stop-color:#000000"/>
	</linearGradient>
	<path display="inline" opacity="0.3" fill="url(#SVGID_5_)" d="M306.568,5.854c-12.914,0-23.385,10.691-23.385,23.878
		c0,7.784,3.649,14.697,9.295,19.056l29.328-37.16C317.715,8.033,312.392,5.854,306.568,5.854z"/>
	<linearGradient id="SVGID_6_" gradientUnits="userSpaceOnUse" x1="158.8267" y1="-10.5" x2="170.2804" y2="46.7687">
		<stop  offset="0" style="stop-color:#FFFFFF"/>
		<stop  offset="1" style="stop-color:#000000"/>
	</linearGradient>
	<path display="inline" opacity="0.3" fill="url(#SVGID_6_)" d="M169.42,6.058c-12.914,0-23.385,10.691-23.385,23.878
		c0,7.784,3.649,14.697,9.295,19.056l29.328-37.16C180.566,8.237,175.243,6.058,169.42,6.058z"/>
	<g display="inline">
		
			<text transform="matrix(1 0 0 1 161.8301 38.5957)" fill="#3FA9F5" font-family="'Lato-Light'" font-size="26" letter-spacing="1">2</text>
	</g>
	<g display="inline">
		<text transform="matrix(1 0 0 1 23.8701 38.5957)" fill="#FFFFFF" font-family="'Lato-Light'" font-size="26" letter-spacing="1">1</text>
	</g>
</g>
<g id="Layer_2" display="none">
	<rect x="57" y="25" display="inline" fill="#33FF00" width="91" height="8"/>
	<rect x="196" y="25" display="inline" fill="#33FF00" width="89" height="8"/>
	<g display="inline">
		<g>
			<g>
				<g>
					<g>
						<g>
							<path opacity="0.25" fill="#33FF00" d="M196.221,30.416c0,15.244-12.1,27.602-27.029,27.602
								c-14.928,0-27.025-12.357-27.025-27.602s12.098-27.6,27.025-27.6C184.121,2.816,196.221,15.172,196.221,30.416z"/>
							<ellipse opacity="0.56" fill="#33FF00" cx="168.895" cy="30.522" rx="21.524" ry="21.981"/>
							<ellipse fill="#33FF00" cx="169.482" cy="30.262" rx="27.11" ry="27.684"/>
						</g>
					</g>
					
						<linearGradient id="SVGID_7_" gradientUnits="userSpaceOnUse" x1="141.1147" y1="48.2334" x2="170.5961" y2="85.4734" gradientTransform="matrix(1 0 0 1 13.7754 -36.082)">
						<stop  offset="0.0047" style="stop-color:#1A1A1A"/>
						<stop  offset="0.445" style="stop-color:#0D0D0D"/>
						<stop  offset="1" style="stop-color:#000000"/>
					</linearGradient>
					<path fill="url(#SVGID_7_)" d="M192.843,30.455c0,13.438-10.502,24.338-23.465,24.338c-12.956,0-23.464-10.9-23.464-24.338
						c0-13.445,10.508-24.336,23.464-24.336C182.341,6.119,192.843,17.01,192.843,30.455z"/>
				</g>
			</g>
		</g>
	</g>
	<g display="inline">
		<g>
			<g>
				<g>
					<g>
						<g>
							<ellipse opacity="0.25" fill="#33FF00" cx="31.491" cy="30.416" rx="27.028" ry="27.602"/>
							<path opacity="0.56" fill="#33FF00" d="M31.19,8.541c-11.886,0-21.524,9.838-21.524,21.98
								c0,12.141,9.639,21.982,21.524,21.982c11.893,0,21.529-9.842,21.529-21.982C52.72,18.379,43.083,8.541,31.19,8.541z"/>
							<path fill="#33FF00" d="M58.891,30.262c0,15.291-12.133,27.684-27.109,27.684c-14.973,0-27.111-12.393-27.111-27.684
								c0-15.287,12.139-27.686,27.111-27.686C46.758,2.576,58.891,14.975,58.891,30.262z"/>
						</g>
					</g>
					
						<linearGradient id="SVGID_8_" gradientUnits="userSpaceOnUse" x1="3.4131" y1="48.2344" x2="32.8938" y2="85.4736" gradientTransform="matrix(1 0 0 1 13.7754 -36.082)">
						<stop  offset="0.0047" style="stop-color:#1A1A1A"/>
						<stop  offset="0.445" style="stop-color:#0D0D0D"/>
						<stop  offset="1" style="stop-color:#000000"/>
					</linearGradient>
					<path fill="url(#SVGID_8_)" d="M55.141,30.455c0,13.438-10.504,24.338-23.465,24.338c-12.955,0-23.463-10.9-23.463-24.338
						c0-13.445,10.508-24.336,23.463-24.336C44.637,6.119,55.141,17.01,55.141,30.455z"/>
				</g>
				<linearGradient id="SVGID_9_" gradientUnits="userSpaceOnUse" x1="20.8267" y1="-10.4985" x2="32.2801" y2="46.7688">
					<stop  offset="0" style="stop-color:#FFFFFF"/>
					<stop  offset="1" style="stop-color:#000000"/>
				</linearGradient>
				<path opacity="0.3" fill="url(#SVGID_9_)" d="M31.42,6.058c-12.915,0-23.385,10.691-23.385,23.878
					c0,7.784,3.649,14.697,9.294,19.056l29.329-37.16C42.566,8.237,37.243,6.058,31.42,6.058z"/>
			</g>
		</g>
	</g>
	<g display="inline">
		<g>
			<ellipse opacity="0.25" fill="#3FA9F5" cx="306.894" cy="30.416" rx="27.026" ry="27.602"/>
			<ellipse opacity="0.56" fill="#3FA9F5" cx="306.594" cy="30.522" rx="21.524" ry="21.981"/>
			<ellipse fill="#3FA9F5" cx="307.185" cy="30.262" rx="27.112" ry="27.684"/>
		</g>
	</g>
	
		<linearGradient id="SVGID_10_" gradientUnits="userSpaceOnUse" x1="278.8154" y1="48.2334" x2="308.2974" y2="85.4741" gradientTransform="matrix(1 0 0 1 13.7754 -36.082)">
		<stop  offset="0.0047" style="stop-color:#1A1A1A"/>
		<stop  offset="0.445" style="stop-color:#0D0D0D"/>
		<stop  offset="1" style="stop-color:#000000"/>
	</linearGradient>
	<path display="inline" fill="url(#SVGID_10_)" d="M330.546,30.455c0,13.438-10.505,24.338-23.466,24.338
		c-12.958,0-23.467-10.9-23.467-24.338c0-13.445,10.509-24.336,23.467-24.336C320.041,6.119,330.546,17.01,330.546,30.455z"/>
	<g display="inline">
		
			<text transform="matrix(1 0 0 1 298.5391 38.5957)" fill="#3FA9F5" font-family="'Lato-Light'" font-size="26" letter-spacing="1">3</text>
	</g>
	<linearGradient id="SVGID_11_" gradientUnits="userSpaceOnUse" x1="295.9756" y1="-10.7036" x2="307.4293" y2="46.5651">
		<stop  offset="0" style="stop-color:#FFFFFF"/>
		<stop  offset="1" style="stop-color:#000000"/>
	</linearGradient>
	<path display="inline" opacity="0.3" fill="url(#SVGID_11_)" d="M306.568,5.854c-12.914,0-23.385,10.691-23.385,23.878
		c0,7.784,3.649,14.697,9.295,19.056l29.328-37.16C317.715,8.033,312.392,5.854,306.568,5.854z"/>
	<linearGradient id="SVGID_12_" gradientUnits="userSpaceOnUse" x1="158.8267" y1="-10.5" x2="170.2804" y2="46.7687">
		<stop  offset="0" style="stop-color:#FFFFFF"/>
		<stop  offset="1" style="stop-color:#000000"/>
	</linearGradient>
	<path display="inline" opacity="0.3" fill="url(#SVGID_12_)" d="M169.42,6.058c-12.914,0-23.385,10.691-23.385,23.878
		c0,7.784,3.649,14.697,9.295,19.056l29.328-37.16C180.566,8.237,175.243,6.058,169.42,6.058z"/>
	<g display="inline">
		
			<text transform="matrix(1 0 0 1 161.8301 38.5957)" fill="#FFFFFF" font-family="'Lato-Light'" font-size="26" letter-spacing="1">2</text>
	</g>
	<g display="inline">
		<polygon fill="#33FF00" points="18.172,32.554 22.17,28.694 26.813,33.175 41.392,19.114 45.389,22.968 26.813,40.886 		"/>
	</g>
</g>
<g id="Layer_3">
	<rect x="57" y="25" fill="#33FF00" width="91" height="8"/>
	<rect x="196" y="25" fill="#3FA9F5" width="89" height="8"/>
	<g>
		<g>
			<g>
				<g>
					<g>
						<g>
							<path opacity="0.25" fill="#3FA9F5" d="M196.221,30.416c0,15.244-12.1,27.602-27.029,27.602
								c-14.928,0-27.025-12.357-27.025-27.602s12.098-27.6,27.025-27.6C184.121,2.816,196.221,15.172,196.221,30.416z"/>
							<ellipse opacity="0.56" fill="#3FA9F5" cx="168.895" cy="30.522" rx="21.524" ry="21.981"/>
							<ellipse fill="#3FA9F5" cx="169.482" cy="30.262" rx="27.11" ry="27.684"/>
						</g>
					</g>
					
						<linearGradient id="SVGID_13_" gradientUnits="userSpaceOnUse" x1="141.1147" y1="48.2334" x2="170.5961" y2="85.4734" gradientTransform="matrix(1 0 0 1 13.7754 -36.082)">
						<stop  offset="0.0047" style="stop-color:#1A1A1A"/>
						<stop  offset="0.445" style="stop-color:#0D0D0D"/>
						<stop  offset="1" style="stop-color:#000000"/>
					</linearGradient>
					<path fill="url(#SVGID_13_)" d="M192.843,30.455c0,13.438-10.502,24.338-23.465,24.338c-12.956,0-23.464-10.9-23.464-24.338
						c0-13.445,10.508-24.336,23.464-24.336C182.341,6.119,192.843,17.01,192.843,30.455z"/>
				</g>
			</g>
		</g>
	</g>
	<g>
		<g>
			<g>
				<g>
					<g>
						<g>
							<ellipse opacity="0.25" fill="#33FF00" cx="31.491" cy="30.416" rx="27.028" ry="27.602"/>
							<path opacity="0.56" fill="#33FF00" d="M31.19,8.541c-11.886,0-21.524,9.838-21.524,21.98
								c0,12.141,9.639,21.982,21.524,21.982c11.893,0,21.529-9.842,21.529-21.982C52.72,18.379,43.083,8.541,31.19,8.541z"/>
							<path fill="#33FF00" d="M58.891,30.262c0,15.291-12.133,27.684-27.109,27.684c-14.973,0-27.111-12.393-27.111-27.684
								c0-15.287,12.139-27.686,27.111-27.686C46.758,2.576,58.891,14.975,58.891,30.262z"/>
						</g>
					</g>
					
						<linearGradient id="SVGID_14_" gradientUnits="userSpaceOnUse" x1="3.4131" y1="48.2344" x2="32.8938" y2="85.4736" gradientTransform="matrix(1 0 0 1 13.7754 -36.082)">
						<stop  offset="0.0047" style="stop-color:#1A1A1A"/>
						<stop  offset="0.445" style="stop-color:#0D0D0D"/>
						<stop  offset="1" style="stop-color:#000000"/>
					</linearGradient>
					<path fill="url(#SVGID_14_)" d="M55.141,30.455c0,13.438-10.504,24.338-23.465,24.338c-12.955,0-23.463-10.9-23.463-24.338
						c0-13.445,10.508-24.336,23.463-24.336C44.637,6.119,55.141,17.01,55.141,30.455z"/>
				</g>
				<linearGradient id="SVGID_15_" gradientUnits="userSpaceOnUse" x1="20.8267" y1="-10.4985" x2="32.2801" y2="46.7688">
					<stop  offset="0" style="stop-color:#FFFFFF"/>
					<stop  offset="1" style="stop-color:#000000"/>
				</linearGradient>
				<path opacity="0.3" fill="url(#SVGID_15_)" d="M31.42,6.058c-12.915,0-23.385,10.691-23.385,23.878
					c0,7.784,3.649,14.697,9.294,19.056l29.329-37.16C42.566,8.237,37.243,6.058,31.42,6.058z"/>
			</g>
		</g>
	</g>
	<g>
		<g>
			<ellipse opacity="0.25" fill="#3FA9F5" cx="306.894" cy="30.416" rx="27.026" ry="27.602"/>
			<ellipse opacity="0.56" fill="#3FA9F5" cx="306.594" cy="30.522" rx="21.524" ry="21.981"/>
			<ellipse fill="#3FA9F5" cx="307.185" cy="30.262" rx="27.112" ry="27.684"/>
		</g>
	</g>
	
		<linearGradient id="SVGID_16_" gradientUnits="userSpaceOnUse" x1="278.8154" y1="48.2334" x2="308.2974" y2="85.4741" gradientTransform="matrix(1 0 0 1 13.7754 -36.082)">
		<stop  offset="0.0047" style="stop-color:#1A1A1A"/>
		<stop  offset="0.445" style="stop-color:#0D0D0D"/>
		<stop  offset="1" style="stop-color:#000000"/>
	</linearGradient>
	<path fill="url(#SVGID_16_)" d="M330.546,30.455c0,13.438-10.505,24.338-23.466,24.338c-12.958,0-23.467-10.9-23.467-24.338
		c0-13.445,10.509-24.336,23.467-24.336C320.041,6.119,330.546,17.01,330.546,30.455z"/>
	<g>
		
			<text transform="matrix(1 0 0 1 298.5391 38.5957)" fill="#3FA9F5" font-family="'Lato-Light'" font-size="26" letter-spacing="1">3</text>
	</g>
	<linearGradient id="SVGID_17_" gradientUnits="userSpaceOnUse" x1="295.9756" y1="-10.7036" x2="307.4293" y2="46.5651">
		<stop  offset="0" style="stop-color:#FFFFFF"/>
		<stop  offset="1" style="stop-color:#000000"/>
	</linearGradient>
	<path opacity="0.3" fill="url(#SVGID_17_)" d="M306.568,5.854c-12.914,0-23.385,10.691-23.385,23.878
		c0,7.784,3.649,14.697,9.295,19.056l29.328-37.16C317.715,8.033,312.392,5.854,306.568,5.854z"/>
	<linearGradient id="SVGID_18_" gradientUnits="userSpaceOnUse" x1="158.8267" y1="-10.5" x2="170.2804" y2="46.7687">
		<stop  offset="0" style="stop-color:#FFFFFF"/>
		<stop  offset="1" style="stop-color:#000000"/>
	</linearGradient>
	<path opacity="0.3" fill="url(#SVGID_18_)" d="M169.42,6.058c-12.914,0-23.385,10.691-23.385,23.878
		c0,7.784,3.649,14.697,9.295,19.056l29.328-37.16C180.566,8.237,175.243,6.058,169.42,6.058z"/>
	<g>
		
			<text transform="matrix(1 0 0 1 161.8301 38.5957)" fill="#3FA9F5" font-family="'Lato-Light'" font-size="26" letter-spacing="1">2</text>
	</g>
	<g>
		<text transform="matrix(1 0 0 1 23.8701 38.5957)" fill="#FFFFFF" font-family="'Lato-Light'" font-size="26" letter-spacing="1">1</text>
	</g>
	<rect x="57" y="25" fill="#33FF00" width="91" height="8"/>
	<rect x="196" y="25" fill="#33FF00" width="89" height="8"/>
	<g>
		<g>
			<g>
				<g>
					<g>
						<g>
							<path opacity="0.25" fill="#33FF00" d="M196.221,30.416c0,15.244-12.1,27.602-27.029,27.602
								c-14.928,0-27.025-12.357-27.025-27.602s12.098-27.6,27.025-27.6C184.121,2.816,196.221,15.172,196.221,30.416z"/>
							<ellipse opacity="0.56" fill="#33FF00" cx="168.895" cy="30.522" rx="21.524" ry="21.981"/>
							<ellipse fill="#33FF00" cx="169.482" cy="30.262" rx="27.11" ry="27.684"/>
						</g>
					</g>
					
						<linearGradient id="SVGID_19_" gradientUnits="userSpaceOnUse" x1="141.1147" y1="48.2334" x2="170.5961" y2="85.4734" gradientTransform="matrix(1 0 0 1 13.7754 -36.082)">
						<stop  offset="0.0047" style="stop-color:#1A1A1A"/>
						<stop  offset="0.445" style="stop-color:#0D0D0D"/>
						<stop  offset="1" style="stop-color:#000000"/>
					</linearGradient>
					<path fill="url(#SVGID_19_)" d="M192.843,30.455c0,13.438-10.502,24.338-23.465,24.338c-12.956,0-23.464-10.9-23.464-24.338
						c0-13.445,10.508-24.336,23.464-24.336C182.341,6.119,192.843,17.01,192.843,30.455z"/>
				</g>
			</g>
		</g>
	</g>
	<g>
		<g>
			<g>
				<g>
					<g>
						<g>
							<ellipse opacity="0.25" fill="#33FF00" cx="31.491" cy="30.416" rx="27.028" ry="27.602"/>
							<path opacity="0.56" fill="#33FF00" d="M31.19,8.541c-11.886,0-21.524,9.838-21.524,21.98
								c0,12.141,9.639,21.982,21.524,21.982c11.893,0,21.529-9.842,21.529-21.982C52.72,18.379,43.083,8.541,31.19,8.541z"/>
							<path fill="#33FF00" d="M58.891,30.262c0,15.291-12.133,27.684-27.109,27.684c-14.973,0-27.111-12.393-27.111-27.684
								c0-15.287,12.139-27.686,27.111-27.686C46.758,2.576,58.891,14.975,58.891,30.262z"/>
						</g>
					</g>
					
						<linearGradient id="SVGID_20_" gradientUnits="userSpaceOnUse" x1="3.4131" y1="48.2344" x2="32.8938" y2="85.4736" gradientTransform="matrix(1 0 0 1 13.7754 -36.082)">
						<stop  offset="0.0047" style="stop-color:#1A1A1A"/>
						<stop  offset="0.445" style="stop-color:#0D0D0D"/>
						<stop  offset="1" style="stop-color:#000000"/>
					</linearGradient>
					<path fill="url(#SVGID_20_)" d="M55.141,30.455c0,13.438-10.504,24.338-23.465,24.338c-12.955,0-23.463-10.9-23.463-24.338
						c0-13.445,10.508-24.336,23.463-24.336C44.637,6.119,55.141,17.01,55.141,30.455z"/>
				</g>
				<linearGradient id="SVGID_21_" gradientUnits="userSpaceOnUse" x1="20.8267" y1="-10.4985" x2="32.2801" y2="46.7688">
					<stop  offset="0" style="stop-color:#FFFFFF"/>
					<stop  offset="1" style="stop-color:#000000"/>
				</linearGradient>
				<path opacity="0.3" fill="url(#SVGID_21_)" d="M31.42,6.058c-12.915,0-23.385,10.691-23.385,23.878
					c0,7.784,3.649,14.697,9.294,19.056l29.329-37.16C42.566,8.237,37.243,6.058,31.42,6.058z"/>
			</g>
		</g>
	</g>
	<g>
		<g>
			<ellipse opacity="0.25" fill="#33FF00" cx="306.894" cy="30.416" rx="27.026" ry="27.602"/>
			<ellipse opacity="0.56" fill="#33FF00" cx="306.594" cy="30.522" rx="21.524" ry="21.981"/>
			<ellipse fill="#33FF00" cx="307.185" cy="30.262" rx="27.112" ry="27.684"/>
		</g>
	</g>
	
		<linearGradient id="SVGID_22_" gradientUnits="userSpaceOnUse" x1="278.8154" y1="48.2334" x2="308.2974" y2="85.4741" gradientTransform="matrix(1 0 0 1 13.7754 -36.082)">
		<stop  offset="0.0047" style="stop-color:#1A1A1A"/>
		<stop  offset="0.445" style="stop-color:#0D0D0D"/>
		<stop  offset="1" style="stop-color:#000000"/>
	</linearGradient>
	<path fill="url(#SVGID_22_)" d="M330.546,30.455c0,13.438-10.505,24.338-23.466,24.338c-12.958,0-23.467-10.9-23.467-24.338
		c0-13.445,10.509-24.336,23.467-24.336C320.041,6.119,330.546,17.01,330.546,30.455z"/>
	<g>
		
			<text transform="matrix(1 0 0 1 299.5391 38.5957)" fill="#FFFFFF" font-family="'Lato-Light'" font-size="26" letter-spacing="1">3</text>
	</g>
	<linearGradient id="SVGID_23_" gradientUnits="userSpaceOnUse" x1="295.9756" y1="-10.7036" x2="307.4293" y2="46.5651">
		<stop  offset="0" style="stop-color:#FFFFFF"/>
		<stop  offset="1" style="stop-color:#000000"/>
	</linearGradient>
	<path opacity="0.3" fill="url(#SVGID_23_)" d="M306.568,5.854c-12.914,0-23.385,10.691-23.385,23.878
		c0,7.784,3.649,14.697,9.295,19.056l29.328-37.16C317.715,8.033,312.392,5.854,306.568,5.854z"/>
	<linearGradient id="SVGID_24_" gradientUnits="userSpaceOnUse" x1="158.8267" y1="-10.5" x2="170.2804" y2="46.7687">
		<stop  offset="0" style="stop-color:#FFFFFF"/>
		<stop  offset="1" style="stop-color:#000000"/>
	</linearGradient>
	<path opacity="0.3" fill="url(#SVGID_24_)" d="M169.42,6.058c-12.914,0-23.385,10.691-23.385,23.878
		c0,7.784,3.649,14.697,9.295,19.056l29.328-37.16C180.566,8.237,175.243,6.058,169.42,6.058z"/>
	<g>
		<polygon fill="#33FF00" points="18.172,32.554 22.17,28.694 26.813,33.175 41.392,19.114 45.389,22.968 26.813,40.886 		"/>
	</g>
	<g>
		<polygon fill="#33FF00" points="154.672,32.554 158.67,28.694 163.313,33.175 177.892,19.114 181.889,22.968 163.313,40.886 		"/>
	</g>
</g>
</svg>
