<svg xmlns="http://www.w3.org/2000/svg" xmlns:xlink="http://www.w3.org/1999/xlink" width="192.129" height="55.441" viewBox="0 0 192.129 55.441"><defs><style>.a{fill:lime;}.b,.c,.d,.j{fill:#3fa9f5;}.b,.f{opacity:0.25;}.c,.g{opacity:0.56;}.e{fill:url(#a);}.f,.g,.h{fill:#3f0;}.i{opacity:0.3;fill:url(#c);}.j{font-size:30px;font-family:Lato-Regular, Lato;letter-spacing:0.05em;}.k{fill:url(#e);}</style><linearGradient id="a" x1="-0.102" y1="0.865" x2="0.526" y2="1.63" gradientUnits="objectBoundingBox"><stop offset="0.005" stop-color="#1a1a1a"/><stop offset="0.445" stop-color="#0c0c0c"/><stop offset="1"/></linearGradient><linearGradient id="c" x1="0.331" y1="-0.386" x2="0.628" y2="0.948" gradientUnits="objectBoundingBox"><stop offset="0" stop-color="#fff"/><stop offset="1"/></linearGradient><radialGradient id="e" cx="-3859.217" cy="-4702.843" r="15.405" gradientTransform="translate(-921.276 -1122.191) scale(0.8 0.8)" gradientUnits="userSpaceOnUse"><stop offset="0" stop-color="#b8ff80"/><stop offset="1" stop-color="lime"/></radialGradient></defs><g transform="translate(-9925.07 -878.631)"><rect class="a" width="91" height="8" transform="translate(9977.606 901.055)"/><path class="b" d="M10116.827,906.471c0,15.244-12.1,27.6-27.029,27.6s-27.024-12.357-27.024-27.6,12.1-27.6,27.024-27.6S10116.827,891.227,10116.827,906.471Z"/><path class="c" d="M10089.5,884.6a21.986,21.986,0,1,0,21.528,21.98A21.754,21.754,0,0,0,10089.5,884.6Z"/><path class="d" d="M10117.2,906.317c0,15.291-12.135,27.683-27.11,27.683s-27.11-12.392-27.11-27.683,12.136-27.686,27.11-27.686S10117.2,891.029,10117.2,906.317Z"/><path class="e" d="M10113.449,906.51c0,13.437-10.5,24.338-23.464,24.338s-23.464-10.9-23.464-24.338,10.508-24.336,23.464-24.336S10113.449,893.065,10113.449,906.51Z"/><path class="f" d="M9979.125,906.471c0,15.244-12.1,27.6-27.028,27.6s-27.026-12.357-27.026-27.6,12.1-27.6,27.026-27.6S9979.125,891.227,9979.125,906.471Z"/><path class="g" d="M9951.8,884.6a21.986,21.986,0,1,0,21.529,21.98A21.754,21.754,0,0,0,9951.8,884.6Z"/><path class="h" d="M9979.5,906.317c0,15.291-12.132,27.683-27.109,27.683s-27.11-12.392-27.11-27.683,12.138-27.686,27.11-27.686S9979.5,891.029,9979.5,906.317Z"/><path class="e" d="M9975.747,906.51c0,13.437-10.5,24.338-23.464,24.338s-23.463-10.9-23.463-24.338,10.507-24.336,23.463-24.336S9975.747,893.065,9975.747,906.51Z"/><path class="i" d="M9952.027,882.112a23.638,23.638,0,0,0-23.386,23.878,24.01,24.01,0,0,0,9.294,19.056l29.329-37.16A23.011,23.011,0,0,0,9952.027,882.112Z"/><text class="j" transform="translate(10080.977 915.65)"><tspan x="0" y="0">2</tspan></text><path class="i" d="M10090.027,882.112a23.638,23.638,0,0,0-23.386,23.878,24.008,24.008,0,0,0,9.295,19.056l29.328-37.16A23.011,23.011,0,0,0,10090.027,882.112Z"/><path class="k" d="M752.362,919.538l4-3.859,4.643,4.48,14.578-14.06,4,3.854L761,927.87Z" transform="translate(9189.07 -11)"/></g></svg>

