<svg xmlns="http://www.w3.org/2000/svg" xmlns:xlink="http://www.w3.org/1999/xlink" width="548.744" height="84.632" viewBox="0 0 548.744 84.632"><defs><style>.a{fill:#000733;}.b{opacity:0.703;}.b,.c{fill:url(#a);}.d{opacity:0.158;fill:url(#e);}.e{fill:#3fa9f5;}</style><radialGradient id="a" cx="0.5" cy="0.5" r="0.5" gradientUnits="objectBoundingBox"><stop offset="0" stop-color="#fff"/><stop offset="1" stop-color="#3fa9f5" stop-opacity="0"/></radialGradient><radialGradient id="e" cx="0.5" cy="0.5" r="0.5" gradientUnits="objectBoundingBox"><stop offset="0" stop-color="#3fa9f5"/><stop offset="1" stop-color="#3fa9f5" stop-opacity="0"/></radialGradient></defs><g transform="translate(0 0)"><path class="a" d="M10541.411,342.269c0-8.124-8.558-14.769-19.017-14.769h-507.678c-10.468,0-19.027,6.646-19.027,14.769v46.273c0,8.122,8.56,14.768,19.027,14.768h507.678c10.459,0,19.017-6.646,19.017-14.768Z" transform="translate(-9992.667 -322.539)"/><path class="b" d="M10223.068,325.759c-99.027,0-185.715,1.083-233.447,2.7v5.777c47.732,1.62,134.42,2.7,233.447,2.7,98.443,0,184.7-1.071,232.605-2.675v-5.834C10407.764,326.83,10321.512,325.759,10223.068,325.759Z" transform="translate(-9947.567 -318.485)"/><path class="b" d="M10223.068,325.759c-99.027,0-185.715,1.083-233.447,2.7v5.777c47.732,1.62,134.42,2.7,233.447,2.7,98.443,0,184.7-1.071,232.605-2.675v-5.834C10407.764,326.83,10321.512,325.759,10223.068,325.759Z" transform="translate(-9947.567 -260.899)"/><path class="c" d="M10368.386,377.805c.692-6.7,1.129-16.493,1.129-27.4,0-11.163-.457-21.156-1.178-27.864h-4.329c-.721,6.708-1.178,16.7-1.178,27.864,0,10.909.437,20.7,1.129,27.4Z" transform="translate(-9826.937 -307.856)"/><path class="c" d="M10368.386,377.805c.692-6.7,1.129-16.493,1.129-27.4,0-11.163-.457-21.156-1.178-27.864h-4.329c-.721,6.708-1.178,16.7-1.178,27.864,0,10.909.437,20.7,1.129,27.4Z" transform="translate(-10354.195 -307.856)"/><path class="d" d="M10012.3,407.171c2.447-10.262,3.99-25.257,3.99-41.962,0-17.094-1.616-32.4-4.163-42.67h-15.3c-2.546,10.273-4.162,25.576-4.162,42.67,0,16.705,1.543,31.7,3.99,41.962Z" transform="translate(-9992.667 -322.539)"/><path class="e" d="M10517.875,335.136H10018.51c-8.033,0-14.568,5.065-14.568,11.29v37.1c0,6.225,6.535,11.288,14.568,11.288h499.365c8.03,0,14.563-5.064,14.563-11.288v-37.1C10532.438,340.2,10525.905,335.136,10517.875,335.136Zm13.037,48.392c0,5.569-5.852,10.1-13.037,10.1H10018.51c-7.188,0-13.037-4.531-13.037-10.1v-37.1c0-5.57,5.849-10.1,13.037-10.1h499.365c7.186,0,13.037,4.531,13.037,10.1Z" transform="translate(-9992.665 -322.539)"/></g></svg>